<?xml version="1.0" encoding="UTF-8"?>
<svg version="1.1" xmlns="http://www.w3.org/2000/svg" width="1536" height="1024">
<path d="M0 0 C506.88 0 1013.76 0 1536 0 C1536 337.92 1536 675.84 1536 1024 C1029.12 1024 522.24 1024 0 1024 C0 686.08 0 348.16 0 0 Z " fill="#00172B" transform="translate(0,0)"/>
<path d="M0 0 C0.9371232 -0.00352842 1.8742464 -0.00705684 2.83976728 -0.01069218 C3.86808189 -0.0094944 4.89639651 -0.00829663 5.95587218 -0.00706255 C7.60266806 -0.01104029 7.60266806 -0.01104029 9.28273255 -0.01509839 C12.99343697 -0.02281066 16.7041084 -0.0233513 20.41482031 -0.02394831 C23.08941668 -0.02796167 25.7640099 -0.03236294 28.43860459 -0.03722787 C35.0390114 -0.04830598 41.63941288 -0.05395274 48.23982735 -0.05793675 C56.14362613 -0.06294464 64.04741458 -0.07367204 71.95120727 -0.08441848 C91.05777102 -0.11005427 110.16433878 -0.12508568 129.27091479 -0.13792895 C135.59959834 -0.14218339 141.92828161 -0.14674911 148.2569648 -0.15151227 C181.90566718 -0.1767735 215.55437004 -0.19882202 249.20307982 -0.21124041 C257.0001106 -0.21416175 264.79714137 -0.21712927 272.59417212 -0.22014582 C274.04720049 -0.22070219 274.04720049 -0.22070219 275.52958296 -0.22126979 C306.93119745 -0.2334232 338.33275586 -0.26436335 369.73434402 -0.30606735 C402.01606943 -0.34886203 434.29776522 -0.37548236 466.57951977 -0.38071512 C471.13990141 -0.38145556 475.700283 -0.38236625 480.26066458 -0.3833729 C481.60694142 -0.38365882 481.60694142 -0.38365882 482.98041576 -0.38395052 C497.41963122 -0.38746295 511.85877642 -0.40775566 526.29796609 -0.43416954 C540.81562908 -0.46032622 555.33321096 -0.4680365 569.85089414 -0.45706825 C578.47304576 -0.45109579 587.09492208 -0.45898013 595.71703198 -0.48689909 C601.48203415 -0.50418296 607.24684911 -0.50317518 613.01185538 -0.4875314 C616.29319245 -0.47914071 619.57390226 -0.48124886 622.85521071 -0.50014286 C639.51330678 -0.59018441 653.97147031 -0.6075505 667.17180884 10.96979558 C675.37850127 19.10295135 681.98186163 29.2446096 682.47454417 41.08779657 C682.47362237 42.18933918 682.47270058 43.2908818 682.47175086 44.4258045 C682.47312552 45.69480093 682.47450018 46.96379735 682.4759165 48.27124822 C682.47237782 49.66986907 682.46874302 51.06848967 682.46502173 52.46711004 C682.46473954 53.94566125 682.46489822 55.4242126 682.46546423 56.90276372 C682.46575096 60.91061659 682.45987438 64.91843948 682.45289028 68.92628539 C682.44663598 73.11699065 682.44605129 77.30769661 682.44486487 81.49840581 C682.44175768 89.4314226 682.43355253 97.36442559 682.42351538 105.2974363 C682.41233524 114.33002662 682.406839 123.36261761 682.40181994 132.39521313 C682.39136942 150.97346718 682.37378182 169.5517084 682.35149634 188.12995183 C683.00358572 188.12106939 683.65567511 188.11218694 684.32752478 188.10303533 C691.1577725 188.01405639 697.98785367 187.9540089 704.81853735 187.91022527 C707.36255078 187.89019749 709.90651869 187.8629672 712.45037329 187.82819402 C716.12195617 187.77928753 719.79292666 187.75689363 723.46477759 187.73932683 C724.58918753 187.71868169 725.71359747 187.69803655 726.87208045 187.6767658 C739.79050384 187.67315291 748.78531247 191.977409 758.06634009 200.75104558 C765.04317831 208.15395026 768.47415254 217.67747219 768.48013079 227.70339525 C768.48188383 228.36546837 768.48363687 229.02754149 768.48544303 229.70967743 C768.49011111 231.93789899 768.48763544 234.16605552 768.48520911 236.39427984 C768.48707668 238.00411531 768.48937717 239.61395033 768.49207443 241.22378463 C768.49820564 245.65539223 768.49805728 250.086981 768.49688005 254.51859188 C768.49667638 259.29515576 768.50219171 264.07171354 768.50693762 268.84827459 C768.51525235 278.2100996 768.51799285 287.57191832 768.51855 296.93374672 C768.51902484 304.54322498 768.521078 312.15270117 768.52425063 319.76217878 C768.53306002 341.32992988 768.53766964 362.897676 768.53692015 384.46542891 C768.53686022 386.21036263 768.53686022 386.21036263 768.53679907 387.99054754 C768.53673775 389.7376089 768.53673775 389.7376089 768.53667519 391.51996443 C768.53626881 410.39266261 768.5458357 429.26534083 768.55993744 448.13803323 C768.57429815 467.51000733 768.58120777 486.88197169 768.58034366 506.25395125 C768.58001155 517.13232158 768.58276474 528.010671 768.59352171 538.88903654 C768.60262277 548.15232718 768.60480526 557.41558742 768.59801229 566.67888059 C768.59474489 571.40499151 768.59469834 576.1310441 768.60336554 580.85714948 C768.61122185 585.18563576 768.60980796 589.51401738 768.60108141 593.84250108 C768.59954449 595.40646178 768.60136981 596.97043025 768.60694148 598.53438177 C768.65400234 612.68406591 767.24915139 626.27763794 756.97649634 637.06745183 C748.50153714 644.70606638 739.16335193 648.6097672 727.75045264 648.51763189 C726.52549403 648.5257102 726.52549403 648.5257102 725.27578878 648.5339517 C722.56535272 648.54815036 719.85541066 648.54114775 717.14495337 648.53400457 C715.1910513 648.5397124 713.23715256 648.54667826 711.28325903 648.5548023 C705.99391757 648.57270382 700.70474227 648.57157087 695.41537964 648.56585991 C690.99206853 648.56276349 686.56878913 648.56886562 682.14548254 648.57489866 C671.70615157 648.58893263 661.26690246 648.58739218 650.82757056 648.57599676 C640.07513075 648.56451857 629.32294045 648.57858885 618.57053351 648.60539323 C609.32268046 648.62757971 600.07490556 648.6341809 590.8270278 648.62831682 C585.31083246 648.62495288 579.79479702 648.62732486 574.27862418 648.64456785 C569.08939825 648.66008168 563.90054071 648.65603216 558.7113291 648.6372627 C556.81312499 648.63358901 554.91489332 648.6366495 553.01671469 648.64714849 C538.20480389 648.72278353 526.75475923 647.205955 515.66790259 636.50495183 C508.30897735 628.57713212 505.01226348 618.05324565 505.12444556 607.3587116 C505.1241535 606.61641805 505.12386145 605.8741245 505.12356055 605.10933721 C505.12494292 602.67988779 505.14045195 600.25075327 505.15618384 597.82135808 C505.15991787 596.12742567 505.162763 594.43349107 505.16475928 592.73955572 C505.17236506 588.29917129 505.19198706 583.85891944 505.21416724 579.41858709 C505.23469173 574.88033628 505.24377507 570.34206388 505.25384009 565.80377996 C505.27523604 556.91244594 505.30933479 548.02120995 505.35149634 539.12995183 C503.75231033 539.13223016 503.75231033 539.13223016 502.12081754 539.13455451 C455.12661691 539.20124253 408.13241308 539.26295194 361.13817847 539.29932439 C360.42650796 539.29987662 359.71483744 539.30042885 358.98160116 539.30099781 C343.51441855 539.31296994 328.04723543 539.3240506 312.58005153 539.33421315 C304.99475177 539.33920242 297.40945215 539.34438865 289.82415259 539.3496784 C288.69192065 539.35046295 288.69192065 539.35046295 287.53681533 539.35126336 C263.07875731 539.3683033 238.6207363 539.39834447 214.16270069 539.43514072 C189.0251394 539.47289052 163.88759858 539.49749812 138.75000942 539.5056118 C135.1980458 539.50676438 131.64608225 539.50806693 128.09411871 539.50946081 C127.04552111 539.50986534 127.04552111 539.50986534 125.97573972 539.51027806 C114.73081836 539.51500164 103.48596037 539.53354498 92.24106484 539.55727997 C80.93122565 539.58085626 69.62146817 539.58949352 58.31159851 539.58395734 C52.18563293 539.58139414 46.0598531 539.58533722 39.9339205 539.60677373 C34.32271165 539.62626557 28.71181316 539.62720445 23.1005899 539.61354741 C21.07346566 539.61185995 19.0463219 539.61691156 17.01923594 539.62948456 C-0.28623334 539.73055769 -14.48817461 537.19259817 -27.46100366 524.75495183 C-37.2060733 514.47708297 -40.80894528 503.31325068 -40.78551805 489.22837007 C-40.78816988 488.44700149 -40.7908217 487.66563291 -40.79355389 486.86058649 C-40.80122212 484.23856567 -40.80180511 481.61659187 -40.80240381 478.9945606 C-40.80642005 477.09711339 -40.81085854 475.19966704 -40.81568336 473.30222172 C-40.82763643 468.08475088 -40.83329436 462.86728929 -40.83786452 457.64980745 C-40.8438253 452.02383868 -40.85543385 446.39788094 -40.86615503 440.77191961 C-40.8906664 427.18432906 -40.90530345 413.59673487 -40.9182151 400.00912902 C-40.92192767 396.17124551 -40.92590084 392.33336237 -40.92996776 388.49547923 C-40.95520269 364.66029408 -40.97727069 340.82510866 -40.98969591 316.98991334 C-40.99261709 311.47026795 -40.99558465 305.95062257 -40.99860132 300.43097723 C-40.99897223 299.74525193 -40.99934314 299.05952663 -40.99972528 298.35302178 C-41.0118784 276.12461426 -41.04282044 253.89628596 -41.08452284 231.66791563 C-41.128552 208.15636192 -41.15423327 184.64487299 -41.15961647 161.13327259 C-41.1630298 148.32091759 -41.17477617 135.50868761 -41.20771921 122.69637144 C-41.23572725 111.78558072 -41.24671558 100.87494068 -41.23552375 89.9641168 C-41.23033933 84.39893688 -41.23321035 78.83407246 -41.25798929 73.26893842 C-41.28050634 68.16917146 -41.27972252 63.06994622 -41.26078542 57.97016961 C-41.25798891 56.13028389 -41.26356438 54.29036124 -41.27859835 52.45053481 C-41.40466821 36.01045902 -38.28530065 24.18653354 -26.58600366 11.97760808 C-19.32632024 5.01609024 -10.22811491 0.01219654 0 0 Z " fill="#001D32" transform="translate(374.6485036611557,187.87004816532135)"/>
<path d="M0 0 C1.92774106 -0.00514434 3.85547741 -0.01242949 5.78320312 -0.02168274 C10.99603743 -0.04013802 16.2083578 -0.02729568 21.42117047 -0.00759244 C26.88755173 0.00884153 32.35390165 -0.00002533 37.82029724 -0.00511169 C46.99730602 -0.00962695 56.1741106 0.00620303 65.35107422 0.03417969 C75.94852035 0.06623845 86.54559847 0.06621021 97.14307076 0.04896492 C107.35516683 0.03308152 117.56712846 0.03984447 127.77921867 0.05690193 C132.11753879 0.06375975 136.45575074 0.06275303 140.79406929 0.05535698 C145.90536366 0.04767552 151.01624096 0.05988113 156.12746429 0.08720589 C157.99908396 0.0940709 159.87074273 0.09420798 161.74236107 0.08699036 C174.3775327 0.04389219 183.61441226 0.86850586 193.19702148 9.76391602 C198.62583833 15.63489894 200.0460256 21.41610049 200.05780506 29.23298836 C200.06015729 29.89813863 200.06250952 30.5632889 200.06493303 31.24859524 C200.07161342 33.48728988 200.0711651 35.72592636 200.070755 37.96463013 C200.07405423 39.58200286 200.07777992 41.19937478 200.08189648 42.81674564 C200.09191795 47.26922186 200.09563351 51.72168459 200.09828579 56.17417049 C200.1021884 60.97325145 200.11176675 65.77232173 200.12049866 70.57139587 C200.14026406 82.16498109 200.15032927 93.75856719 200.15922645 105.35216504 C200.16360913 110.81102926 200.16897598 116.2698925 200.17421532 121.72875595 C200.19122749 139.87384146 200.20572194 158.01892637 200.21296406 176.16401863 C200.21487397 180.87309902 200.2167943 185.5821794 200.21875 190.29125977 C200.21923374 191.46168626 200.21971748 192.63211276 200.22021588 193.83800672 C200.2285172 212.80058233 200.25385592 231.76309487 200.28633068 250.72564293 C200.31939564 270.19141274 200.3374123 289.65715049 200.3406083 309.12294853 C200.34277389 320.0533609 200.35152979 330.9836813 200.37706947 341.91406631 C200.39876872 351.222365 200.40683067 360.53054937 200.39710269 369.83887048 C200.3925558 374.58745134 200.39446693 379.33579631 200.41386414 384.08434486 C200.43148064 388.43457066 200.43051039 392.78438822 200.41496684 397.13461827 C200.41258848 398.70533068 200.41692622 400.27607125 200.42879549 401.84674062 C200.50695291 412.87572043 199.56660623 422.66259736 191.77124023 431.09594727 C185.12873032 436.61498827 177.69412448 438.77828718 169.24061584 438.79173279 C168.05503205 438.79936452 168.05503205 438.79936452 166.84549707 438.80715042 C164.18801543 438.82288862 161.53056102 438.83140372 158.87304688 438.83984375 C156.97091499 438.84938141 155.06878484 438.85927253 153.16665649 438.86949158 C146.90987206 438.90089723 140.65307428 438.92115079 134.39624023 438.93969727 C132.79873149 438.94464325 132.79873149 438.94464325 131.16894984 438.94968915 C121.12078121 438.98047927 111.07260958 439.00718285 101.02440739 439.02410793 C88.18133129 439.04599499 75.33867431 439.08791825 62.49576575 439.15754551 C53.46119996 439.20485726 44.42674693 439.22905138 35.39206117 439.23630482 C29.99912294 439.24125166 24.60665689 439.25623996 19.21385384 439.29604912 C14.13378525 439.33305371 9.0544558 439.34127983 3.9742775 439.32804298 C2.1167816 439.32809671 0.25925181 439.33830148 -1.59811974 439.35979462 C-12.24923711 439.47638647 -21.08905917 439.17813485 -30.07641602 432.63110352 C-38.01811222 424.76495302 -40.36812481 416.37702009 -40.47696081 405.38358349 C-40.48252573 403.16479049 -40.4734207 400.94631582 -40.46409607 398.72753906 C-40.46827264 397.1092603 -40.47375193 395.49098447 -40.48041588 393.87271404 C-40.49484653 389.44094807 -40.49063324 385.00936844 -40.48324907 380.57759237 C-40.47851388 375.79223996 -40.49103028 371.00692765 -40.50126648 366.22158813 C-40.51845222 356.85307825 -40.51929504 347.48463545 -40.51405358 338.1161139 C-40.51001065 330.50150513 -40.51145689 322.88691617 -40.51680183 315.27230835 C-40.51755026 314.18818466 -40.51829868 313.10406097 -40.51906978 311.98708504 C-40.52060127 309.78464643 -40.52213961 307.58220781 -40.52368475 305.37976921 C-40.53740868 284.73188431 -40.53197258 264.08403732 -40.52049953 243.43615329 C-40.51056466 224.54757758 -40.52351244 205.65909978 -40.54743373 186.77053916 C-40.57181657 167.3712777 -40.58143476 147.97206186 -40.574781 128.57278538 C-40.57128731 117.68329075 -40.57353091 106.79387147 -40.59103203 95.90438843 C-40.60574368 86.63569496 -40.60640284 77.3671299 -40.58896112 68.09843898 C-40.58044073 63.37020887 -40.57832703 58.64220825 -40.59361267 53.91399002 C-40.60743844 49.58373812 -40.60272387 45.25391277 -40.58337343 40.92368567 C-40.57960667 39.3592032 -40.5825549 37.79468674 -40.59298509 36.2302345 C-40.66336866 24.8628228 -39.38581375 15.95030029 -31.16986752 7.56223202 C-22.06602726 -0.83571051 -11.61876185 -0.07888842 0 0 Z " fill="#001C31" transform="translate(931.076416015625,386.368896484375)"/>
<path d="M0 0 C1.38963681 -0.00490829 1.38963681 -0.00490829 2.80734709 -0.00991574 C4.33185318 -0.0076903 4.33185318 -0.0076903 5.88715738 -0.00541991 C6.9724131 -0.00777214 8.05766882 -0.01012437 9.17581108 -0.01254788 C12.84359762 -0.01925028 16.51134883 -0.01877928 20.17914099 -0.01836985 C22.82287695 -0.0216677 25.4666098 -0.02535525 28.11034429 -0.02951133 C34.63432223 -0.03884343 41.15829338 -0.04276041 47.68227716 -0.0450303 C55.49445329 -0.04799079 63.3066204 -0.0566873 71.1187918 -0.06544458 C90.00259225 -0.08629633 108.88639427 -0.09675994 127.77020355 -0.10557419 C136.70220891 -0.10977966 145.6342136 -0.11500179 154.56621839 -0.12025872 C185.13652709 -0.13814956 215.70683599 -0.15314594 246.27714914 -0.16057891 C248.19664283 -0.16105366 250.11613653 -0.16152955 252.03563022 -0.16200657 C252.98753433 -0.16224294 253.93943843 -0.16247932 254.92018812 -0.16272286 C259.74307292 -0.16392407 264.56595772 -0.16513951 269.38884252 -0.16636485 C270.34596164 -0.166605 271.30308075 -0.16684515 272.28920348 -0.16709258 C303.32376366 -0.17498613 334.35828563 -0.19841878 365.39282912 -0.23092079 C398.19785121 -0.26521433 431.00285094 -0.28492961 463.80789125 -0.28822315 C467.40879304 -0.28864069 471.00969482 -0.28912026 474.6105966 -0.28964633 C475.94057903 -0.28983111 475.94057903 -0.28983111 477.29742979 -0.29001964 C491.56985581 -0.29235226 505.84223747 -0.30801569 520.11464767 -0.32848817 C534.45974039 -0.34873852 548.8047798 -0.35422722 563.14988417 -0.34471754 C571.67264825 -0.3394995 580.19523491 -0.34539434 588.71797348 -0.36725221 C594.4129022 -0.38075414 600.10770872 -0.37968871 605.80263865 -0.36685025 C609.04634811 -0.35994947 612.28965064 -0.36151328 615.53334308 -0.37641034 C619.03274488 -0.39148729 622.53125598 -0.38188447 626.03063577 -0.36618346 C627.03058501 -0.37640567 628.03053424 -0.38662787 629.06078497 -0.39715984 C640.04676049 -0.28955901 649.55397257 3.32922325 657.39934057 11.12880117 C672.34982516 29.83294819 665.39934057 44.71749386 665.39934057 73.12880117 C435.05934057 73.12880117 204.71934057 73.12880117 -32.60065943 73.12880117 C-32.60065943 20.23594402 -32.60065943 20.23594402 -22.85065943 10.35536367 C-16.22275702 4.21937589 -9.19397938 0.00851364 0 0 Z " fill="#00182C" transform="translate(378.600659430027,199.87119883298874)"/>
<path d="M0 0 C0.9371232 -0.00352842 1.8742464 -0.00705684 2.83976728 -0.01069218 C3.86808189 -0.0094944 4.89639651 -0.00829663 5.95587218 -0.00706255 C7.60266806 -0.01104029 7.60266806 -0.01104029 9.28273255 -0.01509839 C12.99343697 -0.02281066 16.7041084 -0.0233513 20.41482031 -0.02394831 C23.08941668 -0.02796167 25.7640099 -0.03236294 28.43860459 -0.03722787 C35.0390114 -0.04830598 41.63941288 -0.05395274 48.23982735 -0.05793675 C56.14362613 -0.06294464 64.04741458 -0.07367204 71.95120727 -0.08441848 C91.05777102 -0.11005427 110.16433878 -0.12508568 129.27091479 -0.13792895 C135.59959834 -0.14218339 141.92828161 -0.14674911 148.2569648 -0.15151227 C181.90566718 -0.1767735 215.55437004 -0.19882202 249.20307982 -0.21124041 C257.0001106 -0.21416175 264.79714137 -0.21712927 272.59417212 -0.22014582 C274.04720049 -0.22070219 274.04720049 -0.22070219 275.52958296 -0.22126979 C306.93119745 -0.2334232 338.33275586 -0.26436335 369.73434402 -0.30606735 C402.01606943 -0.34886203 434.29776522 -0.37548236 466.57951977 -0.38071512 C471.13990141 -0.38145556 475.700283 -0.38236625 480.26066458 -0.3833729 C481.60694142 -0.38365882 481.60694142 -0.38365882 482.98041576 -0.38395052 C497.41963122 -0.38746295 511.85877642 -0.40775566 526.29796609 -0.43416954 C540.81562908 -0.46032622 555.33321096 -0.4680365 569.85089414 -0.45706825 C578.47304576 -0.45109579 587.09492208 -0.45898013 595.71703198 -0.48689909 C601.48203415 -0.50418296 607.24684911 -0.50317518 613.01185538 -0.4875314 C616.29319245 -0.47914071 619.57390226 -0.48124886 622.85521071 -0.50014286 C639.51330678 -0.59018441 653.97147031 -0.6075505 667.17180884 10.96979558 C675.37850127 19.10295135 681.98186163 29.2446096 682.47454417 41.08779657 C682.47362237 42.18933918 682.47270058 43.2908818 682.47175086 44.4258045 C682.47312552 45.69480093 682.47450018 46.96379735 682.4759165 48.27124822 C682.47237782 49.66986907 682.46874302 51.06848967 682.46502173 52.46711004 C682.46473954 53.94566125 682.46489822 55.4242126 682.46546423 56.90276372 C682.46575096 60.91061659 682.45987438 64.91843948 682.45289028 68.92628539 C682.44663598 73.11699065 682.44605129 77.30769661 682.44486487 81.49840581 C682.44175768 89.4314226 682.43355253 97.36442559 682.42351538 105.2974363 C682.41233524 114.33002662 682.406839 123.36261761 682.40181994 132.39521313 C682.39136942 150.97346718 682.37378182 169.5517084 682.35149634 188.12995183 C683.00358572 188.12106939 683.65567511 188.11218694 684.32752478 188.10303533 C691.1577725 188.01405639 697.98785367 187.9540089 704.81853735 187.91022527 C707.36255078 187.89019749 709.90651869 187.8629672 712.45037329 187.82819402 C716.12195617 187.77928753 719.79292666 187.75689363 723.46477759 187.73932683 C724.58918753 187.71868169 725.71359747 187.69803655 726.87208045 187.6767658 C739.79050384 187.67315291 748.78531247 191.977409 758.06634009 200.75104558 C765.04317831 208.15395026 768.47415254 217.67747219 768.48013079 227.70339525 C768.48188383 228.36546837 768.48363687 229.02754149 768.48544303 229.70967743 C768.49011111 231.93789899 768.48763544 234.16605552 768.48520911 236.39427984 C768.48707668 238.00411531 768.48937717 239.61395033 768.49207443 241.22378463 C768.49820564 245.65539223 768.49805728 250.086981 768.49688005 254.51859188 C768.49667638 259.29515576 768.50219171 264.07171354 768.50693762 268.84827459 C768.51525235 278.2100996 768.51799285 287.57191832 768.51855 296.93374672 C768.51902484 304.54322498 768.521078 312.15270117 768.52425063 319.76217878 C768.53306002 341.32992988 768.53766964 362.897676 768.53692015 384.46542891 C768.53686022 386.21036263 768.53686022 386.21036263 768.53679907 387.99054754 C768.53673775 389.7376089 768.53673775 389.7376089 768.53667519 391.51996443 C768.53626881 410.39266261 768.5458357 429.26534083 768.55993744 448.13803323 C768.57429815 467.51000733 768.58120777 486.88197169 768.58034366 506.25395125 C768.58001155 517.13232158 768.58276474 528.010671 768.59352171 538.88903654 C768.60262277 548.15232718 768.60480526 557.41558742 768.59801229 566.67888059 C768.59474489 571.40499151 768.59469834 576.1310441 768.60336554 580.85714948 C768.61122185 585.18563576 768.60980796 589.51401738 768.60108141 593.84250108 C768.59954449 595.40646178 768.60136981 596.97043025 768.60694148 598.53438177 C768.65400234 612.68406591 767.24915139 626.27763794 756.97649634 637.06745183 C748.50153714 644.70606638 739.16335193 648.6097672 727.75045264 648.51763189 C726.52549403 648.5257102 726.52549403 648.5257102 725.27578878 648.5339517 C722.56535272 648.54815036 719.85541066 648.54114775 717.14495337 648.53400457 C715.1910513 648.5397124 713.23715256 648.54667826 711.28325903 648.5548023 C705.99391757 648.57270382 700.70474227 648.57157087 695.41537964 648.56585991 C690.99206853 648.56276349 686.56878913 648.56886562 682.14548254 648.57489866 C671.70615157 648.58893263 661.26690246 648.58739218 650.82757056 648.57599676 C640.07513075 648.56451857 629.32294045 648.57858885 618.57053351 648.60539323 C609.32268046 648.62757971 600.07490556 648.6341809 590.8270278 648.62831682 C585.31083246 648.62495288 579.79479702 648.62732486 574.27862418 648.64456785 C569.08939825 648.66008168 563.90054071 648.65603216 558.7113291 648.6372627 C556.81312499 648.63358901 554.91489332 648.6366495 553.01671469 648.64714849 C538.20480389 648.72278353 526.75475923 647.205955 515.66790259 636.50495183 C508.30897735 628.57713212 505.01226348 618.05324565 505.12444556 607.3587116 C505.1241535 606.61641805 505.12386145 605.8741245 505.12356055 605.10933721 C505.12494292 602.67988779 505.14045195 600.25075327 505.15618384 597.82135808 C505.15991787 596.12742567 505.162763 594.43349107 505.16475928 592.73955572 C505.17236506 588.29917129 505.19198706 583.85891944 505.21416724 579.41858709 C505.23469173 574.88033628 505.24377507 570.34206388 505.25384009 565.80377996 C505.27523604 556.91244594 505.30933479 548.02120995 505.35149634 539.12995183 C503.75231033 539.13223016 503.75231033 539.13223016 502.12081754 539.13455451 C455.12661691 539.20124253 408.13241308 539.26295194 361.13817847 539.29932439 C360.42650796 539.29987662 359.71483744 539.30042885 358.98160116 539.30099781 C343.51441855 539.31296994 328.04723543 539.3240506 312.58005153 539.33421315 C304.99475177 539.33920242 297.40945215 539.34438865 289.82415259 539.3496784 C288.69192065 539.35046295 288.69192065 539.35046295 287.53681533 539.35126336 C263.07875731 539.3683033 238.6207363 539.39834447 214.16270069 539.43514072 C189.0251394 539.47289052 163.88759858 539.49749812 138.75000942 539.5056118 C135.1980458 539.50676438 131.64608225 539.50806693 128.09411871 539.50946081 C127.04552111 539.50986534 127.04552111 539.50986534 125.97573972 539.51027806 C114.73081836 539.51500164 103.48596037 539.53354498 92.24106484 539.55727997 C80.93122565 539.58085626 69.62146817 539.58949352 58.31159851 539.58395734 C52.18563293 539.58139414 46.0598531 539.58533722 39.9339205 539.60677373 C34.32271165 539.62626557 28.71181316 539.62720445 23.1005899 539.61354741 C21.07346566 539.61185995 19.0463219 539.61691156 17.01923594 539.62948456 C-0.28623334 539.73055769 -14.48817461 537.19259817 -27.46100366 524.75495183 C-37.2060733 514.47708297 -40.80894528 503.31325068 -40.78551805 489.22837007 C-40.78816988 488.44700149 -40.7908217 487.66563291 -40.79355389 486.86058649 C-40.80122212 484.23856567 -40.80180511 481.61659187 -40.80240381 478.9945606 C-40.80642005 477.09711339 -40.81085854 475.19966704 -40.81568336 473.30222172 C-40.82763643 468.08475088 -40.83329436 462.86728929 -40.83786452 457.64980745 C-40.8438253 452.02383868 -40.85543385 446.39788094 -40.86615503 440.77191961 C-40.8906664 427.18432906 -40.90530345 413.59673487 -40.9182151 400.00912902 C-40.92192767 396.17124551 -40.92590084 392.33336237 -40.92996776 388.49547923 C-40.95520269 364.66029408 -40.97727069 340.82510866 -40.98969591 316.98991334 C-40.99261709 311.47026795 -40.99558465 305.95062257 -40.99860132 300.43097723 C-40.99897223 299.74525193 -40.99934314 299.05952663 -40.99972528 298.35302178 C-41.0118784 276.12461426 -41.04282044 253.89628596 -41.08452284 231.66791563 C-41.128552 208.15636192 -41.15423327 184.64487299 -41.15961647 161.13327259 C-41.1630298 148.32091759 -41.17477617 135.50868761 -41.20771921 122.69637144 C-41.23572725 111.78558072 -41.24671558 100.87494068 -41.23552375 89.9641168 C-41.23033933 84.39893688 -41.23321035 78.83407246 -41.25798929 73.26893842 C-41.28050634 68.16917146 -41.27972252 63.06994622 -41.26078542 57.97016961 C-41.25798891 56.13028389 -41.26356438 54.29036124 -41.27859835 52.45053481 C-41.40466821 36.01045902 -38.28530065 24.18653354 -26.58600366 11.97760808 C-19.32632024 5.01609024 -10.22811491 0.01219654 0 0 Z M-21.39850366 24.94245183 C-26.70226878 32.45611909 -28.80337264 39.56115276 -28.77713811 48.67446554 C-28.77889115 49.44151742 -28.78064419 50.20856931 -28.78245035 50.99886519 C-28.78712389 53.58418421 -28.78464136 56.16944732 -28.78221643 58.75476873 C-28.78408372 60.62105444 -28.7863841 62.48733977 -28.78908175 64.35362446 C-28.79521632 69.49405954 -28.79506421 74.63447839 -28.79388738 79.77491629 C-28.79368379 85.31424895 -28.79919817 90.85357633 -28.80394495 96.39290655 C-28.81226131 107.25034145 -28.81500024 118.10777092 -28.81555732 128.96520874 C-28.81603205 137.78894052 -28.81808462 146.61267051 -28.82125795 155.43640172 C-28.82863326 176.36946 -28.83478247 197.30251729 -28.83425939 218.23557699 C-28.83424381 218.90524687 -28.83422823 219.57491676 -28.83421218 220.26487967 C-28.83412907 223.65912949 -28.83403003 227.05337931 -28.83392747 230.44762912 C-28.83390753 231.12175185 -28.83388758 231.79587459 -28.83386703 232.49042528 C-28.8338266 233.85366668 -28.8337848 235.21690808 -28.83374164 236.58014948 C-28.83312894 257.78800061 -28.84063389 278.99583575 -28.85431421 300.2036823 C-28.86967408 324.02512175 -28.8782678 347.84655077 -28.87735099 371.66799653 C-28.8770187 384.28287819 -28.87977967 396.89774183 -28.89052904 409.51261938 C-28.89962258 420.2533906 -28.90181875 430.99413563 -28.89501961 441.73490903 C-28.89174852 447.21631751 -28.89171895 452.69767568 -28.90037286 458.17907941 C-28.90821283 463.19648263 -28.90683209 468.21379543 -28.89808873 473.23119637 C-28.8965482 475.04681992 -28.89839063 476.86245012 -28.90394881 478.67806581 C-28.91100434 481.14617782 -28.90571884 483.61397231 -28.89739263 486.08207357 C-28.90236081 486.78668256 -28.90732899 487.49129154 -28.91244772 488.21725231 C-28.83380451 499.24679876 -24.93311197 509.02798811 -17.33600366 517.00495183 C-9.12109271 524.72942034 -0.02467537 527.44995493 11.06836855 527.37604749 C12.35436186 527.37950902 12.35436186 527.37950902 13.66633484 527.38304049 C16.54066937 527.38833653 19.4147801 527.37935961 22.28910315 527.37046087 C24.36991965 527.37133301 26.45073594 527.37308416 28.53155106 527.3756392 C34.25075532 527.38011493 39.96988479 527.37210589 45.68907952 527.36208308 C51.85602159 527.35345417 58.02295936 527.35636834 64.18990576 527.35788763 C74.87500072 527.35893683 85.56006881 527.35272629 96.24515593 527.34141195 C107.45116729 527.32957642 118.65716891 527.32187976 129.86318648 527.31970632 C130.90846336 527.3195001 130.90846336 527.3195001 131.97485694 527.31928972 C135.51383681 527.31861305 139.05281669 527.31801028 142.59179658 527.31743596 C167.65599024 527.31323555 192.72017118 527.29976198 217.78435767 527.28083074 C242.13331531 527.26246096 266.48226948 527.24829418 290.83123267 527.23981512 C291.58182211 527.23955206 292.33241155 527.23928901 293.10574612 527.23901799 C300.64349892 527.23638094 308.18125174 527.23382931 315.71900459 527.23134027 C331.07416825 527.22626789 346.42933167 527.22062539 361.784495 527.21463811 C362.49049489 527.21436353 363.19649479 527.21408895 363.92388863 527.21380605 C411.06642993 527.19540586 458.20896377 527.16367399 505.35149634 527.12995183 C505.35247315 526.48626232 505.35344996 525.84257281 505.35445637 525.17937756 C505.41274623 487.01715193 505.48655653 448.85498558 505.58048262 410.69283042 C505.59175059 406.1092084 505.60288908 401.52558608 505.61394751 396.94196355 C505.61615119 396.02945854 505.61835488 395.11695352 505.62062534 394.17679684 C505.65598412 379.4075484 505.68085627 364.63830001 505.70184336 349.86902495 C505.72361671 334.71095648 505.75668173 319.55294286 505.8001979 304.39492106 C505.82668815 295.04390702 505.84440287 285.69296131 505.85084238 276.3419116 C505.85610429 269.92690022 505.87234825 263.51197479 505.897162 257.09700949 C505.91114948 253.39759199 505.92035813 249.69832824 505.9165045 245.99888265 C505.91244746 241.98223907 505.93154856 237.96602987 505.95276892 233.94944036 C505.94549756 232.20718771 505.94549756 232.20718771 505.9380793 230.42973804 C506.04200546 218.49661132 509.12064772 208.13798157 517.16790259 199.08698308 C521.97031313 194.53682037 527.11842058 192.18919178 533.35149634 190.12995183 C534.34149634 189.79995183 535.33149634 189.46995183 536.35149634 189.12995183 C538.16536094 189.02778568 539.98271745 188.98362953 541.79941809 188.97173345 C542.93103873 188.96194463 544.06265936 188.95215581 545.22857153 188.94207036 C546.47078467 188.9363149 547.7129978 188.93055944 548.99285376 188.92462957 C550.3002703 188.91472997 551.60768683 188.90483037 552.95472205 188.89463079 C556.5411873 188.86758531 560.12766571 188.84657382 563.71417654 188.8266288 C567.46182256 188.80476706 571.20942805 188.77737929 574.95704138 188.75057256 C582.05427915 188.70064823 589.15153942 188.65570844 596.2488212 188.6125502 C604.32857029 188.56317561 612.40827871 188.5082583 620.48798847 188.45287061 C637.10912028 188.33905454 653.73028935 188.23221468 670.35149634 188.12995183 C670.44510581 169.15355522 670.51555675 150.17720573 670.55874503 131.20062578 C670.57933473 122.38865901 670.60738629 113.57683604 670.65325415 104.7649616 C670.6932323 97.0808966 670.71895524 89.3969358 670.72785032 81.71276969 C670.73304657 77.64730954 670.74518385 73.58214738 670.77441657 69.51678312 C670.80175968 65.682795 670.80990366 61.84922489 670.80392706 58.01514852 C670.80501893 56.61520837 670.81285988 55.21525285 670.82831824 53.81539762 C670.95587955 41.65775235 668.93165135 31.1878881 660.35149634 22.12995183 C651.76726752 13.9985175 641.54874509 11.51824162 629.99955142 11.62658727 C628.35910307 11.61786663 628.35910307 11.61786663 626.68551436 11.60896981 C623.03117779 11.59440465 619.37751654 11.60823956 615.72318518 11.62201726 C613.07267705 11.61740699 610.42221503 11.61121696 607.77171963 11.60310829 C602.01436669 11.58869222 596.25716391 11.58908077 590.49980414 11.59929693 C581.93838982 11.61444736 573.37710181 11.60668134 564.8156883 11.5944637 C549.52399441 11.5734134 534.23236742 11.57522118 518.94066718 11.58677935 C505.55923212 11.59684394 492.17782157 11.59946727 478.7963835 11.59468877 C477.90855625 11.59438323 477.020729 11.59407769 476.1059979 11.59376289 C472.50197458 11.59251753 468.89795128 11.59124393 465.29392799 11.58992384 C431.49067894 11.57768985 397.68747248 11.58877868 363.88423 11.61031143 C333.85400886 11.62929527 303.82385556 11.62759373 273.79363501 11.60846746 C240.05046769 11.58704822 206.30733799 11.57855586 172.56416482 11.59091651 C168.96704102 11.59219938 165.36991722 11.59345074 161.77279341 11.59468877 C160.88709654 11.59500508 160.00139966 11.59532139 159.08886349 11.59564729 C145.7153525 11.60019672 132.34186872 11.59487696 118.9683615 11.58477056 C103.76249834 11.5733367 88.5567125 11.57618614 73.35085898 11.59789354 C64.84118988 11.609641 56.33168821 11.61040214 47.82202345 11.59530884 C42.13733002 11.58633818 36.45277082 11.59192345 30.76809728 11.60932791 C27.52955204 11.61883968 24.29140527 11.61990258 21.05285918 11.60770398 C17.56078596 11.59555776 14.06962559 11.60799891 10.57760012 11.62658727 C9.07673715 11.61254027 9.07673715 11.61254027 7.54555371 11.5982095 C-4.29089928 11.72431873 -13.23352468 16.59190515 -21.39850366 24.94245183 Z M522.91399634 208.44245183 C522.2965354 209.13983465 521.67907446 209.83721746 521.04290259 210.55573308 C515.56619449 218.89095396 515.92347791 227.2908439 515.96381629 236.89980352 C515.95964079 238.51579385 515.9541621 240.13178124 515.94749647 241.74776322 C515.93305115 246.17792724 515.93728375 250.60790508 515.94466329 255.03807926 C515.94939496 259.82007922 515.93688504 264.6020389 515.92664587 269.38402593 C515.90945201 278.74866501 515.90861916 288.11323702 515.91385878 297.47788779 C515.91790095 305.09059635 515.91645636 312.7032851 515.91111052 320.31599271 C515.9103621 321.39967445 515.90961368 322.48335618 515.90884257 323.59987676 C515.90731109 325.80142545 515.90577274 328.00297413 515.90422761 330.20452281 C515.8905002 350.84960253 515.89594174 371.49464435 515.90741282 392.1397232 C515.9173434 411.02054488 515.90440795 429.90126853 515.88047863 448.78207508 C515.85608628 468.17453448 515.84648022 487.56694822 515.85313135 506.95942265 C515.85662353 517.84452461 515.85439168 528.72955119 515.83688033 539.61464155 C515.82215659 548.88183815 515.8215251 558.14890633 515.83895124 567.41610042 C515.84746253 572.14254612 515.84960762 576.8687624 515.83429968 581.59519613 C515.82044635 585.92620909 515.82522401 590.25679624 515.84453892 594.58778461 C515.84829729 596.15031374 515.84538166 597.71287703 515.83492727 599.2753757 C515.76741512 610.14277926 516.43015986 621.34856135 524.44369948 629.57744062 C534.6860882 637.91240735 544.93269945 637.98709125 557.45550025 637.87458074 C559.36221098 637.87944501 561.26891659 637.88689181 563.17560828 637.89670599 C568.32237527 637.91541418 573.46837427 637.89676856 578.61508095 637.87004173 C584.01691481 637.84729874 589.418714 637.85563634 594.82058203 637.85953557 C603.88732854 637.86129765 612.95377487 637.8392185 622.02044165 637.80231512 C632.48613458 637.75995992 642.95138849 637.75296775 653.41714978 637.76543903 C663.50965678 637.77684734 673.60201002 637.76551199 683.69449484 637.74309194 C687.9789503 637.73383033 692.26331125 637.732039 696.54777396 637.73626363 C701.59591715 637.74004453 706.64361659 637.72370676 711.69165862 637.69214284 C713.53866549 637.68369429 715.38571755 637.68193095 717.23273528 637.68752325 C729.04847382 637.71785862 739.6361766 637.46329112 748.81634009 628.97760808 C753.96871499 622.77640369 756.47458647 615.59431751 756.4829241 607.6455282 C756.48600305 606.64863477 756.48600305 606.64863477 756.48914421 605.63160208 C756.49483061 603.38879017 756.49335494 601.14603936 756.49193823 598.90322149 C756.49452094 597.2852866 756.49753383 595.66735235 756.50094163 594.04941899 C756.50902615 589.59082024 756.51080201 585.13223759 756.5115391 580.67363238 C756.51338716 575.86980184 756.52093327 571.06597969 756.52767432 566.26215398 C756.54126881 555.75180024 756.54728419 545.24145031 756.55168498 534.73108923 C756.5544457 528.17049186 756.55868276 521.60989597 756.56318915 515.0492996 C756.57538363 496.89138193 756.58568236 478.73346544 756.58906424 460.57554376 C756.58928381 459.4128904 756.58950337 458.25023704 756.58972959 457.05235175 C756.58994787 455.88688517 756.59016615 454.72141858 756.59039104 453.52063483 C756.59083451 451.15888047 756.59128107 448.79712611 756.59173071 446.43537176 C756.59195214 445.26385514 756.59217357 444.09233852 756.59240171 442.8853214 C756.59634983 423.90194397 756.61380348 404.91860493 756.63709024 385.93524233 C756.66079554 366.45369341 756.67326573 346.97216375 756.67443216 327.49060017 C756.67534942 316.54907692 756.68111452 305.60760367 756.69925177 294.66609418 C756.71464172 285.34894284 756.71977978 276.03185695 756.71151367 266.71469531 C756.70760315 261.96033347 756.70855633 257.20610346 756.72257102 252.45175779 C756.73528588 248.09857016 756.73413367 243.74561377 756.7219803 239.39242657 C756.72001911 237.8183579 756.72312124 236.24427298 756.73182467 234.67022715 C756.79286162 222.88439204 755.85470894 215.00469964 747.54680884 206.11432683 C741.40762393 200.56502802 734.64962965 198.98140105 726.57914221 198.97605169 C725.37919107 198.96947831 725.37919107 198.96947831 724.15499848 198.96277213 C721.46520569 198.94938112 718.77544566 198.94320453 716.0856272 198.93708074 C714.16054634 198.92917987 712.23546697 198.92091093 710.31038916 198.91230047 C703.97905387 198.88607361 697.64771195 198.87076986 691.31634009 198.85651433 C689.13635818 198.85115449 686.95637631 198.84577698 684.77639449 198.84038198 C675.70639967 198.81875023 666.63640663 198.80001466 657.56639254 198.78875959 C644.57222381 198.77252882 631.57835452 198.73937539 618.58429867 198.68235874 C609.44615324 198.64363068 600.30808779 198.62412335 591.16986245 198.61883903 C585.71333819 198.61518887 580.25713324 198.60320333 574.80069792 198.57073629 C569.6632437 198.54060631 564.52630117 198.53436155 559.38877738 198.54612005 C557.50787632 198.54634038 555.62695119 198.53806855 553.74613249 198.52046621 C541.80924064 198.41487395 531.27293427 198.60946464 522.91399634 208.44245183 Z " fill="#0278A5" transform="translate(374.6485036611557,187.87004816532135)"/>
<path d="M0 0 C176.22 0 352.44 0 534 0 C534 20.79 534 41.58 534 63 C486.20080123 63.0676375 438.4016042 63.13216313 390.60237122 63.16937256 C389.89479186 63.16992479 389.1872125 63.17047702 388.45819135 63.17104598 C373.0801404 63.18301794 357.70208892 63.19409862 342.32403667 63.20426132 C334.78251196 63.20925061 327.24098739 63.21443683 319.69946289 63.21972656 C318.94899537 63.2202496 318.19852784 63.22077263 317.42531888 63.22131152 C293.1057764 63.23835324 268.78627112 63.26839574 244.46675118 63.30518888 C219.47277206 63.34293369 194.47881353 63.36754512 169.48480639 63.37565996 C165.95360391 63.37681256 162.4224015 63.37811511 158.89119911 63.37950897 C157.84872455 63.37991351 157.84872455 63.37991351 156.7851899 63.38032622 C145.60329955 63.38505088 134.42147289 63.40359712 123.23960849 63.42732814 C111.99476507 63.45089726 100.74998348 63.45954333 89.50511017 63.45400551 C83.41369762 63.45144131 77.32247186 63.45539668 71.23109245 63.4768219 C65.65262612 63.49629977 60.07447203 63.49726168 54.49599127 63.48359558 C52.47965187 63.48190675 50.46329291 63.48697023 48.44699194 63.49953273 C33.16332599 63.5892075 21.69280566 62.16585516 9.9375 51.4375 C-3.74125709 37.41808421 0 18.50865951 0 0 Z " fill="#003D5C" transform="translate(346,652)"/>
<path d="M0 0 C58.08 0 116.16 0 176 0 C182.69436602 25.6617364 182.69436602 25.6617364 185.0625 35.3125 C186.84749317 42.53403859 188.72121129 49.71813697 190.75 56.875 C195.05443672 72.10505067 195.05443672 72.10505067 195 80 C195.82565964 79.98667633 195.82565964 79.98667633 196.66799927 79.9730835 C202.41072172 79.88440709 208.15324883 79.82418197 213.89648438 79.78027344 C216.03816634 79.76019112 218.1797937 79.73291963 220.32128906 79.69824219 C223.40443415 79.64957602 226.48685262 79.6269971 229.5703125 79.609375 C230.52366486 79.58872986 231.47701721 79.56808472 232.45925903 79.54681396 C238.31193785 79.54485031 241.52333076 80.14309543 246 84 C248.1633006 86.74018076 248.92352448 88.48652151 249.4375 91.9375 C248.86805603 95.92360781 247.59153951 97.93107163 245 101 C239.30572695 104.94780691 233.39695477 104.42201789 226.73986816 104.38768005 C225.49349154 104.39306559 224.24711492 104.39845113 222.9629693 104.40399987 C219.51046164 104.41582404 216.05843717 104.41421153 212.60594869 104.40683305 C208.87991042 104.40210251 205.1539239 104.41461014 201.42790222 104.42485046 C194.13144615 104.44204543 186.83507617 104.44287712 179.53860509 104.43763756 C173.6086797 104.43359631 167.67877976 104.43503888 161.74885559 104.44038582 C160.48294574 104.44150845 160.48294574 104.44150845 159.19146195 104.44265376 C157.47702054 104.44418523 155.76257913 104.44572358 154.04813772 104.44726873 C137.97137276 104.46099603 121.89465646 104.45555423 105.81789261 104.44408352 C91.10769813 104.4341485 76.39762937 104.44709603 61.68745428 104.47101771 C46.58347651 104.49539482 31.47955734 104.50502015 16.37556028 104.49836498 C7.89558474 104.49486998 -0.58429407 104.49712348 -9.06425476 104.51461601 C-16.28217831 104.52932054 -23.49993699 104.52999631 -30.71785724 104.5125451 C-34.40068015 104.50401864 -38.08320829 104.50192537 -41.76601601 104.51719666 C-45.75745183 104.53354293 -49.74843031 104.51892898 -53.73986816 104.50120544 C-55.48762236 104.51561295 -55.48762236 104.51561295 -57.27068472 104.53031152 C-63.46845512 104.47350032 -67.34153088 104.25840304 -72 100 C-74.8288298 95.7567553 -74.65268001 91.98265471 -74 87 C-71.86948517 83.34768886 -69.85911707 81.59056064 -66 80 C-63.73468018 79.75949097 -63.73468018 79.75949097 -61.23144531 79.77294922 C-60.29077209 79.77310028 -59.35009888 79.77325134 -58.38092041 79.77340698 C-56.86978668 79.78889084 -56.86978668 79.78889084 -55.328125 79.8046875 C-53.77179352 79.80893234 -53.77179352 79.80893234 -52.184021 79.81326294 C-48.87256299 79.82445135 -45.56137616 79.84955373 -42.25 79.875 C-40.00391016 79.88503152 -37.75781607 79.89415707 -35.51171875 79.90234375 C-30.00772009 79.9243863 -24.50387942 79.95785068 -19 80 C-18.86641083 79.25501755 -18.73282166 78.5100351 -18.59518433 77.74247742 C-18.4179483 76.75971329 -18.24071228 75.77694916 -18.05810547 74.7644043 C-17.8832663 73.79254684 -17.70842712 72.82068939 -17.52828979 71.81938171 C-16.83546634 68.12191531 -16.00775547 64.46847812 -15.125 60.8125 C-14.86456909 59.72062378 -14.86456909 59.72062378 -14.59887695 58.60668945 C-12.99728703 51.92169799 -11.33163008 45.25285717 -9.65087891 38.58740234 C-8.21850762 32.89337725 -6.79825151 27.19630997 -5.375 21.5 C-4.77868334 19.11457396 -4.18233079 16.72915689 -3.5859375 14.34375 C-3.3286084 13.31443359 -3.0712793 12.28511719 -2.80615234 11.22460938 C-1.87076823 7.48307292 -0.93538411 3.74153646 0 0 Z " fill="#001B30" transform="translate(605,727)"/>
<path d="M0 0 C1.72986498 2.39376073 1.66965034 3.88762043 1.66065502 6.82908916 C1.66684101 8.38768658 1.66684101 8.38768658 1.67315197 9.97777081 C1.66236614 11.11712582 1.65158031 12.25648083 1.64046764 13.43036175 C1.64090572 14.63048901 1.6413438 15.83061626 1.64179516 17.06711102 C1.64006198 20.35837163 1.62500678 23.6490692 1.60407329 26.94023013 C1.58533195 30.37953553 1.58355806 33.81884825 1.57999706 37.25819683 C1.57066909 43.77116576 1.54604523 50.28398381 1.51594859 56.79688627 C1.48242791 64.21154557 1.46592446 71.62621204 1.45086229 79.04092824 C1.41949624 94.29362957 1.36672125 109.54618031 1.29989147 124.79876995 C2.21568462 124.79462188 2.21568462 124.79462188 3.14997864 124.79039001 C17.99711176 124.72417223 32.84423066 124.67450989 47.69147491 124.64333344 C54.8714665 124.62785645 62.05135959 124.6067512 69.23128796 124.57245159 C75.4884274 124.54257451 81.74549553 124.52320099 88.00270432 124.51650447 C91.3167002 124.51258927 94.63044411 124.50180507 97.94438648 124.48157978 C101.64154482 124.45990645 105.33827587 124.45679885 109.03548717 124.45819378 C110.13743923 124.44740795 111.23939129 124.43662212 112.37473583 124.42550945 C113.88284832 124.43169544 113.88284832 124.43169544 115.42142773 124.4380064 C116.29620927 124.43524102 117.17099081 124.43247564 118.07228088 124.42962646 C120.77757279 124.87792784 121.66189481 125.63753055 123.29989147 127.79876995 C123.8367874 131.10962817 123.47150802 134.45676356 123.29989147 137.79876995 C123.2921571 138.6908012 123.28442272 139.58283245 123.27645397 140.50189495 C122.25057328 170.01569342 108.80767596 198.05958592 88.29989147 218.79876995 C87.43750866 219.73334026 86.57512585 220.66791058 85.68661022 221.6308012 C65.8643421 242.62772225 35.45520869 255.78122793 6.78719616 256.94085979 C2.79059184 257.04120788 -1.20241127 257.09654 -5.20010853 257.11126995 C-5.90643421 257.1142207 -6.6127599 257.11717144 -7.34048939 257.1202116 C-24.80973734 257.13679007 -39.96570364 253.90483283 -55.57510853 245.98626995 C-56.27418324 245.63226116 -56.97325794 245.27825237 -57.69351673 244.91351604 C-88.33346151 229.25176182 -111.98509122 203.80672006 -122.70010853 170.79876995 C-124.26994379 165.52290715 -125.57402526 160.18641545 -126.70010853 154.79876995 C-126.96609852 153.58362713 -126.96609852 153.58362713 -127.23746204 152.34393597 C-132.34071742 127.21652209 -129.50050742 97.70542662 -117.70010853 74.79876995 C-117.06976673 73.46603772 -116.44368416 72.13128515 -115.82120228 70.7948637 C-109.88472607 58.22868596 -102.25960539 47.90123308 -92.70010853 37.79876995 C-92.00272572 37.04853558 -91.3053429 36.2983012 -90.58682728 35.52533245 C-74.47100205 18.73187654 -53.42435084 7.06031712 -30.70010853 2.11126995 C-29.7797179 1.89921917 -28.85932728 1.68716839 -27.91104603 1.46869183 C-5.1216962 -3.61878979 -5.1216962 -3.61878979 0 0 Z M-77.87979603 40.0839262 C-79.70010853 41.79876995 -79.70010853 41.79876995 -81.70010853 42.79876995 C-81.70010853 43.45876995 -81.70010853 44.11876995 -81.70010853 44.79876995 C-82.69010853 45.12876995 -83.68010853 45.45876995 -84.70010853 45.79876995 C-87.94393982 49.26262856 -90.7984097 53.04648939 -93.70010853 56.79876995 C-94.31499134 57.5876762 -94.92987415 58.37658245 -95.56338978 59.18939495 C-110.6633125 79.60032497 -117.36556154 104.04506525 -117.13760853 129.17376995 C-117.13456715 129.89144543 -117.13152576 130.6091209 -117.12839222 131.34854412 C-117.05825896 142.57376142 -116.24924961 153.09151443 -112.70010853 163.79876995 C-112.49111927 164.4653764 -112.28213001 165.13198284 -112.06680775 165.81878948 C-107.17682384 181.17004234 -99.45207893 194.80129943 -88.70010853 206.79876995 C-85.68995559 205.44774345 -83.58043387 203.93541308 -81.24698353 201.61126995 C-80.62823353 200.99509808 -80.00948353 200.3789262 -79.37198353 199.74408245 C-78.73776478 199.10212933 -78.10354603 198.4601762 -77.45010853 197.79876995 C-76.80042103 197.15681683 -76.15073353 196.5148637 -75.48135853 195.85345745 C-74.86776478 195.23728558 -74.25417103 194.6211137 -73.62198353 193.98626995 C-72.78038685 193.14128948 -72.78038685 193.14128948 -71.92178822 192.2792387 C-70.48795061 190.86157886 -70.48795061 190.86157886 -70.70010853 188.79876995 C-70.09811634 188.5358012 -69.49612415 188.27283245 -68.87588978 188.00189495 C-66.58112273 186.73297529 -65.48872502 185.59746079 -63.88760853 183.54876995 C-61.28200217 180.36927054 -58.47130556 177.82339797 -55.30557728 175.2167387 C-53.14027639 173.30431966 -51.46018454 171.08034997 -49.70010853 168.79876995 C-49.04010853 168.46876995 -48.38010853 168.13876995 -47.70010853 167.79876995 C-47.70010853 167.13876995 -47.70010853 166.47876995 -47.70010853 165.79876995 C-47.04010853 165.79876995 -46.38010853 165.79876995 -45.70010853 165.79876995 C-45.70010853 165.13876995 -45.70010853 164.47876995 -45.70010853 163.79876995 C-45.13936634 163.56416058 -44.57862415 163.3295512 -44.00088978 163.08783245 C-37.23751988 159.29850806 -31.76276425 152.15630916 -26.92596912 146.15890789 C-25.09017168 144.21236407 -23.45512332 142.83518948 -21.31946278 141.27676678 C-15.14967393 136.48818544 -10.64132882 131.95052859 -9.46335316 123.9834013 C-8.90176762 116.86009886 -9.12326157 109.75346871 -9.33292103 102.61908245 C-9.35907236 99.99355661 -9.37898212 97.36796188 -9.3929491 94.74234295 C-9.43617884 88.5716509 -9.55064551 82.40450072 -9.69184196 76.23535717 C-9.84924223 69.20302217 -9.92552497 62.1705027 -9.99557805 55.13684011 C-10.14126169 40.68900337 -10.38692761 26.24393624 -10.70010853 11.79876995 C-35.48585344 11.62179475 -60.16849865 23.00303093 -77.87979603 40.0839262 Z M-13.70010853 148.79876995 C-14.83136863 150.1238514 -15.9745647 151.43899615 -17.13760853 152.73626995 C-17.98323353 153.74689495 -18.82885853 154.75751995 -19.70010853 155.79876995 C-22.20540971 158.42628095 -24.64638408 160.75698427 -27.51260853 162.98626995 C-28.23448353 163.58439495 -28.95635853 164.18251995 -29.70010853 164.79876995 C-29.70010853 165.45876995 -29.70010853 166.11876995 -29.70010853 166.79876995 C-30.23635853 167.00759808 -30.77260853 167.2164262 -31.32510853 167.43158245 C-34.62421828 169.33074102 -37.07340839 171.96254728 -39.70010853 174.67376995 C-40.22088978 175.20357464 -40.74167103 175.73337933 -41.27823353 176.2792387 C-42.29193138 177.31085546 -43.30247438 178.34558396 -44.30948353 179.38373089 C-45.53849077 180.6343148 -46.80431055 181.84848832 -48.07510853 183.05658245 C-49.92747004 184.64546062 -49.92747004 184.64546062 -49.70010853 186.79876995 C-50.36010853 186.79876995 -51.02010853 186.79876995 -51.70010853 186.79876995 C-51.70010853 187.45876995 -51.70010853 188.11876995 -51.70010853 188.79876995 C-52.36010853 188.79876995 -53.02010853 188.79876995 -53.70010853 188.79876995 C-53.70010853 189.45876995 -53.70010853 190.11876995 -53.70010853 190.79876995 C-54.27760853 191.04626995 -54.85510853 191.29376995 -55.45010853 191.54876995 C-58.02950832 192.98176984 -59.76132445 194.58301672 -61.70010853 196.79876995 C-61.70010853 197.45876995 -61.70010853 198.11876995 -61.70010853 198.79876995 C-62.31885853 199.04626995 -62.93760853 199.29376995 -63.57510853 199.54876995 C-65.83757347 200.62020724 -65.83757347 200.62020724 -66.70010853 202.79876995 C-67.98693397 205.37242084 -69.14708796 205.52225967 -71.70010853 206.79876995 C-73.84725731 208.66173727 -75.90252922 210.59373934 -77.70010853 212.79876995 C-77.70010853 213.45876995 -77.70010853 214.11876995 -77.70010853 214.79876995 C-78.36010853 214.79876995 -79.02010853 214.79876995 -79.70010853 214.79876995 C-79.70010853 215.45876995 -79.70010853 216.11876995 -79.70010853 216.79876995 C-59.59869766 235.0070685 -33.51778743 245.41660391 -6.47989368 245.18988323 C-4.20242931 245.17378635 -1.9267386 245.18982944 0.35067272 245.2089262 C9.3958403 245.22203869 17.54496318 244.28624693 26.29989147 241.79876995 C27.03594616 241.61072796 27.77200085 241.42268597 28.53036022 241.22894573 C47.95007809 236.22260498 66.45907926 225.37356463 80.29989147 210.79876995 C80.29989147 210.13876995 80.29989147 209.47876995 80.29989147 208.79876995 C80.95989147 208.79876995 81.61989147 208.79876995 82.29989147 208.79876995 C83.94184254 206.96149385 85.44008725 205.13324299 86.92489147 203.17376995 C87.59149792 202.29567669 87.59149792 202.29567669 88.27157116 201.39984417 C98.09156598 188.18819044 104.93049846 173.6383554 108.67489147 157.61126995 C108.84279186 156.91163128 109.01069225 156.21199261 109.18368053 155.49115276 C110.1200799 151.12061491 110.37388433 146.98497541 110.34139538 142.512393 C110.33540325 141.43998867 110.32941113 140.36758434 110.32323742 139.26268291 C110.31553326 138.44959164 110.30782909 137.63650036 110.29989147 136.79876995 C95.90474024 136.51751876 81.51001935 136.3071914 67.11267757 136.17702389 C60.42635292 136.11533713 53.74199446 136.02984697 47.05672741 135.89349651 C40.59856909 135.76261021 34.14218593 135.69125685 27.68280315 135.66024303 C25.22511642 135.63815779 22.76752134 135.59502697 20.31059551 135.53000927 C4.80275268 135.13614007 -4.52525685 135.56664274 -13.70010853 148.79876995 Z " fill="#003555" transform="translate(551.7001085281372,355.2012300491333)"/>
<path d="M0 0 C0.33 0 0.66 0 1 0 C1 18.81 1 37.62 1 57 C-229.67 57 -460.34 57 -698 57 C-698 52.71 -698 48.42 -698 44 C-467.66 44 -237.32 44 0 44 C0 29.48 0 14.96 0 0 Z " fill="#002D48" transform="translate(1044,229)"/>
<path d="M0 0 C1.60527457 -0.00967334 1.60527457 -0.00967334 3.24297893 -0.0195421 C4.41786502 -0.01644489 5.59275112 -0.01334769 6.80323982 -0.01015663 C8.05199115 -0.01468774 9.30074248 -0.01921886 10.58733475 -0.02388728 C14.05562178 -0.0361359 17.52381248 -0.03585464 20.99211621 -0.03349853 C24.73181541 -0.03309083 28.47148353 -0.04412496 32.21116829 -0.05361366 C39.53862754 -0.07023466 46.86605462 -0.0757237 54.19353114 -0.07683842 C60.14876712 -0.07778834 66.10399247 -0.08189583 72.05922508 -0.08823967 C88.9384876 -0.10585481 105.81772466 -0.11507807 122.69699644 -0.11357872 C123.60717913 -0.11349881 124.51736182 -0.1134189 125.45512581 -0.11333656 C126.82206419 -0.11321392 126.82206419 -0.11321392 128.21661748 -0.1130888 C142.98836655 -0.11227575 157.76001368 -0.13141761 172.53173326 -0.1596133 C187.69440254 -0.18832716 202.85702208 -0.20215443 218.01971924 -0.20042574 C226.53438376 -0.19976134 235.04894141 -0.20527568 243.56358147 -0.22678185 C250.81265304 -0.24497393 258.0615693 -0.24935726 265.31065379 -0.235763 C269.00967037 -0.22922339 272.70838884 -0.22915154 276.40737724 -0.2464695 C280.41651128 -0.26504657 284.42495217 -0.25267186 288.4340992 -0.23720741 C289.60452385 -0.24749454 290.7749485 -0.25778167 291.98084056 -0.26838052 C298.20291405 -0.21516482 302.04669155 0.01901878 306.74565315 4.25726891 C308.90895375 6.99744966 309.66917763 8.74379041 310.18315315 12.19476891 C309.61370918 16.18087672 308.33719266 18.18834054 305.74565315 21.25726891 C300.05138011 25.20507582 294.14260792 24.67928679 287.48552132 24.64494896 C286.23914469 24.6503345 284.99276807 24.65572003 283.70862246 24.66126877 C280.2561148 24.67309295 276.80409032 24.67148043 273.35160184 24.66410196 C269.62556357 24.65937142 265.89957705 24.67187905 262.17355537 24.68211937 C254.8770993 24.69931434 247.58072932 24.70014603 240.28425825 24.69490647 C234.35433286 24.69086522 228.42443292 24.69230778 222.49450874 24.69765472 C221.22859889 24.69877736 221.22859889 24.69877736 219.9371151 24.69992267 C218.22267369 24.70145414 216.50823228 24.70299249 214.79379088 24.70453764 C198.71702591 24.71826493 182.64030962 24.71282314 166.56354576 24.70135242 C151.85335128 24.6914174 137.14328253 24.70436494 122.43310744 24.72828662 C107.32912966 24.75266372 92.22521049 24.76228906 77.12121344 24.75563389 C68.64123789 24.75213888 60.16135908 24.75439239 51.68139839 24.77188492 C44.46347484 24.78658945 37.24571617 24.78726521 30.02779591 24.76981401 C26.34497301 24.76128755 22.66244486 24.75919427 18.97963715 24.77446556 C14.98820132 24.79081184 10.99722284 24.77619789 7.00578499 24.75847435 C5.25803079 24.77288186 5.25803079 24.77288186 3.47496843 24.78758043 C-2.72280197 24.73076923 -6.59587773 24.51567194 -11.25434685 20.25726891 C-14.08317665 16.0140242 -13.90702686 12.23992362 -13.25434685 7.25726891 C-9.99694129 1.67314509 -6.29921054 0.00959645 0 0 Z " fill="#0174A2" transform="translate(544.2543468475342,806.7427310943604)"/>
<path d="M0 0 C20.39559328 2.92815198 39.39621926 9.51346943 56.08056641 21.75683594 C56.83337891 22.28664063 57.58619141 22.81644531 58.36181641 23.36230469 C83.72847287 41.97371025 99.89586527 71.40259348 105.58056641 102.02246094 C106.36806082 107.90405986 106.73174963 113.84544537 106.08056641 119.75683594 C104.08056641 121.75683594 104.08056641 121.75683594 101.99162102 122.00293159 C100.68912753 122.00016622 100.68912753 122.00016622 99.36032104 121.99734497 C98.36470154 122.0000943 97.36908203 122.00284363 96.34329224 122.00567627 C95.24709564 121.99848572 94.15089905 121.99129517 93.02148438 121.98388672 C91.870271 121.98417877 90.71905762 121.98447083 89.53295898 121.98477173 C85.71281499 121.983374 81.89286399 121.96779186 78.07275391 121.95214844 C75.43002428 121.94841989 72.78729327 121.94557217 70.14456177 121.943573 C63.89013506 121.93735088 57.63577808 121.92093022 51.38138211 121.90087402 C44.26177121 121.87853772 37.14215703 121.86752731 30.02251983 121.85748315 C15.37516602 121.8365646 0.72786719 121.80137445 -13.91943359 121.75683594 C-15.12972383 119.33625546 -15.05048712 117.79971387 -15.05987549 115.09474182 C-15.06558563 114.11187195 -15.07129578 113.12900208 -15.07717896 112.11634827 C-15.07829681 111.03421555 -15.07941467 109.95208282 -15.08056641 108.8371582 C-15.08553131 107.70051727 -15.09049622 106.56387634 -15.09561157 105.39279175 C-15.11025894 101.61960249 -15.11703892 97.84645525 -15.12255859 94.07324219 C-15.1283072 91.46011859 -15.13406496 88.84699502 -15.13983154 86.23387146 C-15.14940503 81.45176723 -15.15530076 76.66967211 -15.15832829 71.88755947 C-15.16281159 64.84439202 -15.18037202 57.8014184 -15.20932889 50.7583099 C-15.23352584 44.66182356 -15.24127138 38.56541744 -15.24300385 32.46888542 C-15.2460391 29.87285239 -15.25409676 27.27682035 -15.26718903 24.68081856 C-15.28416859 21.05569733 -15.28238909 17.43105261 -15.27587891 13.8059082 C-15.28509369 12.72579971 -15.29430847 11.64569122 -15.30380249 10.53285217 C-15.29823334 9.54716248 -15.29266418 8.56147278 -15.28692627 7.5459137 C-15.28912611 6.25976087 -15.28912611 6.25976087 -15.29137039 4.94762516 C-14.00178951 -2.64828876 -5.73904317 -0.72705253 0 0 Z M-2.91943359 12.75683594 C-2.91943359 45.09683594 -2.91943359 77.43683594 -2.91943359 110.75683594 C29.09056641 110.75683594 61.10056641 110.75683594 94.08056641 110.75683594 C93.21654988 100.94132911 93.21654988 100.94132911 91.01806641 91.56933594 C90.80327637 90.85302002 90.58848633 90.1367041 90.3671875 89.39868164 C88.04496762 82.05625046 84.74929429 75.30877904 81.06396484 68.56445312 C80.16126943 66.90517884 79.29482532 65.22631656 78.43212891 63.54589844 C74.18051134 55.64411165 68.6521062 49.47955368 62.41113281 43.12695312 C61.33882511 42.02277132 60.30304639 40.88318004 59.27978516 39.73339844 C47.75823189 27.05075841 30.3846137 19.21137629 14.14306641 14.81933594 C13.3622168 14.60752686 12.58136719 14.39571777 11.77685547 14.17749023 C6.50247963 12.85551671 2.86257757 12.75683594 -2.91943359 12.75683594 Z " fill="#003555" transform="translate(582.91943359375,342.2431640625)"/>
<path d="M0 0 C79.2 0 158.4 0 240 0 C240 4.29 240 8.58 240 13 C160.8 13 81.6 13 0 13 C0 8.71 0 4.42 0 0 Z " fill="#002F4B" transform="translate(891,451)"/>
<path d="M0 0 C0.92313285 0.00291284 1.84626571 0.00582568 2.79737228 0.00882679 C3.77011217 0.00797237 4.74285205 0.00711794 5.74506891 0.00623763 C9.03103054 0.00457987 12.31694203 0.01010901 15.60289901 0.01555592 C17.94784427 0.01583775 20.29278962 0.01568013 22.63773483 0.01511341 C29.0259093 0.01482529 35.41406518 0.02072438 41.80223531 0.02768737 C47.79522925 0.03328786 53.78822318 0.03430919 59.78121924 0.03533924 C71.6547254 0.03753007 83.5282247 0.044191 95.40172714 0.05364186 C106.93851064 0.06281517 118.47529229 0.0698964 130.0120787 0.07414967 C130.72272093 0.07441239 131.43336315 0.07467512 132.16553999 0.0749458 C135.7304783 0.0762508 139.29541663 0.07751452 142.86035496 0.0787577 C172.45414698 0.08913128 202.04793185 0.10682457 231.64171737 0.12908131 C231.64171737 4.41908131 231.64171737 8.70908131 231.64171737 13.12908131 C153.10171737 13.12908131 74.56171737 13.12908131 -6.35828263 13.12908131 C-6.35828263 11.47908131 -6.35828263 9.82908131 -6.35828263 8.12908131 C-6.68828263 8.12908131 -7.01828263 8.12908131 -7.35828263 8.12908131 C-7.40069986 5.79613355 -7.399212 3.46205564 -7.35828263 1.12908131 C-5.43537496 -0.79382636 -2.55904792 0.0061311 0 0 Z " fill="#002D48" transform="translate(898.3582826256752,729.8709186911583)"/>
<path d="M0 0 C209.88 0 419.76 0 636 0 C636 0.33 636 0.66 636 1 C634.65252686 1.029729 634.65252686 1.029729 633.27783203 1.06005859 C629.94909922 1.13809261 626.62082744 1.22478114 623.29248047 1.31738281 C621.8511626 1.35569674 620.40974832 1.39054543 618.96826172 1.421875 C616.89776114 1.46747446 614.82792567 1.52547444 612.7578125 1.5859375 C611.5114502 1.6173584 610.26508789 1.6487793 608.98095703 1.68115234 C605.88458224 1.69682309 605.88458224 1.69682309 604 4 C604.66 4.66 605.32 5.32 606 6 C605.67 6.66 605.34 7.32 605 8 C609.11481205 8.75770785 613.09340234 9.17155355 617.2734375 9.31640625 C618.42714844 9.35830078 619.58085938 9.40019531 620.76953125 9.44335938 C622.55423828 9.50233398 622.55423828 9.50233398 624.375 9.5625 C626.19451172 9.62727539 626.19451172 9.62727539 628.05078125 9.69335938 C631.03375032 9.79905513 634.01679742 9.90115321 637 10 C637.33 10.66 637.66 11.32 638 12 C425.48 12 212.96 12 -6 12 C-5.67 11.34 -5.34 10.68 -5 10 C29.23757938 9.82331096 63.47522231 9.66101334 97.71292007 9.50904435 C99.741971 9.50003565 101.77102184 9.49100512 103.80007267 9.48197412 C180.88348335 9.13938201 257.96610368 8.94404704 399.90272737 8.93684149 C402.38334735 8.93750222 404.86396734 8.93814487 407.34458733 8.93878555 C449.22973082 8.9497245 491.11486586 8.96979223 533 9 C533.33 7.35 533.66 5.7 534 4 C536.97 3.505 536.97 3.505 540 3 C538.86820313 3.01160156 537.73640625 3.02320313 536.5703125 3.03515625 C535.08854331 3.04453454 533.60677235 3.0536347 532.125 3.0625 C531.37863281 3.07087891 530.63226562 3.07925781 529.86328125 3.08789062 C524.2265625 3.11328125 524.2265625 3.11328125 522 2 C519.19251594 1.89801435 516.4095741 1.85788426 513.60163689 1.8613348 C512.71799813 1.85849258 511.83435938 1.85565036 510.9239437 1.85272202 C507.93007071 1.84432663 504.93623618 1.84310303 501.94235229 1.84178162 C499.78747945 1.83721956 497.63260749 1.83222007 495.47773659 1.82681805 C489.53063571 1.81318695 483.58354057 1.80580426 477.63642812 1.79939139 C471.23285193 1.7914092 464.82928777 1.77770396 458.42572021 1.76467896 C447.32257331 1.74288516 436.21942536 1.72471671 425.11626816 1.70907402 C413.4679201 1.69264815 401.81957828 1.67417179 390.17123795 1.65294075 C389.44770241 1.65162314 388.72416687 1.65030554 387.97870601 1.648948 C384.30442043 1.64224616 380.63013491 1.63550754 376.95584942 1.62875474 C350.91279239 1.58095768 324.86972953 1.53778245 298.82666016 1.49731445 C273.52196835 1.45798327 248.21728136 1.41656529 222.91259766 1.37231445 C221.74314646 1.37027066 221.74314646 1.37027066 220.55006998 1.36818558 C212.72085439 1.35450052 204.89163888 1.34077295 197.06242342 1.32701423 C181.11258975 1.29898568 165.1627556 1.27124088 149.21292114 1.2436676 C148.11283519 1.2417653 148.11283519 1.2417653 146.99052527 1.23982458 C97.99369133 1.15513046 48.99684646 1.07707242 0 1 C0 0.67 0 0.34 0 0 Z " fill="#0681B0" transform="translate(379,188)"/>
<path d="M0 0 C0.96951599 -0.00846954 1.93903198 -0.01693909 2.93792725 -0.02566528 C6.1436473 -0.04907048 9.34888846 -0.05005668 12.5546875 -0.04882812 C14.78141473 -0.05592686 17.00814011 -0.06362543 19.23486328 -0.07189941 C23.90206997 -0.08535183 28.56910747 -0.08690921 33.23632812 -0.08105469 C39.22229683 -0.07515377 45.20745583 -0.10576354 51.19326782 -0.14617157 C55.79146715 -0.17199645 60.38947007 -0.17493078 64.98773193 -0.17127991 C67.19498736 -0.17297561 69.40225143 -0.18266114 71.60943604 -0.20042419 C74.69330388 -0.22251356 77.77551374 -0.21296294 80.859375 -0.1953125 C81.77378357 -0.20857574 82.68819214 -0.22183899 83.63031006 -0.23550415 C89.80981889 -0.15315706 89.80981889 -0.15315706 93.03173828 2.82556152 C94.4296875 5.41992188 94.4296875 5.41992188 94.3671875 7.54492188 C93.2919334 9.69543008 92.2841427 10.88760834 90.4296875 12.41992188 C88.49156952 12.7974453 88.49156952 12.7974453 86.25476074 12.8008728 C85.40514267 12.80933228 84.5555246 12.81779175 83.68016052 12.82650757 C82.75123489 12.82043488 81.82230927 12.81436218 80.86523438 12.80810547 C79.88450455 12.81336243 78.90377472 12.81861938 77.89332581 12.82403564 C74.64486867 12.83726158 71.3968998 12.82848822 68.1484375 12.81835938 C65.89546616 12.82037936 63.64249546 12.82329016 61.38952637 12.82705688 C56.66505719 12.83148376 51.94075803 12.82503737 47.21630859 12.81103516 C41.15304787 12.79394323 35.0901855 12.80378244 29.02693939 12.82175255 C24.37389104 12.83258048 19.72093752 12.82914857 15.06788635 12.82136917 C12.83191379 12.81936443 10.59593269 12.82183601 8.35997009 12.82880783 C5.23779414 12.83640588 2.11626804 12.82484086 -1.00585938 12.80810547 C-2.39924782 12.81721451 -2.39924782 12.81721451 -3.82078552 12.82650757 C-4.67040359 12.8180481 -5.52002167 12.80958862 -6.39538574 12.8008728 C-7.13353264 12.79974173 -7.87167953 12.79861065 -8.63219452 12.7974453 C-11.14713218 12.30756394 -12.03279777 11.43976306 -13.5703125 9.41992188 C-14.0078125 6.41992188 -14.0078125 6.41992188 -13.5703125 3.41992188 C-9.98364028 -0.74910974 -5.06395744 -0.01622956 0 0 Z " fill="#003352" transform="translate(969.5703125,410.580078125)"/>
<path d="M0 0 C3.63 0 7.26 0 11 0 C10.36129069 7.33361416 8.90139146 14.28521802 7.1875 21.4375 C6.64380206 23.74201559 6.10083695 26.04670419 5.55859375 28.3515625 C5.29288574 29.47723633 5.02717773 30.60291016 4.75341797 31.76269531 C3.53734191 36.98796054 2.39877207 42.23039874 1.29370117 47.48022461 C0.68475283 50.2956266 0.02111904 52.94724165 -1.05078125 55.625 C-2.12931632 58.32355689 -2.53443323 60.81229041 -2.9375 63.6875 C-3.81260697 69.33719062 -5.24125183 74.5638693 -7 80 C-10.96 80 -14.92 80 -19 80 C-16.6382552 66.02634328 -13.11404 52.32146612 -9.65087891 38.58740234 C-8.21850762 32.89337725 -6.79825151 27.19630997 -5.375 21.5 C-4.77868334 19.11457396 -4.18233079 16.72915689 -3.5859375 14.34375 C-3.31233398 13.24933594 -3.03873047 12.15492188 -2.75683594 11.02734375 C-1.37841797 5.51367188 -1.37841797 5.51367188 0 0 Z " fill="#003554" transform="translate(605,727)"/>
<path d="M0 0 C3.63 0 7.26 0 11 0 C14.35605731 12.75777815 17.64221989 25.52862438 20.81005859 38.33447266 C22.35684904 44.54508609 24.00449682 50.71747008 25.75 56.875 C27.93671203 64.6120716 30 71.92963841 30 80 C26.37 80 22.74 80 19 80 C18.76490723 79.04585205 18.52981445 78.0917041 18.28759766 77.10864258 C16.49090625 69.85087131 14.64979685 62.60790501 12.7109375 55.38671875 C12.51937073 54.6718631 12.32780396 53.95700745 12.13043213 53.2204895 C11.34849585 50.30534174 10.56541446 47.39052696 9.77636719 44.47729492 C7.70320323 36.81320475 5.73858608 29.20119431 4.42529297 21.36206055 C3.56438233 16.58059648 2.12811025 11.95577597 0.8046875 7.28515625 C0 4 0 4 0 0 Z " fill="#003351" transform="translate(770,727)"/>
<path d="M0 0 C0.4306833 0.35352136 0.86136661 0.70704272 1.30510092 1.07127684 C7.57779626 5.64663707 13.07266292 5.7081043 20.65490723 5.63923645 C21.91947675 5.64759213 23.18404628 5.6559478 24.48693609 5.66455668 C27.9807606 5.68697912 31.47392142 5.67852904 34.96776581 5.6648711 C38.74140582 5.65558601 42.51491115 5.6751676 46.28851318 5.69119263 C52.82112086 5.71500695 59.3535399 5.72064785 65.88618469 5.71384621 C75.33117729 5.70403871 84.775961 5.72179315 94.22091979 5.74621352 C109.54572199 5.78509073 124.87046437 5.80176532 140.1953125 5.80444336 C155.07945829 5.80709201 169.96353419 5.82021834 184.84765625 5.84741211 C186.22449553 5.84992218 186.22449553 5.84992218 187.62914973 5.85248295 C192.23407894 5.8609426 196.83900772 5.86960798 201.44393635 5.87837565 C239.62927968 5.95081353 277.81459282 5.98720436 316 6 C312.36144289 8.42570474 309.65077312 8.31333034 305.44091797 8.3347168 C304.65402431 8.34633472 303.86713064 8.35795265 303.05639172 8.36992264 C300.36834544 8.40648613 297.68039681 8.42807626 294.9921875 8.44921875 C293.01353897 8.47121445 291.03489626 8.49373888 289.05625916 8.51673889 C283.50933817 8.57710363 277.96238889 8.62162019 272.41528702 8.66160583 C268.87663918 8.68748801 265.33802727 8.71646518 261.79940796 8.74597168 C210.45504908 9.16037529 159.10830097 8.99796667 107.76333904 8.78838044 C100.00538461 8.75720135 92.24742747 8.73306236 84.48944092 8.71151733 C74.91551801 8.68452076 65.34171931 8.64594698 55.76790315 8.59307224 C50.79868432 8.56578431 45.82955882 8.54314358 40.86027336 8.53276253 C36.2583559 8.52286397 31.65672871 8.4989754 27.05493569 8.4639746 C25.37711455 8.45361445 23.69925333 8.44831359 22.02140021 8.44846189 C19.73881339 8.44787011 17.4570857 8.42899096 15.17463684 8.40545654 C13.90146512 8.39954876 12.6282934 8.39364098 11.31654072 8.38755417 C6.53219586 7.82847983 3.06379868 5.70880892 0 2 C0 1.34 0 0.68 0 0 Z " fill="#000A1A" transform="translate(531,825)"/>
<path d="M0 0 C0.83096191 -0.00945648 1.66192383 -0.01891296 2.51806641 -0.02865601 C3.41187012 -0.02258331 4.30567383 -0.01651062 5.2265625 -0.01025391 C6.14743652 -0.01312408 7.06831055 -0.01599426 8.01708984 -0.01895142 C9.96387344 -0.02099272 11.91067752 -0.01545824 13.85742188 -0.00292969 C16.84030949 0.01312303 19.82184211 -0.00277613 22.8046875 -0.02197266 C24.6953155 -0.01999024 26.58594265 -0.01614659 28.4765625 -0.01025391 C29.37036621 -0.0163266 30.26416992 -0.02239929 31.18505859 -0.02865601 C32.43150146 -0.01447128 32.43150146 -0.01447128 33.703125 0 C34.79874756 0.00358017 34.79874756 0.00358017 35.91650391 0.00723267 C38.42736802 0.50154122 39.31719084 1.36943143 40.8515625 3.38818359 C41.49576295 8.5417872 41.49576295 8.5417872 39.58641052 11.0504303 C37.46128544 12.68912893 36.38001879 12.77247073 33.71899414 12.79223633 C32.89125992 12.8049205 32.0635257 12.81760468 31.21070862 12.83067322 C30.32004196 12.82773758 29.42937531 12.82480194 28.51171875 12.82177734 C27.5932164 12.8270192 26.67471405 12.83226105 25.7283783 12.83766174 C23.7858074 12.84408519 21.84319763 12.84274078 19.90063477 12.83422852 C16.92849391 12.82572488 13.9582787 12.85446465 10.98632812 12.88623047 C9.09895891 12.88784272 7.21158629 12.88726449 5.32421875 12.88427734 C4.43557632 12.89551132 3.5469339 12.9067453 2.63136292 12.9183197 C-3.5090293 12.84899287 -3.5090293 12.84899287 -6.74438477 10.51733398 C-8.1484375 8.38818359 -8.1484375 8.38818359 -8.0859375 5.82568359 C-6.4508147 1.57436432 -4.55698593 0.01489088 0 0 Z " fill="#003251" transform="translate(994.1484375,779.61181640625)"/>
<path d="M0 0 C3.34425474 0.6120508 6.47070097 1.45155888 9.68923759 2.53757954 C14.87132147 4.11068817 19.58373586 4.42876256 24.97219849 4.39872742 C25.92404333 4.40537424 26.87588817 4.41202107 27.8565768 4.41886932 C31.01793999 4.43739073 34.17892109 4.43490135 37.34033203 4.43237305 C39.61764557 4.44139682 41.89495425 4.45172555 44.17225647 4.46325684 C50.33470382 4.49078044 56.49705889 4.50010511 62.65955973 4.50611091 C69.10713243 4.51550659 75.55463654 4.541711 82.00216675 4.56611633 C92.81751756 4.60479814 103.63284308 4.63316476 114.44824219 4.65356445 C125.58401135 4.67459685 136.71973639 4.70189159 147.85546875 4.73754883 C148.54283749 4.73974765 149.23020624 4.74194648 149.93840434 4.74421193 C153.38701879 4.75528215 156.83563283 4.76647485 160.28424668 4.77772844 C188.85612446 4.87080652 217.42803022 4.94223289 246 5 C245.67 7.64 245.34 10.28 245 13 C244.34 13 243.68 13 243 13 C243 11.35 243 9.7 243 8 C241.86785474 7.99576806 240.73570948 7.99153612 239.56925678 7.98717594 C211.99212838 7.8838758 184.4150256 7.7751139 156.83794117 7.66066074 C143.501751 7.60543735 130.16555924 7.55197357 116.8293457 7.50268555 C105.20236995 7.45971003 93.57541303 7.41339896 81.94846648 7.36312145 C75.794979 7.33662785 69.641495 7.31177813 63.48798561 7.29092598 C57.68914134 7.27122289 51.89033254 7.24703995 46.09152031 7.21950912 C43.97002436 7.21021059 41.84852067 7.20251009 39.72701263 7.19658089 C6.82333497 7.1018343 6.82333497 7.1018343 0 1 C0 0.67 0 0.34 0 0 Z " fill="#000C22" transform="translate(359,722)"/>
<path d="M0 0 C66 0 132 0 200 0 C197.54086838 2.45913162 196.17611128 2.24023373 192.82022864 2.26568735 C192.09427746 2.26102413 191.36832628 2.25636092 190.62037659 2.2515564 C189.85055401 2.25452654 189.08073144 2.25749667 188.28758091 2.26055682 C185.69368064 2.26822896 183.10000468 2.26168955 180.50610352 2.25537109 C178.65175726 2.25811964 176.79741218 2.2617987 174.94306946 2.26634216 C170.94120762 2.27447081 166.93940172 2.27661837 162.93753242 2.27439499 C156.60397386 2.27156661 150.27052731 2.28589816 143.93699646 2.30337524 C125.92359112 2.35044125 107.91019257 2.37432914 89.89672852 2.38085938 C79.95439045 2.38461588 70.01217835 2.40269751 60.06989425 2.43595374 C53.78061181 2.45613031 47.4916551 2.45855548 41.2023536 2.44767356 C37.27611432 2.44505679 33.35006248 2.45911859 29.42387199 2.47775459 C27.61114563 2.48305445 25.79838426 2.4816178 23.985672 2.47271919 C12.59596158 2.42134604 2.3304163 2.5657134 -7 10 C-7.66 9.67 -8.32 9.34 -9 9 C-8.43410156 8.51789063 -7.86820313 8.03578125 -7.28515625 7.5390625 C-6.55167969 6.90742188 -5.81820312 6.27578125 -5.0625 5.625 C-4.33160156 4.99851562 -3.60070312 4.37203125 -2.84765625 3.7265625 C-0.91619094 2.12252286 -0.91619094 2.12252286 0 0 Z " fill="#0986B4" transform="translate(908,384)"/>
<path d="M0 0 C0 3.13736689 -0.42877337 4.13645291 -1.875 6.8125 C-4.90473081 12.43433383 -6.2492996 17.38835853 -6.26171303 23.79782677 C-6.26570909 24.45983882 -6.26970515 25.12185088 -6.27382231 25.8039239 C-6.28478187 28.01986138 -6.28159742 30.23554853 -6.2784729 32.45150757 C-6.2834766 34.05711131 -6.28935261 35.66271252 -6.29602563 37.26831019 C-6.3118307 41.67857764 -6.3152566 46.08878139 -6.31667423 50.49907374 C-6.32036738 55.25567741 -6.33552245 60.0122461 -6.34928894 64.76882935 C-6.37156823 73.00934864 -6.3865775 81.24985551 -6.39665604 89.49039841 C-6.41123842 101.40485219 -6.43677402 113.31926267 -6.46498732 125.23369105 C-6.51046331 144.56382294 -6.54707479 163.89396105 -6.578125 183.22412109 C-6.60830723 202.00212702 -6.64265601 220.7801177 -6.68261719 239.55810547 C-6.68507874 240.71548341 -6.68754028 241.87286136 -6.69007643 243.06531136 C-6.70245096 248.87150735 -6.71490751 254.67770315 -6.72740483 260.48389888 C-6.83098472 308.6559113 -6.92018399 356.82794275 -7 405 C-7.33 405 -7.66 405 -8 405 C-8.24204448 355.64806768 -8.45754848 306.29608072 -8.63750892 256.94388081 C-8.65878248 251.11606957 -8.68027554 245.28825915 -8.7019043 239.46044922 C-8.70620646 238.3002478 -8.71050863 237.14004638 -8.71494117 235.94468734 C-8.78510474 217.16422422 -8.87304609 198.38388435 -8.96756939 179.60352984 C-9.06417854 160.33003321 -9.14165528 141.05652798 -9.20140952 121.7828815 C-9.23887656 109.89207393 -9.29122684 98.00152383 -9.36267778 86.11087111 C-9.41025861 77.95459002 -9.43923797 69.79837428 -9.45367668 61.64196774 C-9.46255106 56.93762894 -9.47954283 52.2336938 -9.51865196 47.52950096 C-9.55432114 43.21724084 -9.56647437 38.90555845 -9.56042667 34.59316096 C-9.56230767 33.03841347 -9.57260068 31.48364686 -9.59246109 29.92902508 C-9.70957768 20.31069764 -8.51301642 12.63601861 -4 4 C-3.34 4 -2.68 4 -2 4 C-1.34 2.68 -0.68 1.36 0 0 Z " fill="#018CBF" transform="translate(897,395)"/>
<path d="M0 0 C0.99 0.495 0.99 0.495 2 1 C2.15651942 18.48597202 2.30439297 35.97199547 2.4429636 53.45811844 C2.50754252 61.58393307 2.57461282 69.70971071 2.64819336 77.83544922 C2.99755446 116.57937098 3.06153566 155.26370899 2 194 C1.34 194.33 0.68 194.66 0 195 C0 130.65 0 66.3 0 0 Z " fill="#000F22" transform="translate(1143,437)"/>
<path d="M0 0 C2.92483867 1.82547936 5.43429205 3.86858411 7 7 C7.375 10.3125 7.375 10.3125 7 14 C4.5625 16.875 4.5625 16.875 2 19 C1.67 19.33 1.34 19.66 1 20 C-2.05397552 20.44169067 -4.95030077 20.47716383 -8 20 C-10.75569447 17.81840855 -12.43588747 16.12822506 -14 13 C-14.41906739 9.22839349 -14.31200824 7.49029866 -12.25 4.25 C-8.41466707 0.41466707 -5.47788009 -0.76690321 0 0 Z " fill="#002B46" transform="translate(395,228)"/>
<path d="M0 0 C3.50690014 1.90454897 6.41099238 4.08758917 7.6171875 8.00390625 C7.88210602 12.11014324 7.27046753 13.66547437 4.625 16.9375 C0.9962822 19.78863541 -1.27113213 20.42591994 -5.95703125 20.33203125 C-8 20 -8 20 -11 18.0625 C-13.33404981 14.48848623 -13.72378951 12.35230332 -13.5 8.15625 C-12.70000747 4.70628222 -10.74407005 3.09072004 -8 1 C-5.04206277 -0.47896861 -3.29779776 -0.4355582 0 0 Z " fill="#002C47" transform="translate(435,228)"/>
<path d="M0 0 C50.49 0 100.98 0 153 0 C152.67 1.32 152.34 2.64 152 4 C151.67 3.67 151.34 3.34 151 3 C149.09585022 2.90122978 147.18799012 2.87367795 145.28128052 2.87301636 C144.03894653 2.87019653 142.79661255 2.86737671 141.51663208 2.86447144 C140.12713609 2.86641605 138.73764024 2.86846424 137.34814453 2.87060547 C135.8947546 2.86925145 134.44136501 2.86747151 132.98797607 2.86529541 C129.02927392 2.86072036 125.07059771 2.86251114 121.11189508 2.8656745 C116.975953 2.86819869 112.84001321 2.8658603 108.70407104 2.86428833 C101.75502116 2.8624664 94.80598187 2.86487312 87.85693359 2.86962891 C79.81753282 2.8750673 71.77815741 2.87331204 63.73875725 2.8678025 C56.84532679 2.86326693 49.95190398 2.86262313 43.05847251 2.86524117 C38.93751794 2.86680204 34.8165753 2.86700296 30.69562149 2.86370468 C26.81988333 2.86081969 22.94417791 2.86281328 19.0684433 2.86859894 C17.64420247 2.86992334 16.21995889 2.86953783 14.79571915 2.86733627 C12.85470934 2.86461218 10.91369353 2.86863061 8.97268677 2.87301636 C7.88534807 2.87339338 6.79800938 2.87377041 5.67772102 2.87415886 C2.89738693 2.88345751 2.89738693 2.88345751 0 4 C0 2.68 0 1.36 0 0 Z " fill="#000C21" transform="translate(617,727)"/>
<path d="M0 0 C2.80227531 2.01032794 4.64716535 3.48127693 5.44921875 6.93359375 C5.65981518 10.77516313 5.23346553 12.63423734 3.125 15.9375 C0.20157849 18.77493852 -0.63926349 18.96451772 -4.8125 19.375 C-8.16084564 19.30791111 -9.03191618 18.97938747 -12 17.0625 C-14.3338737 13.4887559 -14.72688261 11.35241118 -14.49609375 7.15625 C-13.69457881 3.67250002 -11.7960989 2.08081779 -9 0 C-5.37580435 -1.20806522 -3.66716248 -1.0268055 0 0 Z " fill="#002C46" transform="translate(474,229)"/>
<path d="M0 0 C3.63 0 7.26 0 11 0 C10.37922374 6.47567652 9.33183542 12.71162243 7.9375 19.0625 C7.75123047 19.92810547 7.56496094 20.79371094 7.37304688 21.68554688 C6.91933733 23.79122451 6.46023996 25.89574007 6 28 C5.67 27.01 5.34 26.02 5 25 C1.7 25 -1.6 25 -5 25 C-4.37392048 19.20052651 -3.32599062 13.66190169 -1.9375 8 C-1.75123047 7.22527344 -1.56496094 6.45054687 -1.37304688 5.65234375 C-0.91923822 3.76729241 -0.46017508 1.8835073 0 0 Z " fill="#002D49" transform="translate(605,727)"/>
<path d="M0 0 C32.67 0 65.34 0 99 0 C99 25.74 99 51.48 99 78 C98.67 78 98.34 78 98 78 C98 52.92 98 27.84 98 2 C49.985 2.495 49.985 2.495 1 3 C0.67 2.01 0.34 1.02 0 0 Z " fill="#00091C" transform="translate(781,727)"/>
<path d="M0 0 C38.28 0 76.56 0 116 0 C116 0.33 116 0.66 116 1 C89.45014448 2.09556032 89.45014448 2.09556032 79.875 2 C74.48273641 1.95401055 69.33704105 2.23756556 64 3 C64 2.34 64 1.68 64 1 C63.38993607 1.01474869 62.77987213 1.02949738 62.15132141 1.04469299 C55.74256391 1.19833996 49.33364395 1.34280234 42.92456055 1.48217773 C40.53974251 1.53520951 38.15497356 1.59050274 35.77026367 1.64819336 C32.32221055 1.73120071 28.87405678 1.80579479 25.42578125 1.87890625 C24.37731522 1.90594131 23.32884918 1.93297638 22.24861145 1.96083069 C14.7783457 2.10800061 7.4383308 1.68918406 0 1 C0 0.67 0 0.34 0 0 Z " fill="#0580AF" transform="translate(938,826)"/>
<path d="M0 0 C0 0.66 0 1.32 0 2 C0.57492187 1.83628906 1.14984375 1.67257812 1.7421875 1.50390625 C3.97148219 1.0063647 5.84758541 0.89968315 8.125 0.9375 C8.90786377 0.94579834 9.69072754 0.95409668 10.49731445 0.96264648 C11.32320068 0.97497314 12.14908691 0.9872998 13 1 C18.48120675 1.05018188 23.85439308 1.02097828 29.3125 0.4375 C36.58292236 -0.28132707 45.76491775 -1.1567215 52 3 C28.9 3 5.8 3 -18 3 C-15.25950639 0.25950639 -13.38425873 0.60507243 -9.5625 0.375 C-8.40878906 0.30023437 -7.25507812 0.22546875 -6.06640625 0.1484375 C-4.04603136 0.05063591 -2.02274067 0 0 0 Z " fill="#037DAE" transform="translate(729,827)"/>
<path d="M0 0 C2.625 0.375 2.625 0.375 5 1 C5.625 2.8125 5.625 2.8125 6 5 C5.01 6.485 5.01 6.485 4 8 C1.69 7.67 -0.62 7.34 -3 7 C-2.25 2.25 -2.25 2.25 0 0 Z " fill="#00253D" transform="translate(245,165)"/>
<path d="M0 0 C0.391875 0.639375 0.78375 1.27875 1.1875 1.9375 C3.38472296 4.43778819 4.75791433 4.64950425 8 5 C8 5.66 8 6.32 8 7 C13.1693489 6.59443869 13.1693489 6.59443869 18 5 C18 5.66 18 6.32 18 7 C21.63 6.67 25.26 6.34 29 6 C29 6.66 29 7.32 29 8 C24.93774179 8.11638426 20.8759137 8.18731373 16.8125 8.25 C15.08676758 8.30027344 15.08676758 8.30027344 13.32617188 8.3515625 C12.21435547 8.36445312 11.10253906 8.37734375 9.95703125 8.390625 C8.93585205 8.41157227 7.91467285 8.43251953 6.86254883 8.45410156 C3.28896531 7.88720473 1.6164369 6.42939844 -1 4 C-0.67 2.68 -0.34 1.36 0 0 Z " fill="#057DAC" transform="translate(533,822)"/>
<path d="M0 0 C0.598125 0.226875 1.19625 0.45375 1.8125 0.6875 C2.5 3 2.5 3 2.8125 5.6875 C1.625 7.5625 1.625 7.5625 -0.1875 8.6875 C-2.375 8.375 -2.375 8.375 -4.1875 7.6875 C-4.875 5.375 -4.875 5.375 -5.1875 2.6875 C-3.60587179 0.1901923 -2.97595617 -0.4251366 0 0 Z " fill="#00253D" transform="translate(1212.1875,100.3125)"/>
<path d="M0 0 C-0.804375 0.45375 -1.60875 0.9075 -2.4375 1.375 C-5.08856572 2.74725665 -5.08856572 2.74725665 -6 5 C-7.32 5 -8.64 5 -10 5 C-14.35009475 6.67376693 -18.41810455 9.01508712 -22 12 C-19.39514002 5.90883752 -13.73185506 2.50453072 -7.75 0.0625 C-4.15946662 -0.95481779 -3.31008039 -1.06186207 0 0 Z " fill="#0883B1" transform="translate(912,378)"/>
<path d="M0 0 C1.65 0 3.3 0 5 0 C5.625 2.3125 5.625 2.3125 6 5 C5.01 6.485 5.01 6.485 4 8 C2.35 7.67 0.7 7.34 -1 7 C-0.67 4.69 -0.34 2.38 0 0 Z " fill="#00253D" transform="translate(1217,881)"/>
<path d="M0 0 C7.21087059 0.36978824 13.16914498 4.87776008 18 10 C17.67 10.99 17.34 11.98 17 13 C15.5 11.625 15.5 11.625 14 10 C14 9.34 14 8.68 14 8 C12.948125 7.5978125 12.948125 7.5978125 11.875 7.1875 C3.02884615 3.53365385 3.02884615 3.53365385 0 0 Z " fill="#020D1F" transform="translate(1019,202)"/>
<path d="M0 0 C2.00720923 0.28674418 4.0085944 0.61866701 6 1 C6 2.65 6 4.3 6 6 C1.25 7.125 1.25 7.125 -1 6 C-1.042721 4.33388095 -1.04063832 2.66617115 -1 1 C-0.67 0.67 -0.34 0.34 0 0 Z " fill="#00253E" transform="translate(232,929)"/>
<path d="M0 0 C4.52792109 0.46622573 6.27980487 1.87613303 9.1875 5.3125 C9.86167969 6.09238281 10.53585937 6.87226563 11.23046875 7.67578125 C14.48263843 11.94739484 15.24545592 14.59996983 15 20 C12.04816899 17.04816899 11.91336012 14.04488053 11 10 C10.34 10 9.68 10 9 10 C8.401875 9.0925 7.80375 8.185 7.1875 7.25 C5.05775059 4.08580088 3.06626439 2.21452428 0 0 Z " fill="#020E22" transform="translate(1115,391)"/>
<path d="M0 0 C4.42943875 0.48886782 8.88586467 0.33143503 13.3359375 0.2578125 C13.3359375 0.9178125 13.3359375 1.5778125 13.3359375 2.2578125 C5.0859375 2.2578125 -3.1640625 2.2578125 -11.6640625 2.2578125 C-10.6640625 0.2578125 -10.6640625 0.2578125 -8.6015625 -0.4296875 C-5.59687185 -0.74933544 -2.9765865 -0.44477729 0 0 Z " fill="#037BAD" transform="translate(696.6640625,827.7421875)"/>
<path d="M0 0 C5.875 4.625 5.875 4.625 7 8 C7.28455916 10.7635072 7.17817991 13.19366639 7 16 C6.01 16.66 5.02 17.32 4 18 C4.04640625 17.34773437 4.0928125 16.69546875 4.140625 16.0234375 C4.39599015 9.83995269 3.86028725 6.82535906 0 2 C0 1.34 0 0.68 0 0 Z " fill="#010A1B" transform="translate(849,808)"/>
<path d="M0 0 C3.33865998 1.44575901 5.48071403 3.26714538 8 5.875 C8.66 6.55304687 9.32 7.23109375 10 7.9296875 C10.66 8.61289062 11.32 9.29609375 12 10 C13.33102053 11.33564213 14.66368716 12.66965284 16 14 C11.16592748 13.58565093 9.10462326 11.62206046 6 8 C5.67 7.01 5.34 6.02 5 5 C4.01 4.67 3.02 4.34 2 4 C0.8125 1.9375 0.8125 1.9375 0 0 Z " fill="#020C1D" transform="translate(341,707)"/>
<path d="M0 0 C0.4125 0.37511719 0.825 0.75023437 1.25 1.13671875 C5.11415155 4.56097804 9.00734534 7.36661025 13.49609375 9.921875 C13.99238281 10.27765625 14.48867188 10.6334375 15 11 C15 11.66 15 12.32 15 13 C13.51515588 12.60404157 12.0371169 12.18249294 10.5625 11.75 C9.32693359 11.40195312 9.32693359 11.40195312 8.06640625 11.046875 C6 10 6 10 5.21484375 7.890625 C5.14394531 7.26671875 5.07304688 6.6428125 5 6 C4.34 6 3.68 6 3 6 C0 2.53846154 0 2.53846154 0 0 Z " fill="#020D1F" transform="translate(887,821)"/>
<path d="M0 0 C0.99 0.33 1.98 0.66 3 1 C2.38125 1.2475 1.7625 1.495 1.125 1.75 C-1.11049208 2.80004165 -1.11049208 2.80004165 -1.875 4.8125 C-3.55805758 8.08511196 -6.11451985 9.74179814 -9 12 C-8.51113445 7.71872287 -7.38573844 5.90797457 -4.125 3.125 C-3.42632813 2.50882812 -2.72765625 1.89265625 -2.0078125 1.2578125 C-1.34523438 0.84273438 -0.68265625 0.42765625 0 0 Z " fill="#010F22" transform="translate(904,391)"/>
<path d="M0 0 C0 0.33 0 0.66 0 1 C-6.27 1 -12.54 1 -19 1 C-18.67 0.34 -18.34 -0.32 -18 -1 C-11.56776019 -2.40339778 -6.3380187 -1.57151693 0 0 Z " fill="#027CAF" transform="translate(801,829)"/>
<path d="M0 0 C0 0.33 0 0.66 0 1 C-5.61 1 -11.22 1 -17 1 C-14.08524957 -4.82950086 -4.77206095 -1.86226769 0 0 Z " fill="#027AAD" transform="translate(657,829)"/>
<path d="M0 0 C0 3.13736689 -0.42877337 4.13645291 -1.875 6.8125 C-3.23574365 9.4003002 -4.18964733 11.61356489 -5.0625 14.4375 C-5.5265625 15.7059375 -5.5265625 15.7059375 -6 17 C-6.99 17.33 -7.98 17.66 -9 18 C-7.45730076 13.27934033 -5.92205381 8.58335908 -4 4 C-3.34 4 -2.68 4 -2 4 C-1.34 2.68 -0.68 1.36 0 0 Z " fill="#0984B1" transform="translate(897,395)"/>
<path d="M0 0 C0.515625 0.66 1.03125 1.32 1.5625 2 C5.19992503 6.47683081 8.91907389 10.91907389 13 15 C10 15 10 15 8.02734375 13.390625 C7.33769531 12.68421875 6.64804687 11.9778125 5.9375 11.25 C5.24527344 10.55390625 4.55304688 9.8578125 3.83984375 9.140625 C1.18514988 6.05193659 0 4.10324851 0 0 Z " fill="#003452" transform="translate(350,692)"/>
<path d="M0 0 C0.66 0 1.32 0 2 0 C0.40956621 5.08938811 -2.7446951 8.87456643 -6 13 C-6.99 12.67 -7.98 12.34 -9 12 C-8.51789063 11.46890625 -8.03578125 10.9378125 -7.5390625 10.390625 C-6.90742187 9.68421875 -6.27578125 8.9778125 -5.625 8.25 C-4.68527344 7.20585938 -4.68527344 7.20585938 -3.7265625 6.140625 C-2.12494817 4.15491312 -1.03479932 2.32045907 0 0 Z " fill="#010D22" transform="translate(1138,814)"/>
<path d="M0 0 C2.06132142 -0.10864945 4.12431321 -0.18588321 6.1875 -0.25 C7.33605469 -0.29640625 8.48460937 -0.3428125 9.66796875 -0.390625 C13.60353399 0.07075428 15.17745787 1.29971488 18 4 C17.67 4.99 17.34 5.98 17 7 C16.47921875 6.36578125 15.9584375 5.7315625 15.421875 5.078125 C12.36013697 2.45095624 10.22218193 2.22666183 6.25 1.75 C4.49429688 1.52570312 4.49429688 1.52570312 2.703125 1.296875 C1.36507812 1.14992188 1.36507812 1.14992188 0 1 C0 0.67 0 0.34 0 0 Z " fill="#067EAD" transform="translate(834,808)"/>
<path d="M0 0 C1.14266516 3.35897545 0.85911331 5.30450352 -0.3125 8.625 C-0.70888672 9.78902344 -0.70888672 9.78902344 -1.11328125 10.9765625 C-2 13 -2 13 -4 15 C-3.50341703 9.33895411 -2.45489316 5.12325529 0 0 Z " fill="#020B1D" transform="translate(335,217)"/>
<path d="M0 0 C0.66 0.33 1.32 0.66 2 1 C-0.65654657 4.73884332 -2.58110387 6.64978174 -7 8 C-5.50902342 4.2047869 -3.24299151 2.38957269 0 0 Z " fill="#010F21" transform="translate(361,206)"/>
<path d="M0 0 C3.99500618 1.3697164 6.80009492 3.25722422 10 6 C9.67 6.99 9.34 7.98 9 9 C8.67 8.01 8.34 7.02 8 6 C5.60931266 4.89363605 5.60931266 4.89363605 3 4 C2.01 3.34 1.02 2.68 0 2 C0 1.34 0 0.68 0 0 Z " fill="#0880AD" transform="translate(1033,194)"/>
<path d="M0 0 C-0.33 0.99 -0.66 1.98 -1 3 C-3.28515625 3.94921875 -3.28515625 3.94921875 -6.0625 4.6875 C-7.44115234 5.06455078 -7.44115234 5.06455078 -8.84765625 5.44921875 C-9.55792969 5.63097656 -10.26820312 5.81273437 -11 6 C-11 5.34 -11 4.68 -11 4 C-9.73308493 3.32591692 -8.46129251 2.66099503 -7.1875 2 C-6.47980469 1.62875 -5.77210937 1.2575 -5.04296875 0.875 C-3 0 -3 0 0 0 Z " fill="#010E1F" transform="translate(1128,829)"/>
<path d="M0 0 C3 2 3 2 3.6875 4.1875 C4.05299646 7.47696816 4.06484373 10.69296984 4 14 C2.30566082 10.9530371 1.50532888 8.17178534 0.875 4.75 C0.70742187 3.85796875 0.53984375 2.9659375 0.3671875 2.046875 C0.18542969 1.03367188 0.18542969 1.03367188 0 0 Z " fill="#0883B1" transform="translate(1042,219)"/>
<path d="M0 0 C1 2 1 2 0.22265625 4.6015625 C-0.16019531 5.59929687 -0.54304687 6.59703125 -0.9375 7.625 C-1.50791016 9.12933594 -1.50791016 9.12933594 -2.08984375 10.6640625 C-2.39019531 11.43492187 -2.69054687 12.20578125 -3 13 C-4.10096216 9.73381227 -3.9223497 7.98446051 -2.625 4.8125 C-2.34914063 4.11769531 -2.07328125 3.42289062 -1.7890625 2.70703125 C-1 1 -1 1 0 0 Z " fill="#0C80AA" transform="translate(885,396)"/>
<path d="M0 0 C0.66 0 1.32 0 2 0 C2 0.66 2 1.32 2 2 C2.66 2 3.32 2 4 2 C4 2.66 4 3.32 4 4 C5.32 4.33 6.64 4.66 8 5 C7.01 5.33 6.02 5.66 5 6 C1.8125 4.0625 1.8125 4.0625 -1 2 C-0.67 1.34 -0.34 0.68 0 0 Z " fill="#000F23" transform="translate(903,817)"/>
<path d="M0 0 C0.66 0 1.32 0 2 0 C0.90931332 3.77545388 0.0916909 6.47043472 -3 9 C-2.5020163 5.26512223 -2.12508244 3.18762365 0 0 Z " fill="#000D1F" transform="translate(352,215)"/>
<path d="M0 0 C1.17487036 0.75827092 2.33972592 1.53207755 3.5 2.3125 C4.47453125 2.95638672 4.47453125 2.95638672 5.46875 3.61328125 C5.9740625 4.07089844 6.479375 4.52851562 7 5 C7 5.99 7 6.98 7 8 C6.34 8 5.68 8 5 8 C0 2.52380952 0 2.52380952 0 0 Z " fill="#057DAB" transform="translate(897,815)"/>
<path d="M0 0 C0.33 0.66 0.66 1.32 1 2 C0.34 2 -0.32 2 -1 2 C-1.103125 2.639375 -1.20625 3.27875 -1.3125 3.9375 C-1.539375 4.618125 -1.76625 5.29875 -2 6 C-2.99 6.33 -3.98 6.66 -5 7 C-3.75023244 3.34683329 -3.32901247 2.21934164 0 0 Z " fill="#0580AF" transform="translate(345,205)"/>
<path d="M0 0 C2.5625 2.25 2.5625 2.25 5 5 C4.8125 7.3125 4.8125 7.3125 4 9 C4 8.34 4 7.68 4 7 C3.34 7 2.68 7 2 7 C1.34 4.69 0.68 2.38 0 0 Z " fill="#0981AF" transform="translate(1046,205)"/>
<path d="M0 0 C0 0.66 0 1.32 0 2 C-1.96147874 3.38938077 -3.96166576 4.7260411 -6 6 C-6.66 5.67 -7.32 5.34 -8 5 C-5.72541886 1.64228499 -4.30291326 0 0 0 Z " fill="#010C1E" transform="translate(357,192)"/>
</svg>
