<svg width="36" height="36" viewBox="0 0 36 36" fill="none" xmlns="http://www.w3.org/2000/svg">
<g opacity="0.7" clip-path="url(#clip0_23_85)">
<path d="M18 34.5C27.1127 34.5 34.5 27.1127 34.5 18C34.5 8.8873 27.1127 1.5 18 1.5C8.8873 1.5 1.5 8.8873 1.5 18C1.5 27.1127 8.8873 34.5 18 34.5Z" stroke="white" stroke-width="2"/>
<path d="M25.401 16.8L14.4 8.55C14.1771 8.38286 13.9122 8.28108 13.6347 8.25606C13.3573 8.23104 13.0783 8.28378 12.8292 8.40836C12.58 8.53294 12.3705 8.72444 12.224 8.9614C12.0776 9.19837 12 9.47143 12 9.75V26.25C12 26.5286 12.0776 26.8016 12.224 27.0386C12.3705 27.2756 12.58 27.4671 12.8292 27.5916C13.0783 27.7162 13.3573 27.769 13.6347 27.7439C13.9122 27.7189 14.1771 27.6171 14.4 27.45L25.401 19.2C25.5873 19.0603 25.7385 18.8791 25.8426 18.6708C25.9468 18.4625 26.001 18.2329 26.001 18C26.001 17.7671 25.9468 17.5375 25.8426 17.3292C25.7385 17.1209 25.5873 16.9397 25.401 16.8Z" fill="#1B9AAA"/>
</g>
<defs>
<clipPath id="clip0_23_85">
<rect width="36" height="36" fill="white"/>
</clipPath>
</defs>
</svg>
