<svg width="36" height="36" viewBox="0 0 36 36" fill="none" xmlns="http://www.w3.org/2000/svg">
<g opacity="0.7" clip-path="url(#clip0_23_88)">
<path d="M18 1.5C8.8873 1.5 1.5 8.8873 1.5 18C1.5 27.1127 8.8873 34.5 18 34.5C27.1127 34.5 34.5 27.1127 34.5 18C34.5 8.8873 27.1127 1.5 18 1.5Z" stroke="white" stroke-width="2"/>
<path d="M10.599 19.2L21.6 27.45C21.8229 27.6171 22.0878 27.7189 22.3653 27.7439C22.6427 27.769 22.9217 27.7162 23.1708 27.5916C23.42 27.4671 23.6295 27.2756 23.776 27.0386C23.9224 26.8016 24 26.5286 24 26.25V9.75C24 9.47143 23.9224 9.19836 23.776 8.9614C23.6295 8.72444 23.42 8.53294 23.1708 8.40836C22.9217 8.28378 22.6427 8.23104 22.3653 8.25606C22.0878 8.28107 21.8229 8.38286 21.6 8.55L10.599 16.8C10.4127 16.9397 10.2615 17.1209 10.1574 17.3292C10.0532 17.5375 9.999 17.7671 9.999 18C9.999 18.2329 10.0532 18.4625 10.1574 18.6708C10.2615 18.8791 10.4127 19.0603 10.599 19.2Z" fill="#1B9AAA"/>
</g>
<defs>
<clipPath id="clip0_23_88">
<rect width="36" height="36" fill="white" transform="matrix(-1 0 0 -1 36 36)"/>
</clipPath>
</defs>
</svg>
