<?xml version="1.0" encoding="UTF-8"?>
<svg version="1.1" xmlns="http://www.w3.org/2000/svg" width="1536" height="1024">
<path d="M0 0 C506.88 0 1013.76 0 1536 0 C1536 337.92 1536 675.84 1536 1024 C1029.12 1024 522.24 1024 0 1024 C0 686.08 0 348.16 0 0 Z " fill="#001527" transform="translate(0,0)"/>
<path d="M0 0 C0.84433594 0.66644531 1.68867187 1.33289063 2.55859375 2.01953125 C17.40501424 14.50349482 25.75820078 31.35783623 30 50 C30.19464844 50.76828125 30.38929688 51.5365625 30.58984375 52.328125 C34.38859992 77.07430808 27.2931088 100.84497049 13 121 C10.30339925 124.40454607 7.45090041 127.67313997 4.60546875 130.953125 C-6.75299657 144.10977505 -14.11659451 158.220988 -13.21777344 175.80371094 C-12.39434945 184.108108 -8.50573125 191.7840395 -2.76171875 197.7578125 C1.61091531 201.30787184 6.42889052 204.0654657 11.27954102 206.91015625 C17.57519705 210.62857082 22.89244028 214.74025973 28 220 C28.70253906 220.68191406 29.40507813 221.36382812 30.12890625 222.06640625 C41.47247551 233.7543723 46.59364579 249.16472902 46.4375 265.1875 C46.42920166 266.29029297 46.42090332 267.39308594 46.41235352 268.52929688 C46.23156432 277.29467773 45.08447257 284.74127906 42 293 C41.75862305 293.67434082 41.51724609 294.34868164 41.26855469 295.04345703 C35.20510821 311.81899229 25.91160978 324.86542314 14 338 C13.11248047 339.01320313 13.11248047 339.01320313 12.20703125 340.046875 C-11.73893988 365.90113688 -51.81389346 378.29609464 -85.98779297 380.22509766 C-89.97227897 380.3379177 -93.95181081 380.38618578 -97.9375 380.375 C-98.64422852 380.37478851 -99.35095703 380.37457703 -100.07910156 380.37435913 C-119.63644133 380.31655715 -138.48271624 377.33669649 -157 371 C-157.7331543 370.75942871 -158.46630859 370.51885742 -159.22167969 370.27099609 C-176.9489755 364.42332002 -193.93325868 356.07289264 -209 345 C-210.03253906 344.26265625 -211.06507813 343.5253125 -212.12890625 342.765625 C-252.06251379 313.39801681 -274.93766029 270.74584419 -282.41113281 222.33691406 C-289.979319 167.39827802 -274.72482339 109.30364534 -241.33203125 65 C-228.98133794 49.11167091 -215.77706594 34.5436847 -200 22 C-199.2575 21.36707031 -198.515 20.73414063 -197.75 20.08203125 C-147.20555207 -22.47709592 -55.72413642 -44.39875965 0 0 Z " fill="#002134" transform="translate(566,243)"/>
<path d="M0 0 C3.06796339 0.31305749 4.49897593 0.68429466 7.0625 2.3125 C8.6237793 4.37426758 8.6237793 4.37426758 10.13671875 6.95703125 C10.71260742 7.92842041 11.28849609 8.89980957 11.88183594 9.90063477 C12.49833008 10.96467529 13.11482422 12.02871582 13.75 13.125 C14.40645508 14.23866943 15.06291016 15.35233887 15.73925781 16.49975586 C17.50300417 19.49233415 19.2540464 22.49215228 21.00213623 25.49389648 C22.71519006 28.43191249 24.43795141 31.36421707 26.16015625 34.296875 C28.2563187 37.86819992 30.35125526 41.44022977 32.44213867 45.01464844 C37.78732484 54.15156637 43.16123315 63.27111684 48.5625 72.375 C48.95745667 73.04081085 49.35241333 73.7066217 49.75933838 74.39260864 C55.85862044 84.66774966 62.04587709 94.88707847 68.27026367 105.08679199 C72.68668293 112.32872621 77.00668591 119.60310278 81.11376953 127.0246582 C83.69022102 131.67931452 86.39376247 136.24377059 89.14892578 140.79443359 C93.14271658 147.40857733 97.03728559 154.08045853 100.9375 160.75 C107.12968839 171.33461365 113.35945316 181.89614509 119.625 192.4375 C120.02368286 193.10833618 120.42236572 193.77917236 120.83312988 194.47033691 C122.81788969 197.80971988 124.80311295 201.14882703 126.78857422 204.48779297 C136.21091115 220.33451864 145.59362743 236.20346275 154.90432739 252.11599731 C159.72588856 260.35396964 164.58580715 268.56704269 169.51416016 276.74169922 C174.66263195 285.28706434 179.73611838 293.87681596 184.80883789 302.46728516 C185.46231201 303.57249512 186.11578613 304.67770508 186.7890625 305.81640625 C187.37252441 306.80455322 187.95598633 307.7927002 188.55712891 308.81079102 C189.67828377 310.67398821 190.85629909 312.50319864 192.0625 314.3125 C192.50589147 318.3030232 192.53560469 320.53125998 190.43515825 323.99973714 C187.38424706 326.97363112 185.93734515 326.93869423 181.72496796 326.9417057 C179.75731185 326.96126381 179.75731185 326.96126381 177.74990511 326.98121703 C176.29058271 326.97040627 174.83126375 326.95912296 173.37194824 326.94741821 C171.82453731 326.95317717 170.27713321 326.96111678 168.72974348 326.97105443 C164.47072792 326.99198236 160.21227047 326.98158589 155.95325255 326.96612334 C151.36284406 326.95483793 146.77253339 326.97225854 142.18214417 326.98602295 C133.18689391 327.00829001 124.19185191 327.00343876 115.1965934 326.98895974 C107.88787569 326.97768112 100.57921646 326.97613063 93.27049255 326.98157883 C92.23142894 326.98234499 91.19236533 326.98311116 90.12181494 326.98390054 C88.01116898 326.98549912 85.90052304 326.98712018 83.78987712 326.9887635 C63.98480383 327.00303116 44.17984613 326.98661232 24.3747918 326.95976166 C7.37040876 326.93742198 -9.63380363 326.94130182 -26.63818359 326.96435547 C-46.37097406 326.99109552 -66.10366313 327.00165777 -85.83646917 326.98629415 C-87.93947695 326.98470136 -90.04248474 326.9831295 -92.14549255 326.98157883 C-93.69769038 326.98042176 -93.69769038 326.98042176 -95.28124574 326.97924132 C-102.58364511 326.97491893 -109.88598032 326.98222247 -117.18836975 326.99397659 C-126.08406818 327.0079802 -134.97954594 327.0042468 -143.87521899 326.97757287 C-148.41651346 326.96440579 -152.95743963 326.95933127 -157.49873161 326.97581863 C-161.6526226 326.99067176 -165.80580245 326.98260761 -169.95962852 326.95593087 C-171.46561951 326.95032606 -172.97167007 326.953231 -174.47762305 326.96530981 C-176.51836385 326.98042776 -178.55927196 326.96198981 -180.59996796 326.9417057 C-181.73544178 326.94089394 -182.87091559 326.94008218 -184.04079771 326.93924582 C-186.9375 326.3125 -186.9375 326.3125 -189.30468035 323.95519674 C-191.32911829 320.67867104 -191.50636347 319.10902574 -190.9375 315.3125 C-189.51977539 312.20727539 -189.51977539 312.20727539 -187.53515625 308.91015625 C-187.18225021 308.31565674 -186.82934418 307.72115723 -186.46574402 307.10864258 C-185.3227234 305.18979806 -184.16170406 303.28257969 -183 301.375 C-182.20616952 300.05010842 -181.41352945 298.72450288 -180.62207031 297.39819336 C-179.08041796 294.81955432 -177.53184341 292.24533659 -175.97509766 289.67578125 C-174.39617394 287.06959228 -172.82411325 284.45985242 -171.26171875 281.84375 C-169.89446047 279.55537509 -168.52147134 277.27089513 -167.14453125 274.98828125 C-163.7986477 269.43147512 -160.51320719 263.83867267 -157.21679688 258.25244141 C-154.19823404 253.13765439 -151.17565185 248.02532604 -148.14453125 242.91796875 C-141.18688627 231.19426766 -134.25702365 219.45572916 -127.375 207.6875 C-121.51791531 197.67204457 -115.58938211 187.70304547 -109.60131836 177.76513672 C-104.81946999 169.81577888 -100.117465 161.82203433 -95.4375 153.8125 C-90.15907826 144.77873584 -84.83748895 135.77441303 -79.4375 126.8125 C-72.89791697 115.95707111 -66.47665679 105.03557012 -60.07881165 94.09634399 C-59.72924911 93.49865204 -59.37968658 92.90096008 -59.01953125 92.28515625 C-58.67307053 91.69270111 -58.3266098 91.10024597 -57.96965027 90.48983765 C-54.13405422 83.93389526 -50.26852408 77.39576219 -46.40014648 70.85913086 C-43.62317704 66.16634582 -40.85314902 61.46968052 -38.09448242 56.76611328 C-32.65827956 47.50008102 -27.15249223 38.27685455 -21.60400391 29.07763672 C-20.43006702 27.12978891 -19.25804241 25.18078798 -18.08740234 23.23095703 C-16.18767234 20.06796216 -14.28196923 16.90863448 -12.375 13.75 C-11.77913086 12.75597168 -11.18326172 11.76194336 -10.56933594 10.73779297 C-9.72870605 9.34971436 -9.72870605 9.34971436 -8.87109375 7.93359375 C-8.37665771 7.1130249 -7.88222168 6.29245605 -7.37280273 5.44702148 C-3.99594425 0.42510045 -3.99594425 0.42510045 0 0 Z " fill="#002236" transform="translate(766.9375,389.6875)"/>
<path d="M0 0 C7.00566272 4.07413334 12.52081252 9.45728773 15.625 17 C17.58125828 30.93834026 12.69935547 43.08882565 6.75 55.4375 C6.44707031 56.07550537 6.14414063 56.71351074 5.83203125 57.37084961 C1.37495455 66.17609809 -6.14594921 72.91640421 -13.06420898 79.80273438 C-14.32395287 81.0626973 -14.32395287 81.0626973 -15.60914612 82.34811401 C-18.36076266 85.0990389 -21.11589462 87.84641368 -23.87109375 90.59375 C-25.78972856 92.50995895 -27.70760686 94.42692438 -29.62550354 96.34387207 C-34.14233977 100.85761384 -38.66171649 105.36880285 -43.18203646 109.8790555 C-48.33282445 115.01862346 -53.4807359 120.16106858 -58.62842071 125.30374432 C-69.20744076 135.87234273 -79.79002554 146.43736497 -90.375 157 C-88.58336431 160.84500888 -86.32768458 163.2826618 -83.30200195 166.28417969 C-82.78626114 166.79860626 -82.27052032 167.31303284 -81.739151 167.8430481 C-80.03507961 169.54063616 -78.32414213 171.23113214 -76.61328125 172.921875 C-75.42170594 174.10717405 -74.23064822 175.29299362 -73.04008484 176.47930908 C-69.90205436 179.6040379 -66.75851632 182.72316159 -63.61334229 185.84069824 C-58.59640234 190.81454908 -53.58602842 195.79498888 -48.57909203 200.77890778 C-46.83845561 202.50941977 -45.0943897 204.23641726 -43.34992981 205.96307373 C-38.33315903 210.94199274 -33.40916986 215.94483764 -28.81840515 221.3260498 C-26.71958663 223.76009798 -24.47349617 226.03120866 -22.203125 228.3046875 C-20.83607422 229.67367187 -20.83607422 229.67367187 -19.44140625 231.0703125 C-18.51199219 231.99585938 -17.58257813 232.92140625 -16.625 233.875 C-15.67040466 234.83316574 -14.71597657 235.79149813 -13.76171875 236.75 C-12.85550781 237.65492188 -11.94929688 238.55984375 -11.015625 239.4921875 C-9.78634277 240.71977783 -9.78634277 240.71977783 -8.53222656 241.97216797 C-6.34772808 244.13786733 -6.34772808 244.13786733 -3.375 246 C-3.375 246.66 -3.375 247.32 -3.375 248 C-2.385 248.33 -1.395 248.66 -0.375 249 C9.00321178 259.28071752 13.38643389 270.69880889 13.14672852 284.46679688 C12.65055801 295.00676354 9.09657889 303.45726322 1.625 311 C-6.86011602 318.11476286 -14.68827074 321.56669949 -25.75 321.375 C-26.58635986 321.36629883 -27.42271973 321.35759766 -28.28442383 321.34863281 C-34.38457501 321.20377277 -39.74712803 320.47626367 -45.375 318 C-46.04144531 317.73316406 -46.70789062 317.46632813 -47.39453125 317.19140625 C-58.92149536 312.07588963 -68.29883484 301.97328633 -76.1484375 292.34765625 C-77.35420282 290.86020853 -77.35420282 290.86020853 -79.375 290 C-79.375 289.34 -79.375 288.68 -79.375 288 C-80.035 288 -80.695 288 -81.375 288 C-84.92512597 284.68929606 -88.14560587 281.08758668 -91.39575195 277.48535156 C-97.41607512 270.86944101 -103.70391874 264.54313284 -110.04296875 258.234375 C-111.21574127 257.06347412 -112.38828835 255.89234741 -113.56062317 254.7210083 C-116.60455271 251.68084529 -119.65147554 248.64370051 -122.69909668 245.60723877 C-125.82534971 242.49132808 -128.94867284 239.37248334 -132.07226562 236.25390625 C-138.17036145 230.16644391 -144.27163211 224.08217647 -150.375 218 C-156.79707276 223.2316171 -162.55350947 229.09093904 -168.36562538 234.97659111 C-170.20982495 236.84304832 -172.05816356 238.70531368 -173.90776062 240.56642151 C-179.16218061 245.85420878 -184.41241539 251.14609398 -189.65209961 256.44848633 C-192.86963552 259.70393246 -196.09466319 262.9517989 -199.32442284 266.19511604 C-200.54428652 267.42296515 -201.76138296 268.65357064 -202.97548866 269.88711357 C-211.1809957 278.22169265 -219.30424021 285.90283363 -230.03125 290.94921875 C-231.47177734 291.63274414 -231.47177734 291.63274414 -232.94140625 292.33007812 C-234.39353516 293.00200195 -234.39353516 293.00200195 -235.875 293.6875 C-236.84308594 294.14705078 -237.81117188 294.60660156 -238.80859375 295.08007812 C-262.01324639 305.99716638 -262.01324639 305.99716638 -274.75 301.875 C-280.14711206 299.43317763 -284.77539416 295.87923636 -287.3125 290.4375 C-288.27393568 287.32697279 -288.92361343 285.20024503 -288.375 282 C-287.385 281.34 -286.395 280.68 -285.375 280 C-284.75625 280.33 -284.1375 280.66 -283.5 281 C-281.46481656 282.14193235 -281.46481656 282.14193235 -279.375 282 C-279.375 282.66 -279.375 283.32 -279.375 284 C-277.395 283.67 -275.415 283.34 -273.375 283 C-273.106875 283.639375 -272.83875 284.27875 -272.5625 284.9375 C-271.48832248 287.33131686 -271.48832248 287.33131686 -268.375 288 C-257.17956526 288.98205568 -247.79576453 282.826977 -238.109375 277.90234375 C-237.47837891 277.58249512 -236.84738281 277.26264648 -236.19726562 276.93310547 C-234.48298708 276.05529564 -232.7801132 275.15531469 -231.078125 274.25390625 C-228.375 273 -228.375 273 -225.375 273 C-225.16517487 272.46485779 -224.95534973 271.92971558 -224.73916626 271.37835693 C-222.84437554 268.07488229 -220.23715809 265.60077859 -217.54833984 262.94628906 C-216.65545006 262.0529612 -216.65545006 262.0529612 -215.74452209 261.1415863 C-213.77969823 259.17815357 -211.80788961 257.22189627 -209.8359375 255.265625 C-208.47072521 253.9041436 -207.10595439 252.54221939 -205.74160767 251.17987061 C-202.15226841 247.59816176 -198.5569632 244.0225001 -194.96038818 240.44805908 C-191.29028681 236.79842879 -187.62585171 233.14311908 -183.9609375 229.48828125 C-176.77116348 222.31994671 -169.57507484 215.157987 -162.375 208 C-163.68864944 205.09801718 -165.09669759 203.02874604 -167.34649658 200.78126526 C-167.9548082 200.16875916 -168.56311981 199.55625305 -169.18986511 198.92518616 C-169.8558522 198.26481857 -170.52183929 197.60445099 -171.20800781 196.92407227 C-171.91067276 196.21950897 -172.61333771 195.51494568 -173.33729553 194.78903198 C-175.66271334 192.45990813 -177.99525784 190.13806691 -180.328125 187.81640625 C-181.94793547 186.19778816 -183.56737616 184.57879993 -185.1864624 182.9594574 C-188.58297467 179.56450989 -191.98282176 176.17294992 -195.38525391 172.78393555 C-199.73923921 168.44690604 -204.08664727 164.10335741 -208.43178177 159.7574625 C-211.77726901 156.41224774 -215.12536085 153.06965019 -218.47432709 149.72791862 C-220.07763893 148.12778219 -221.68035179 146.52704535 -223.28244781 144.9256916 C-225.52727141 142.68304547 -227.7753638 140.44372864 -230.02441406 138.20532227 C-230.68230423 137.54697891 -231.3401944 136.88863556 -232.01802063 136.21034241 C-235.66046986 132.59296615 -239.41150123 129.26033573 -243.375 126 C-248.685831 119.58060504 -252.24708532 111.75792194 -256 104.375 C-256.61234858 103.18067809 -257.22531495 101.98667275 -257.83886719 100.79296875 C-259.08565196 98.36657512 -260.33022291 95.9390668 -261.57324219 93.51074219 C-264.2331362 88.32791348 -266.92667385 83.16289734 -269.625 78 C-270.11403809 77.06333496 -270.60307617 76.12666992 -271.10693359 75.16162109 C-274.27138197 69.10341684 -277.44380423 63.04942668 -280.625 57 C-281.03234375 56.2251123 -281.4396875 55.45022461 -281.859375 54.65185547 C-283.74363498 51.07374977 -285.63852018 47.50223534 -287.5625 43.9453125 C-300.7317977 19.59806711 -300.7317977 19.59806711 -299.375 12 C-297.875 9 -297.875 9 -295.375 7 C-287.05227154 5.58357321 -281.0967904 9.99189324 -274.125 14.0625 C-272.18801276 15.16766231 -270.24761368 16.26667683 -268.30715942 17.36573792 C-266.97632172 18.12026085 -265.64663789 18.87682244 -264.31808472 19.63536072 C-257.61730134 23.45683815 -250.81593633 27.07677269 -244 30.6875 C-233.4617897 36.29984299 -223.03257844 42.0777277 -212.66796875 48.00390625 C-209.23831536 49.96040314 -205.78817784 51.86329134 -202.30078125 53.71484375 C-201.49850098 54.14498779 -200.6962207 54.57513184 -199.86962891 55.01831055 C-198.41325735 55.79581261 -196.95131637 56.56305052 -195.48193359 57.31567383 C-182.19441304 64.4521648 -171.76442909 77.49178154 -161.25 88.0625 C-159.60960915 89.70791576 -157.96898605 91.35310001 -156.328125 92.99804688 C-152.34106742 96.99603178 -148.35689006 100.9968687 -144.375 105 C-141.13172976 103.57673488 -138.99092003 101.85623524 -136.50656128 99.34515381 C-135.7498262 98.58538742 -134.99309113 97.82562103 -134.21342468 97.04283142 C-133.39259903 96.20853104 -132.57177338 95.37423065 -131.72607422 94.51464844 C-130.85397812 93.63641922 -129.98188202 92.75819 -129.08335876 91.85334778 C-127.18835499 89.94402897 -125.29523753 88.03302673 -123.40490341 86.11910248 C-120.40897003 83.08649622 -117.40427968 80.06266957 -114.39797974 77.04034424 C-105.8508607 68.44499666 -97.31545002 59.83807956 -88.7890625 51.22216797 C-84.07858304 46.46238604 -79.36078094 41.70998203 -74.63520253 36.96518922 C-71.65241721 33.96940401 -68.67883006 30.96487905 -65.711972 27.95332384 C-63.41626197 25.62838029 -61.10722418 23.31673111 -58.80029297 21.00292969 C-57.9916127 20.17672623 -57.18293243 19.35052277 -56.3497467 18.49928284 C-43.07891447 5.27319257 -18.828489 -8.30165197 0 0 Z " fill="#007899" transform="translate(1221.375,333)"/>
<path d="M0 0 C0.84433594 0.66644531 1.68867187 1.33289063 2.55859375 2.01953125 C17.40501424 14.50349482 25.75820078 31.35783623 30 50 C30.19464844 50.76828125 30.38929688 51.5365625 30.58984375 52.328125 C34.38859992 77.07430808 27.2931088 100.84497049 13 121 C10.30339925 124.40454607 7.45090041 127.67313997 4.60546875 130.953125 C-6.75299657 144.10977505 -14.11659451 158.220988 -13.21777344 175.80371094 C-12.39434945 184.108108 -8.50573125 191.7840395 -2.76171875 197.7578125 C1.61091531 201.30787184 6.42889052 204.0654657 11.27954102 206.91015625 C17.57519705 210.62857082 22.89244028 214.74025973 28 220 C28.70253906 220.68191406 29.40507813 221.36382812 30.12890625 222.06640625 C41.47247551 233.7543723 46.59364579 249.16472902 46.4375 265.1875 C46.42920166 266.29029297 46.42090332 267.39308594 46.41235352 268.52929688 C46.23156432 277.29467773 45.08447257 284.74127906 42 293 C41.75862305 293.67434082 41.51724609 294.34868164 41.26855469 295.04345703 C35.20510821 311.81899229 25.91160978 324.86542314 14 338 C13.11248047 339.01320313 13.11248047 339.01320313 12.20703125 340.046875 C-11.73893988 365.90113688 -51.81389346 378.29609464 -85.98779297 380.22509766 C-89.97227897 380.3379177 -93.95181081 380.38618578 -97.9375 380.375 C-98.64422852 380.37478851 -99.35095703 380.37457703 -100.07910156 380.37435913 C-119.63644133 380.31655715 -138.48271624 377.33669649 -157 371 C-157.7331543 370.75942871 -158.46630859 370.51885742 -159.22167969 370.27099609 C-176.9489755 364.42332002 -193.93325868 356.07289264 -209 345 C-210.03253906 344.26265625 -211.06507813 343.5253125 -212.12890625 342.765625 C-252.06251379 313.39801681 -274.93766029 270.74584419 -282.41113281 222.33691406 C-289.979319 167.39827802 -274.72482339 109.30364534 -241.33203125 65 C-228.98133794 49.11167091 -215.77706594 34.5436847 -200 22 C-199.2575 21.36707031 -198.515 20.73414063 -197.75 20.08203125 C-147.20555207 -22.47709592 -55.72413642 -44.39875965 0 0 Z M-178 22 C-179.28197266 22.87011719 -179.28197266 22.87011719 -180.58984375 23.7578125 C-197.63975558 35.72529834 -213.32040799 50.47515743 -226 67 C-226.64066406 67.82371094 -227.28132813 68.64742188 -227.94140625 69.49609375 C-252.16143257 101.64267414 -270.10993358 142.34826649 -270.16796875 183.1015625 C-270.17129715 183.94109467 -270.17462555 184.78062683 -270.17805481 185.64559937 C-270.18308342 187.41200214 -270.1854644 189.17841429 -270.18530273 190.94482422 C-270.18747745 193.59749695 -270.20564465 196.24974493 -270.22460938 198.90234375 C-270.27290475 212.97949817 -269.06119928 226.39686495 -265.4375 240.0625 C-265.18137939 241.03002197 -264.92525879 241.99754395 -264.66137695 242.99438477 C-257.39480835 269.27368635 -244.7925322 292.23197757 -226 312 C-225.49871582 312.53383301 -224.99743164 313.06766602 -224.48095703 313.61767578 C-211.90538349 326.93763304 -197.92596375 337.03560236 -182 346 C-181.09894531 346.51949219 -180.19789063 347.03898437 -179.26953125 347.57421875 C-172.29663605 351.33360833 -164.93224892 353.98328053 -157.5 356.6875 C-156.45537598 357.06841797 -155.41075195 357.44933594 -154.33447266 357.84179688 C-135.13015164 364.66759222 -116.41691388 366.42243852 -96.1875 366.375 C-94.86996735 366.37418427 -94.86996735 366.37418427 -93.52581787 366.37335205 C-80.62063772 366.33664873 -68.42112317 365.79171128 -56 362 C-55.26346191 361.79101074 -54.52692383 361.58202148 -53.76806641 361.36669922 C-21.38226874 352.10667783 6.028723 333.51080485 22.921875 303.9140625 C26.23736448 297.84580423 28.74779042 291.52759048 31 285 C31.26683594 284.23816406 31.53367187 283.47632813 31.80859375 282.69140625 C36.03581175 267.7358005 33.06292489 251.67208987 25.921875 238.30859375 C20.55648199 229.07182976 13.21508796 223.27392854 3.95166016 218.19213867 C-10.42769552 210.28368524 -19.80945681 200.30847413 -25.2734375 184.60546875 C-29.27117928 170.26948074 -27.0978136 156.56031114 -20.3125 143.5 C-15.26638735 134.79893358 -9.7521518 126.71202213 -2.875 119.375 C11.75655047 103.6562755 18.81697859 83.09822767 18.28125 61.69140625 C16.84353132 42.82134853 8.4053789 25.619052 -5.375 12.625 C-52.44081061 -27.60552691 -131.11677538 -10.20984897 -178 22 Z " fill="#007698" transform="translate(566,243)"/>
<path d="M0 0 C3.06796339 0.31305749 4.49897593 0.68429466 7.0625 2.3125 C8.6237793 4.37426758 8.6237793 4.37426758 10.13671875 6.95703125 C10.71260742 7.92842041 11.28849609 8.89980957 11.88183594 9.90063477 C12.49833008 10.96467529 13.11482422 12.02871582 13.75 13.125 C14.40645508 14.23866943 15.06291016 15.35233887 15.73925781 16.49975586 C17.50300417 19.49233415 19.2540464 22.49215228 21.00213623 25.49389648 C22.71519006 28.43191249 24.43795141 31.36421707 26.16015625 34.296875 C28.2563187 37.86819992 30.35125526 41.44022977 32.44213867 45.01464844 C37.78732484 54.15156637 43.16123315 63.27111684 48.5625 72.375 C48.95745667 73.04081085 49.35241333 73.7066217 49.75933838 74.39260864 C55.85862044 84.66774966 62.04587709 94.88707847 68.27026367 105.08679199 C72.68668293 112.32872621 77.00668591 119.60310278 81.11376953 127.0246582 C83.69022102 131.67931452 86.39376247 136.24377059 89.14892578 140.79443359 C93.14271658 147.40857733 97.03728559 154.08045853 100.9375 160.75 C107.12968839 171.33461365 113.35945316 181.89614509 119.625 192.4375 C120.02368286 193.10833618 120.42236572 193.77917236 120.83312988 194.47033691 C122.81788969 197.80971988 124.80311295 201.14882703 126.78857422 204.48779297 C136.21091115 220.33451864 145.59362743 236.20346275 154.90432739 252.11599731 C159.72588856 260.35396964 164.58580715 268.56704269 169.51416016 276.74169922 C174.66263195 285.28706434 179.73611838 293.87681596 184.80883789 302.46728516 C185.46231201 303.57249512 186.11578613 304.67770508 186.7890625 305.81640625 C187.37252441 306.80455322 187.95598633 307.7927002 188.55712891 308.81079102 C189.67828377 310.67398821 190.85629909 312.50319864 192.0625 314.3125 C192.50589147 318.3030232 192.53560469 320.53125998 190.43515825 323.99973714 C187.38424706 326.97363112 185.93734515 326.93869423 181.72496796 326.9417057 C179.75731185 326.96126381 179.75731185 326.96126381 177.74990511 326.98121703 C176.29058271 326.97040627 174.83126375 326.95912296 173.37194824 326.94741821 C171.82453731 326.95317717 170.27713321 326.96111678 168.72974348 326.97105443 C164.47072792 326.99198236 160.21227047 326.98158589 155.95325255 326.96612334 C151.36284406 326.95483793 146.77253339 326.97225854 142.18214417 326.98602295 C133.18689391 327.00829001 124.19185191 327.00343876 115.1965934 326.98895974 C107.88787569 326.97768112 100.57921646 326.97613063 93.27049255 326.98157883 C92.23142894 326.98234499 91.19236533 326.98311116 90.12181494 326.98390054 C88.01116898 326.98549912 85.90052304 326.98712018 83.78987712 326.9887635 C63.98480383 327.00303116 44.17984613 326.98661232 24.3747918 326.95976166 C7.37040876 326.93742198 -9.63380363 326.94130182 -26.63818359 326.96435547 C-46.37097406 326.99109552 -66.10366313 327.00165777 -85.83646917 326.98629415 C-87.93947695 326.98470136 -90.04248474 326.9831295 -92.14549255 326.98157883 C-93.69769038 326.98042176 -93.69769038 326.98042176 -95.28124574 326.97924132 C-102.58364511 326.97491893 -109.88598032 326.98222247 -117.18836975 326.99397659 C-126.08406818 327.0079802 -134.97954594 327.0042468 -143.87521899 326.97757287 C-148.41651346 326.96440579 -152.95743963 326.95933127 -157.49873161 326.97581863 C-161.6526226 326.99067176 -165.80580245 326.98260761 -169.95962852 326.95593087 C-171.46561951 326.95032606 -172.97167007 326.953231 -174.47762305 326.96530981 C-176.51836385 326.98042776 -178.55927196 326.96198981 -180.59996796 326.9417057 C-181.73544178 326.94089394 -182.87091559 326.94008218 -184.04079771 326.93924582 C-186.9375 326.3125 -186.9375 326.3125 -189.30468035 323.95519674 C-191.32911829 320.67867104 -191.50636347 319.10902574 -190.9375 315.3125 C-189.51977539 312.20727539 -189.51977539 312.20727539 -187.53515625 308.91015625 C-187.18225021 308.31565674 -186.82934418 307.72115723 -186.46574402 307.10864258 C-185.3227234 305.18979806 -184.16170406 303.28257969 -183 301.375 C-182.20616952 300.05010842 -181.41352945 298.72450288 -180.62207031 297.39819336 C-179.08041796 294.81955432 -177.53184341 292.24533659 -175.97509766 289.67578125 C-174.39617394 287.06959228 -172.82411325 284.45985242 -171.26171875 281.84375 C-169.89446047 279.55537509 -168.52147134 277.27089513 -167.14453125 274.98828125 C-163.7986477 269.43147512 -160.51320719 263.83867267 -157.21679688 258.25244141 C-154.19823404 253.13765439 -151.17565185 248.02532604 -148.14453125 242.91796875 C-141.18688627 231.19426766 -134.25702365 219.45572916 -127.375 207.6875 C-121.51791531 197.67204457 -115.58938211 187.70304547 -109.60131836 177.76513672 C-104.81946999 169.81577888 -100.117465 161.82203433 -95.4375 153.8125 C-90.15907826 144.77873584 -84.83748895 135.77441303 -79.4375 126.8125 C-72.89791697 115.95707111 -66.47665679 105.03557012 -60.07881165 94.09634399 C-59.72924911 93.49865204 -59.37968658 92.90096008 -59.01953125 92.28515625 C-58.67307053 91.69270111 -58.3266098 91.10024597 -57.96965027 90.48983765 C-54.13405422 83.93389526 -50.26852408 77.39576219 -46.40014648 70.85913086 C-43.62317704 66.16634582 -40.85314902 61.46968052 -38.09448242 56.76611328 C-32.65827956 47.50008102 -27.15249223 38.27685455 -21.60400391 29.07763672 C-20.43006702 27.12978891 -19.25804241 25.18078798 -18.08740234 23.23095703 C-16.18767234 20.06796216 -14.28196923 16.90863448 -12.375 13.75 C-11.77913086 12.75597168 -11.18326172 11.76194336 -10.56933594 10.73779297 C-9.72870605 9.34971436 -9.72870605 9.34971436 -8.87109375 7.93359375 C-8.37665771 7.1130249 -7.88222168 6.29245605 -7.37280273 5.44702148 C-3.99594425 0.42510045 -3.99594425 0.42510045 0 0 Z M0.0625 21.3125 C-7.85228019 33.60505238 -15.37414264 46.08215501 -22.69921875 58.734375 C-25.23799169 63.11919541 -27.81373717 67.47812546 -30.4375 71.8125 C-34.21682374 78.06322676 -37.89252355 84.37205489 -41.5625 90.6875 C-47.09514921 100.2027254 -52.72080174 109.6581344 -58.39648438 119.08862305 C-64.10421617 128.57557861 -69.74141194 138.10301222 -75.36230469 147.64160156 C-76.9187765 150.28075246 -78.47832642 152.91805648 -80.0390625 155.5546875 C-85.90624633 165.46801586 -91.74780982 175.39591357 -97.56762695 185.33709717 C-102.90172254 194.44849295 -108.24771521 203.5503566 -113.703125 212.58984375 C-116.64684807 217.47823304 -119.53826692 222.39764899 -122.4375 227.3125 C-126.36076016 233.96194165 -130.30020191 240.60018165 -134.28222656 247.21459961 C-138.11149095 253.58505659 -141.89880294 259.98036301 -145.6875 266.375 C-146.03114594 266.95476593 -146.37479187 267.53453186 -146.72885132 268.13186646 C-150.37952779 274.29121291 -154.02381853 280.45417167 -157.6484375 286.62890625 C-158.22625977 287.61173584 -158.80408203 288.59456543 -159.39941406 289.60717773 C-160.46872389 291.42698233 -161.53595542 293.24801058 -162.60058594 295.07055664 C-165.50531301 300.01100523 -168.55416118 304.79281938 -171.83154297 309.49560547 C-173.11081808 311.24272676 -173.11081808 311.24272676 -172.9375 313.3125 C-58.4275 313.3125 56.0825 313.3125 174.0625 313.3125 C172.65405796 309.7913949 171.38640446 306.97486875 169.48046875 303.78515625 C168.71126099 302.49121948 168.71126099 302.49121948 167.92651367 301.17114258 C167.37326416 300.24841553 166.82001465 299.32568848 166.25 298.375 C165.06240295 296.38026611 163.87490561 294.38547285 162.6875 292.390625 C162.08164062 291.37548828 161.47578125 290.36035156 160.8515625 289.31445312 C158.13700888 284.7595744 155.44409903 280.19199536 152.75 275.625 C149.2675216 269.72832055 145.7801803 263.83456562 142.28515625 257.9453125 C140.96089433 255.71356728 139.63667637 253.48179598 138.3125 251.25 C137.64516846 250.12537354 136.97783691 249.00074707 136.2902832 247.84204102 C132.76158256 241.89075115 129.24796395 235.93101889 125.7578125 229.95703125 C125.40104935 229.34642853 125.04428619 228.73582581 124.67671204 228.10671997 C123.95651856 226.87400547 123.23632915 225.64128859 122.5161438 224.40856934 C116.50205906 214.11562794 110.40127995 203.88365222 104.1706543 193.71972656 C99.31833205 185.78426714 94.62352869 177.76209263 89.95361328 169.71826172 C86.59592189 163.93562348 83.20170967 158.18107615 79.74267578 152.45849609 C75.64343341 145.65364241 71.63930124 138.79264658 67.625 131.9375 C67.24852325 131.29468079 66.87204651 130.65186157 66.48416138 129.98956299 C64.64775886 126.85377487 62.81176851 123.71774573 60.97607422 120.58154297 C46.97237556 96.65840887 32.81841932 72.8220911 18.51953125 49.07421875 C16.18425836 45.19260764 13.87124463 41.29889242 11.57421875 37.39453125 C11.02306396 36.4622168 10.47190918 35.52990234 9.90405273 34.56933594 C8.87337187 32.82449869 7.84780221 31.07662795 6.82836914 29.32519531 C6.37453857 28.55916992 5.92070801 27.79314453 5.453125 27.00390625 C5.06157227 26.33560791 4.67001953 25.66730957 4.26660156 24.97875977 C2.9956182 23.01549647 2.9956182 23.01549647 0.0625 21.3125 Z " fill="#007496" transform="translate(766.9375,389.6875)"/>
<path d="M0 0 C4.88110289 3.01076078 8.74278376 6.47701688 12.75390625 10.55859375 C13.3772435 11.18476089 14.00058075 11.81092804 14.64280701 12.45606995 C16.62081839 14.44520028 18.59175001 16.44117778 20.5625 18.4375 C21.88950733 19.77455183 23.2169771 21.11114486 24.54492188 22.44726562 C27.52616793 25.44836128 30.50518279 28.45158967 33.47244263 31.46652222 C34.91029145 32.90994376 36.37989744 34.32153034 37.85131836 35.73071289 C40 38 40 38 41 41 C41.5775 41.268125 42.155 41.53625 42.75 41.8125 C45.37020426 43.19538558 46.70978704 45.00311978 48.5234375 47.30078125 C50.68768974 49.79138898 53.19019213 51.81626555 55.7421875 53.8984375 C57.67549905 55.69795586 59.31642436 57.50052961 61.02345276 59.5065918 C65.42253882 64.56007433 70.13725342 69.26972346 74.88256836 73.99609375 C75.85917303 74.9724157 76.83555628 75.94895918 77.81173706 76.92570496 C80.43917071 79.55342329 83.0696567 82.17806605 85.70073771 84.80213165 C88.45851233 87.55361766 91.21341949 90.30797176 93.96864319 93.06201172 C99.17609174 98.2663631 104.38608213 103.46816203 109.5970102 108.66902924 C115.53375248 114.59456004 121.46762566 120.52296047 127.40126979 126.4515934 C139.59767622 138.63757202 151.79764756 150.81997543 164 163 C162.49667312 166.14940547 160.95358047 168.29085016 158.46826172 170.75878906 C157.38736771 171.83945648 157.38736771 171.83945648 156.28463745 172.94195557 C155.50750397 173.70876648 154.73037048 174.47557739 153.9296875 175.265625 C153.13345978 176.05902283 152.33723206 176.85242065 151.51687622 177.66986084 C148.97424052 180.20130703 146.42473652 182.72570803 143.875 185.25 C142.14928247 186.96568617 140.42401645 188.68182662 138.69921875 190.3984375 C134.47136968 194.60424248 130.23786131 198.80428507 126 203 C124.0625 202.1875 124.0625 202.1875 122 201 C121.67 200.01 121.34 199.02 121 198 C120.34 197.67 119.68 197.34 119 197 C117 196 117 196 116 193 C114.67021965 192.3262742 113.33628571 191.66072892 112 191 C110.13158512 189.11213875 110.13158512 189.11213875 108.12281799 186.75491333 C102.05401481 179.84832664 95.54331034 173.41113583 89.03491211 166.92138672 C87.64422465 165.53098187 86.25375841 164.14035571 84.86349487 162.74952698 C81.1163823 159.00212931 77.36621036 155.25780725 73.61545253 151.51405859 C69.68588832 147.59077616 65.7591851 143.6646323 61.83216858 139.73880005 C54.40774685 132.31747748 46.98078132 124.89870614 39.55288273 117.48086369 C31.09135659 109.0305428 22.63269417 100.57735781 14.17426288 92.12393928 C-3.21398902 74.74611968 -20.6058074 57.37187315 -38 40 C-36.49667312 36.85059453 -34.95358047 34.70914984 -32.46826172 32.24121094 C-31.74766571 31.52076599 -31.0270697 30.80032104 -30.28463745 30.05804443 C-29.11893723 28.90782806 -29.11893723 28.90782806 -27.9296875 27.734375 C-27.13345978 26.94097717 -26.33723206 26.14757935 -25.51687622 25.33013916 C-22.97424052 22.79869297 -20.42473652 20.27429197 -17.875 17.75 C-16.14928247 16.03431383 -14.42401645 14.31817338 -12.69921875 12.6015625 C-8.47136968 8.39575752 -4.23786131 4.19571493 0 0 Z " fill="#002237" transform="translate(1030,412)"/>
<path d="M0 0 C7.00566272 4.07413334 12.52081252 9.45728773 15.625 17 C17.58125828 30.93834026 12.69935547 43.08882565 6.75 55.4375 C6.44707031 56.07550537 6.14414063 56.71351074 5.83203125 57.37084961 C1.35600933 66.21352563 -6.20905345 72.97926058 -13.15600586 79.89453125 C-14.00558868 80.7442601 -14.85517151 81.59398895 -15.73049927 82.46946716 C-18.03605939 84.77445443 -20.34380637 87.07722355 -22.65258861 89.37898254 C-25.07404081 91.79413758 -27.49261739 94.212169 -29.91151428 96.62988281 C-34.48147454 101.19674838 -39.05397542 105.76106121 -43.62741905 110.3244381 C-48.83866502 115.52446478 -54.0470351 120.72736797 -59.25517833 125.93050194 C-69.95861274 136.62351416 -80.66561191 147.31295032 -91.375 158 C-92.50699353 157.0919838 -93.63032363 156.17316174 -94.75 155.25 C-95.37648438 154.73953125 -96.00296875 154.2290625 -96.6484375 153.703125 C-98.46360378 151.91259898 -99.27628789 150.27385637 -100.375 148 C-101.035 147.67 -101.695 147.34 -102.375 147 C-101.91351562 146.61070312 -101.45203125 146.22140625 -100.9765625 145.8203125 C-95.15134401 140.82397886 -89.75840118 135.46496786 -84.375 130 C-74.88982768 120.37111295 -74.88982768 120.37111295 -70.41796875 116.5390625 C-65.23643323 112.09551508 -60.48928764 107.220903 -55.6875 102.375 C-54.76388672 101.446875 -53.84027344 100.51875 -52.88867188 99.5625 C-51.17241212 97.83759098 -49.45719003 96.11164833 -47.7434082 94.38427734 C-46.07720355 92.70690855 -44.40168521 91.03876552 -42.71948242 89.37744141 C-40.29200963 86.99578036 -40.29200963 86.99578036 -38.0625 84.125 C-36.06876687 81.67502073 -33.90880138 79.66714375 -31.5 77.625 C-28.09004054 74.71669193 -25.21549972 71.63465263 -22.3515625 68.1953125 C-20.375 66 -20.375 66 -17.7734375 63.6796875 C-9.75379964 56.45538562 -6.04435937 49.01963137 -2.19360352 39.07006836 C-1.41298541 37.09605675 -0.55947967 35.17145879 0.31640625 33.23828125 C2.04509933 28.96041092 2.36862584 25.5361176 1.625 21 C-0.56705378 16.61589244 -2.80615383 13.86907343 -7.375 12 C-14.01024335 11.44706305 -18.42133657 12.8579859 -24.375 15.6875 C-25.13039063 16.02716797 -25.88578125 16.36683594 -26.6640625 16.71679688 C-43.85490986 24.6180884 -57.98121303 38.88866622 -70.0625 53.25 C-73.74247501 57.62413051 -78.0374721 61.31899132 -82.3125 65.09375 C-84.56699758 67.15558049 -86.56748918 69.33017396 -88.54956055 71.65429688 C-92.40807742 76.09498925 -96.48912946 80.2757039 -100.64453125 84.4375 C-101.40674484 85.20304199 -102.16895844 85.96858398 -102.95426941 86.75732422 C-104.55048212 88.35856229 -106.14801792 89.95848243 -107.74682617 91.55712891 C-110.20324177 94.01575594 -112.6515204 96.48230396 -115.09960938 98.94921875 C-116.65576129 100.50830044 -118.21238484 102.06691157 -119.76953125 103.625 C-120.50283157 104.36548584 -121.2361319 105.10597168 -121.99165344 105.86889648 C-122.66963486 106.54380127 -123.34761627 107.21870605 -124.04614258 107.9140625 C-124.94046745 108.8105249 -124.94046745 108.8105249 -125.8528595 109.72509766 C-127.375 111 -127.375 111 -129.375 111 C-129.375 111.66 -129.375 112.32 -129.375 113 C-130.035 113 -130.695 113 -131.375 113 C-131.375 113.66 -131.375 114.32 -131.375 115 C-132.035 115 -132.695 115 -133.375 115 C-133.375 115.66 -133.375 116.32 -133.375 117 C-132.385 117.33 -131.395 117.66 -130.375 118 C-132.375 119.33333333 -134.375 120.66666667 -136.375 122 C-136.54 122.680625 -136.705 123.36125 -136.875 124.0625 C-137.04 124.701875 -137.205 125.34125 -137.375 126 C-138.365 126.33 -139.355 126.66 -140.375 127 C-148.01912847 123.17793577 -153.72138475 116.8765137 -159.30859375 110.5703125 C-164.26420903 105.05640258 -169.41971038 99.76914195 -174.66088867 94.52880859 C-176.20846556 92.97900427 -177.74780692 91.42129936 -179.28710938 89.86328125 C-180.28076199 88.86670069 -181.27488501 87.87058887 -182.26953125 86.875 C-183.59754761 85.54082031 -183.59754761 85.54082031 -184.95239258 84.1796875 C-187.10168043 82.24591325 -188.79906505 81.20362963 -191.375 80 C-192.27331543 80.90878906 -193.17163086 81.81757813 -194.09716797 82.75390625 C-197.42057558 86.11342132 -200.75052209 89.46638881 -204.08251953 92.81738281 C-205.52572972 94.27067173 -206.96714264 95.7257477 -208.40673828 97.18261719 C-210.47222341 99.27226835 -212.54401486 101.35547908 -214.6171875 103.4375 C-215.26307831 104.09371338 -215.90896912 104.74992676 -216.57443237 105.42602539 C-217.17490387 106.02664795 -217.77537537 106.62727051 -218.39404297 107.24609375 C-218.92254852 107.77904053 -219.45105408 108.3119873 -219.99557495 108.86108398 C-221.375 110 -221.375 110 -223.375 110 C-223.375 108.68 -223.375 107.36 -223.375 106 C-223.931875 106.185625 -224.48875 106.37125 -225.0625 106.5625 C-227.774133 107.07551165 -229.71871039 106.6640724 -232.375 106 C-231.88 104.02 -231.88 104.02 -231.375 102 C-230.715 102 -230.055 102 -229.375 102 C-229.21 100.989375 -229.045 99.97875 -228.875 98.9375 C-227.63521816 94.53627448 -224.92153069 92.5446866 -221.453125 89.75 C-219.50763837 88.11169547 -217.97452203 86.4686425 -216.375 84.5 C-213.61406566 81.12468192 -210.48913859 78.42020169 -207.109375 75.67578125 C-205.26727353 73.89591293 -204.45562808 72.29707441 -203.375 70 C-204.04442627 69.6376123 -204.71385254 69.27522461 -205.40356445 68.90185547 C-208.49830582 67.22641457 -211.59290353 65.55070851 -214.6875 63.875 C-216.2662793 63.02035156 -216.2662793 63.02035156 -217.87695312 62.1484375 C-218.92431641 61.58125 -219.97167969 61.0140625 -221.05078125 60.4296875 C-222.10088379 59.86475586 -223.15098633 59.29982422 -224.23291016 58.71777344 C-226.33084512 57.57083712 -228.41414792 56.39672915 -230.48193359 55.19628906 C-231.4508252 54.6390918 -232.4197168 54.08189453 -233.41796875 53.5078125 C-234.70803833 52.74815186 -234.70803833 52.74815186 -236.02416992 51.97314453 C-238.27313072 50.83742359 -238.27313072 50.83742359 -240.45532227 51.14575195 C-242.7618147 52.17213082 -244.22276788 53.41467444 -246.046875 55.16015625 C-246.71074219 55.78857422 -247.37460937 56.41699219 -248.05859375 57.06445312 C-248.74050781 57.72380859 -249.42242188 58.38316406 -250.125 59.0625 C-250.82238281 59.72572266 -251.51976562 60.38894531 -252.23828125 61.07226562 C-253.95684749 62.70843485 -255.66867649 64.35108255 -257.375 66 C-257.375 63 -257.375 63 -255.375 60 C-254.99000109 58.34450469 -254.64706865 56.6777567 -254.375 55 C-255.035 55 -255.695 55 -256.375 55 C-256.9375 53.0625 -256.9375 53.0625 -257.375 51 C-257.045 50.67 -256.715 50.34 -256.375 50 C-255.62723886 47.50746285 -255.375 45.63664741 -255.375 43 C-259.37295833 39.12222078 -264.28143858 36.77499724 -269.1875 34.25 C-270.36989258 33.63318359 -270.36989258 33.63318359 -271.57617188 33.00390625 C-273.50659136 31.99774822 -275.44045367 30.99820031 -277.375 30 C-277.22160156 30.60328125 -277.06820312 31.2065625 -276.91015625 31.828125 C-276.3241376 34.20641965 -275.84246839 36.59587687 -275.375 39 C-276.365 39 -277.355 39 -278.375 39 C-279.035 37.68 -279.695 36.36 -280.375 35 C-279.715 35 -279.055 35 -278.375 35 C-278.808125 34.37351562 -279.24125 33.74703125 -279.6875 33.1015625 C-280.244375 32.28429687 -280.80125 31.46703125 -281.375 30.625 C-281.931875 29.81289063 -282.48875 29.00078125 -283.0625 28.1640625 C-284.375 26 -284.375 26 -284.375 24 C-285.035 24 -285.695 24 -286.375 24 C-286.045 22.35 -285.715 20.7 -285.375 19 C-286.138125 19.763125 -286.90125 20.52625 -287.6875 21.3125 C-289.58333333 23.20833333 -291.47916667 25.10416667 -293.375 27 C-293.024375 27.598125 -292.67375 28.19625 -292.3125 28.8125 C-291.375 31 -291.375 31 -292.375 34 C-300.73727545 18.81137725 -300.73727545 18.81137725 -299.375 12 C-297.875 9 -297.875 9 -295.375 7 C-287.05227154 5.58357321 -281.0967904 9.99189324 -274.125 14.0625 C-272.18801276 15.16766231 -270.24761368 16.26667683 -268.30715942 17.36573792 C-266.97632172 18.12026085 -265.64663789 18.87682244 -264.31808472 19.63536072 C-257.61730134 23.45683815 -250.81593633 27.07677269 -244 30.6875 C-233.4617897 36.29984299 -223.03257844 42.0777277 -212.66796875 48.00390625 C-209.23831536 49.96040314 -205.78817784 51.86329134 -202.30078125 53.71484375 C-201.49850098 54.14498779 -200.6962207 54.57513184 -199.86962891 55.01831055 C-198.41325735 55.79581261 -196.95131637 56.56305052 -195.48193359 57.31567383 C-182.19441304 64.4521648 -171.76442909 77.49178154 -161.25 88.0625 C-159.60960915 89.70791576 -157.96898605 91.35310001 -156.328125 92.99804688 C-152.34106742 96.99603178 -148.35689006 100.9968687 -144.375 105 C-141.13172976 103.57673488 -138.99092003 101.85623524 -136.50656128 99.34515381 C-135.7498262 98.58538742 -134.99309113 97.82562103 -134.21342468 97.04283142 C-133.39259903 96.20853104 -132.57177338 95.37423065 -131.72607422 94.51464844 C-130.85397812 93.63641922 -129.98188202 92.75819 -129.08335876 91.85334778 C-127.18835499 89.94402897 -125.29523753 88.03302673 -123.40490341 86.11910248 C-120.40897003 83.08649622 -117.40427968 80.06266957 -114.39797974 77.04034424 C-105.8508607 68.44499666 -97.31545002 59.83807956 -88.7890625 51.22216797 C-84.07858304 46.46238604 -79.36078094 41.70998203 -74.63520253 36.96518922 C-71.65241721 33.96940401 -68.67883006 30.96487905 -65.711972 27.95332384 C-63.41626197 25.62838029 -61.10722418 23.31673111 -58.80029297 21.00292969 C-57.9916127 20.17672623 -57.18293243 19.35052277 -56.3497467 18.49928284 C-43.07891447 5.27319257 -18.828489 -8.30165197 0 0 Z " fill="#00698A" transform="translate(1221.375,333)"/>
<path d="M0 0 C5.39190397 4.4978935 10.39391684 9.26126542 15.33984375 14.2421875 C16.10680069 15.01055939 16.87375763 15.77893127 17.66395569 16.57058716 C20.0908474 19.00303509 22.51422127 21.43895322 24.9375 23.875 C26.59156486 25.53408552 28.24585945 27.19294202 29.90039062 28.8515625 C33.93625433 32.89839709 37.96924277 36.94807953 42 41 C40.36528098 45.16781868 37.31612167 47.94384045 34.18920898 51.02197266 C33.59555542 51.61431198 33.00190186 52.20665131 32.39025879 52.81694031 C30.43009536 54.77062093 28.46305836 56.71723159 26.49609375 58.6640625 C25.13320551 60.02067996 23.7708314 61.3778141 22.40895081 62.73544312 C18.8247476 66.30634746 15.23501907 69.87164103 11.64367676 73.43536377 C5.89027104 79.14563407 0.14359106 84.86265379 -5.59989738 90.58289719 C-7.61010146 92.58285358 -9.62367037 94.57937655 -11.6375885 96.57559204 C-12.86470752 97.79588552 -14.09171847 99.01628769 -15.31860352 100.23681641 C-16.16409004 101.07219688 -16.16409004 101.07219688 -17.0266571 101.92445374 C-19.86715704 104.69342434 -19.86715704 104.69342434 -22 108 C-23.58161526 108.88458547 -25.20649159 109.69244754 -26.84765625 110.4609375 C-27.84603516 110.93273437 -28.84441406 111.40453125 -29.87304688 111.890625 C-30.92556641 112.38046875 -31.97808594 112.8703125 -33.0625 113.375 C-35.11617731 114.34052522 -37.16956806 115.30666021 -39.22265625 116.2734375 C-40.70403076 116.96711426 -40.70403076 116.96711426 -42.21533203 117.67480469 C-44.66494896 118.8405526 -47.08289723 120.05029202 -49.49609375 121.2890625 C-54.45271862 123.70935424 -59.4464811 125.05306247 -65 124 C-67.75 121.4375 -67.75 121.4375 -70 119 C-72.17323569 119.14681461 -72.17323569 119.14681461 -74 120 C-74.66 119.67 -75.32 119.34 -76 119 C-76 118.34 -76 117.68 -76 117 C-77.485 117.495 -77.485 117.495 -79 118 C-80.34136367 117.34964186 -81.67532254 116.6837045 -83 116 C-83.99 116.495 -83.99 116.495 -85 117 C-85.40068993 110.90787765 -84.03474546 106.2529783 -81.9375 100.5625 C-81.62095459 99.68795166 -81.30440918 98.81340332 -80.97827148 97.91235352 C-73.81471541 78.40101894 -65.32495339 63.59911101 -49.30737305 49.81396484 C-45.16851181 46.19753779 -41.26418581 42.39290403 -37.39453125 38.4921875 C-36.70743576 37.80367706 -36.02034027 37.11516663 -35.31242371 36.40579224 C-33.14339384 34.23122673 -30.97788322 32.05319614 -28.8125 29.875 C-27.34984371 28.40731851 -25.88695496 26.93986866 -24.42382812 25.47265625 C-21.15549999 22.19443954 -17.88952723 18.91389607 -14.6254425 15.63145447 C-13.15041986 14.15097621 -11.67022577 12.67565484 -10.18945312 11.20092773 C-7.93303034 8.93267936 -5.80171783 6.58839143 -3.6875 4.1875 C-2.99011719 3.39730469 -2.29273438 2.60710937 -1.57421875 1.79296875 C-1.05472656 1.20128906 -0.53523437 0.60960937 0 0 Z M-76 115 C-75 117 -75 117 -75 117 Z " fill="#004D6A" transform="translate(1018,498)"/>
<path d="M0 0 C4.59008547 2.46787432 7.92671646 5.17405497 10 10 C11.37132288 17.5286285 8.48313648 23.82331306 5.4375 30.5625 C5.01919922 31.55185547 4.60089844 32.54121094 4.16992188 33.56054688 C1.31192357 40.03724378 -2.01972813 44.98562155 -7 50 C-7.48670166 50.50088135 -7.97340332 51.0017627 -8.47485352 51.51782227 C-9.7999402 52.86181513 -11.14963466 54.18140796 -12.5 55.5 C-16.34971834 59.29172874 -20.00229676 63.19092092 -23.51953125 67.29296875 C-26.40214857 70.6167254 -29.44851677 73.55641566 -32.875 76.3125 C-35.22829035 78.23511555 -37.17411539 80.28252687 -39.13671875 82.6015625 C-43.20127915 87.29740195 -47.53637852 91.68366268 -51.9375 96.0625 C-52.69740234 96.82626953 -53.45730469 97.59003906 -54.24023438 98.37695312 C-57.6681313 101.7989954 -61.1088867 105.14062131 -64.80078125 108.27734375 C-68.3507339 111.32990688 -71.6294342 114.6140463 -74.890625 117.96875 C-75.40742325 118.49814682 -75.9242215 119.02754364 -76.4566803 119.57298279 C-78.60644466 121.77701832 -80.75431265 123.98238745 -82.88378906 126.20605469 C-84.45814342 127.84667772 -86.04768578 129.4711938 -87.640625 131.09375 C-88.35946869 131.85600891 -88.35946869 131.85600891 -89.09283447 132.63366699 C-90.46972656 134.02148438 -90.46972656 134.02148438 -93 136 C-95.60781345 135.98359491 -96.59757183 135.31432723 -98.62817383 133.72827148 C-99.40970825 132.93271851 -99.40970825 132.93271851 -100.20703125 132.12109375 C-101.08174072 131.23949585 -101.08174072 131.23949585 -101.97412109 130.34008789 C-102.58078613 129.71223389 -103.18745117 129.08437988 -103.8125 128.4375 C-104.43979004 127.79997803 -105.06708008 127.16245605 -105.71337891 126.50561523 C-109.4275585 122.70590223 -112.98225575 118.81346183 -116.40234375 114.74609375 C-118.87235476 112.04659516 -121.66474417 109.75552184 -124.49609375 107.4453125 C-124.99238281 106.96835937 -125.48867187 106.49140625 -126 106 C-126 105.34 -126 104.68 -126 104 C-125.34 104 -124.68 104 -124 104 C-124 103.34 -124 102.68 -124 102 C-123.34 102 -122.68 102 -122 102 C-122 101.34 -122 100.68 -122 100 C-120.5302887 98.54905701 -120.5302887 98.54905701 -118.49829102 96.86499023 C-114.13474557 93.1520801 -110.07105557 89.21589732 -106.02734375 85.16015625 C-105.30059952 84.43436874 -104.57385529 83.70858124 -103.8250885 82.96080017 C-102.30037704 81.43676444 -100.7769085 79.91148431 -99.25463867 78.38500977 C-96.94366109 76.06867537 -94.62739229 73.75772922 -92.31054688 71.44726562 C-90.8199918 69.95604966 -89.329747 68.46452347 -87.83984375 66.97265625 C-86.81611916 65.951968 -86.81611916 65.951968 -85.77171326 64.91065979 C-81.84920453 60.96925555 -78.11174227 56.92424127 -74.49824524 52.69706726 C-72.57177821 50.51495178 -70.46808708 48.63154973 -68.25 46.75 C-64.02255716 43.02476465 -60.2330079 39.05988164 -56.46240234 34.87744141 C-21.20839135 -4.03072447 -21.20839135 -4.03072447 0 0 Z " fill="#002236" transform="translate(1214,344)"/>
<path d="M0 0 C2.4296875 2.00390625 2.4296875 2.00390625 4.875 4.5625 C6.18404297 5.92375 6.18404297 5.92375 7.51953125 7.3125 C10.14533928 10.15746996 12.6970535 13.05178943 15.21484375 15.9921875 C18.63117315 19.83462363 22.33688874 23.39513609 26 27 C27.66711354 28.66621967 29.33369834 30.33296841 31 32 C33.07923496 34.0753079 35.15955853 36.14952395 37.23974609 38.22387695 C43.3921911 44.35995894 49.54207121 50.49860505 55.6905117 56.63869953 C59.4023751 60.34534402 63.1151684 64.05104712 66.83007812 67.75463867 C70.43663145 71.35027879 74.04069313 74.94839951 77.64308548 78.54820824 C79.00962492 79.91291117 80.37703881 81.27673909 81.74537277 82.63964272 C94.37943072 95.22552875 94.37943072 95.22552875 99.62210083 101.39402771 C101.69437 103.80930376 103.92392609 106.05366161 106.171875 108.3046875 C107.08324219 109.21734375 107.99460937 110.13 108.93359375 111.0703125 C109.86300781 111.99585938 110.79242187 112.92140625 111.75 113.875 C112.70459534 114.83316574 113.65902343 115.79149813 114.61328125 116.75 C115.51949219 117.65492188 116.42570312 118.55984375 117.359375 119.4921875 C118.58865723 120.71977783 118.58865723 120.71977783 119.84277344 121.97216797 C122.02727192 124.13786733 122.02727192 124.13786733 125 126 C125 126.66 125 127.32 125 128 C125.99 128.33 126.98 128.66 128 129 C128.625 130.9375 128.625 130.9375 129 133 C129.33 133.66 129.66 134.32 130 135 C129.01 135.70125 128.02 136.4025 127 137.125 C124.70439397 139.07789707 124.07830559 139.66328596 123.375 142.6875 C123.94336348 145.69982645 124.75596062 147.79697361 126 150.5625 C128.91649754 157.51400848 129.38924769 164.64899446 127.08203125 171.875 C123.81839543 178.97261577 119.4584191 183.03712701 112.375 186.3125 C103.0296586 189.72606782 94.76200178 188.68943775 85.83984375 184.5625 C79.89232231 181.29013607 75.06929886 178.13859772 72 172 C82.23 161.77 92.46 151.54 103 141 C102.67 141 102.34 141 102 141 C101.01 141 100.02 141 99 141 C98.814375 141.9590625 98.814375 141.9590625 98.625 142.9375 C98.315625 143.9584375 98.315625 143.9584375 98 145 C97.34 145.33 96.68 145.66 96 146 C96 145.01 96 144.02 96 143 C95.34 143 94.68 143 94 143 C94 142.34 94 141.68 94 141 C92.68 141 91.36 141 90 141 C89.34 141.99 88.68 142.98 88 144 C89.98 144.99 89.98 144.99 92 146 C92.33 145.34 92.66 144.68 93 144 C93.90234375 146.07421875 93.90234375 146.07421875 94 149 C92.18392567 151.60743634 89.89370853 153.66778816 87.5625 155.8125 C86.93794922 156.40998047 86.31339844 157.00746094 85.66992188 157.62304688 C84.12638498 159.09588743 82.56484123 160.54981471 81 162 C80.34 161.67 79.68 161.34 79 161 C79.66 158.69 80.32 156.38 81 154 C80.34 154 79.68 154 79 154 C78.67 154.99 78.34 155.98 78 157 C78.52268466 154.23723823 79.10869587 151.6739124 80 149 C79.34 148.67 78.68 148.34 78 148 C85.59 140.41 93.18 132.82 101 125 C98.63824118 121.0637353 96.91466805 118.66769198 93.76933289 115.53555298 C92.90722198 114.67213791 92.04511108 113.80872284 91.15687561 112.91914368 C90.20452592 111.97546593 89.25208449 111.03188076 88.29956055 110.08837891 C87.29365043 109.08467167 86.28818909 108.0805145 85.28314209 107.07594299 C83.12200546 104.91773442 80.95775609 102.76271465 78.79102135 100.6101265 C75.36055213 97.20198065 71.93723715 93.78670854 68.5148468 90.37045288 C63.09661196 84.96359198 57.67372644 79.5614234 52.24878675 74.16129053 C42.54472477 64.501536 32.84616966 54.83626069 23.15291435 45.16566217 C19.75435248 41.77547475 16.35300267 38.38811728 12.94933546 35.00305581 C10.82571339 32.89013391 8.70416805 30.77513564 6.58311462 28.65963554 C5.60448671 27.68445605 4.62498934 26.71014812 3.64452553 25.7368145 C-4.67680759 17.47462971 -4.67680759 17.47462971 -8.44303894 12.98934937 C-10.84509593 9.90701465 -10.84509593 9.90701465 -14 8 C-14 7.34 -14 6.68 -14 6 C-13.38125 5.938125 -12.7625 5.87625 -12.125 5.8125 C-11.42375 5.544375 -10.7225 5.27625 -10 5 C-9.29788106 3.34795544 -8.63028587 1.68076231 -8 0 C-4.58934589 -1.1368847 -3.37876337 -1.0943159 0 0 Z " fill="#007798" transform="translate(1093,453)"/>
<path d="M0 0 C8.4013388 5.57901405 14.32466568 13.19436224 17 22.9921875 C18.13584937 34.87675885 17.24098455 44.92910365 9.91015625 54.80859375 C5.74163855 59.70392992 1.85204037 63.33216915 -4 65.9921875 C-5.134375 66.5696875 -6.26875 67.1471875 -7.4375 67.7421875 C-16.3005003 70.86320512 -27.93948944 70.0844307 -36.46875 66.44921875 C-44.0873914 62.06379708 -50.10044629 55.85470229 -54 47.9921875 C-54.598125 46.8165625 -55.19625 45.6409375 -55.8125 44.4296875 C-58.99880984 35.05493773 -57.88459345 24.58620986 -53.67578125 15.77734375 C-48.33746444 6.90503632 -40.6240577 -0.75798462 -30.69921875 -4.12890625 C-19.26708414 -6.84509451 -10.07224133 -5.69997293 0 0 Z " fill="#00789A" transform="translate(413,326.0078125)"/>
<path d="M0 0 C7.97201414 5.69429582 13.89925091 13.71444735 15.6015625 23.4921875 C16.34786034 32.47540219 16.49981619 40.59012667 11.6015625 48.4921875 C11.0446875 49.5028125 10.4878125 50.5134375 9.9140625 51.5546875 C3.52500402 59.67051854 -3.17226308 64.45208495 -13.3984375 66.4921875 C-23.25702145 67.57925569 -32.0997812 66.22157323 -40.1484375 60.2421875 C-48.58538212 53.09752137 -54.3961219 45.30153342 -55.84765625 33.9921875 C-56.19882296 22.94860006 -53.50239194 14.00003586 -46.3828125 5.49609375 C-43.08194265 2.16273502 -39.50329298 -0.26487921 -35.3984375 -2.5078125 C-34.79644531 -2.848125 -34.19445312 -3.1884375 -33.57421875 -3.5390625 C-22.69868251 -8.63475844 -9.76375127 -6.13812376 0 0 Z " fill="#007597" transform="translate(495.3984375,508.5078125)"/>
<path d="M0 0 C1.05574219 0.60134766 1.05574219 0.60134766 2.1328125 1.21484375 C9.66778204 6.15698157 14.72031708 14.36516329 17 23 C18.08382899 34.93472153 16.92240138 44.85863806 9.8125 54.8125 C4.04136481 61.70820329 -2.93491048 66.09288826 -11.96044922 67.25170898 C-23.70503912 68.15022547 -32.5528096 66.3259399 -41.875 58.625 C-42.926875 57.325625 -42.926875 57.325625 -44 56 C-44.50015625 55.40316406 -45.0003125 54.80632812 -45.515625 54.19140625 C-52.52595746 45.46252141 -54.95582539 35.91605874 -53.75 24.66796875 C-51.50812431 14.5194779 -45.49718602 5.73765596 -36.8125 0.06640625 C-26.01915449 -6.28398884 -10.87613682 -6.35437298 0 0 Z " fill="#007799" transform="translate(398,444)"/>
<path d="M0 0 C8.35235735 5.31240026 12.9736609 11.48098174 17.16796875 20.37890625 C17.66296875 21.36890625 17.66296875 21.36890625 18.16796875 22.37890625 C19.08173506 31.81779711 19.6817133 42.28864555 14.16796875 50.37890625 C13.74386719 51.05824219 13.31976562 51.73757813 12.8828125 52.4375 C8.05502512 59.55142625 1.20656263 65.58930464 -7.1875 67.94140625 C-16.70564627 69.51604788 -26.4519415 69.56924564 -34.83203125 64.37890625 C-43.65090281 57.92575284 -50.92974988 49.4121382 -52.83203125 38.37890625 C-53.83246298 27.38978893 -51.46584017 18.87056769 -44.5234375 10.2578125 C-33.21515506 -2.30404397 -16.0478963 -7.92727408 0 0 Z " fill="#00789A" transform="translate(520.83203125,287.62109375)"/>
<path d="M0 0 C5.75988687 1.15668024 10.74159012 4.63580103 15.76171875 7.56689453 C17.69870599 8.67205684 19.63910507 9.77107136 21.57955933 10.87013245 C22.91039703 11.62465538 24.24008086 12.38121697 25.56863403 13.13975525 C32.26941741 16.96123268 39.07078242 20.58116722 45.88671875 24.19189453 C56.42492905 29.80423753 66.85414031 35.58212223 77.21875 41.50830078 C80.64840339 43.46479767 84.09854091 45.36768587 87.5859375 47.21923828 C88.38821777 47.64938232 89.19049805 48.07952637 90.01708984 48.52270508 C91.4734614 49.30020714 92.93540238 50.06744505 94.40478516 50.82006836 C104.76385634 56.38374126 112.84982825 65.70484095 121.04296875 73.97314453 C122.01007782 74.94467352 122.97749124 75.91589962 123.94519043 76.88684082 C126.97024674 79.9231671 129.99126042 82.96349521 133.01171875 86.00439453 C136.54375018 89.5600879 140.07745201 93.11408993 143.61534119 96.66395569 C145.02332606 98.07841157 146.42825077 99.49591148 147.83312988 100.91345215 C148.68161499 101.76524048 149.5301001 102.61702881 150.40429688 103.49462891 C151.15134888 104.24691772 151.89840088 104.99920654 152.66809082 105.77429199 C154.40658176 107.57097064 154.40658176 107.57097064 156.51171875 108.50439453 C156.51171875 109.16439453 156.51171875 109.82439453 156.51171875 110.50439453 C157.50171875 110.83439453 158.49171875 111.16439453 159.51171875 111.50439453 C157.51171875 112.83772786 155.51171875 114.1710612 153.51171875 115.50439453 C153.34671875 116.18501953 153.18171875 116.86564453 153.01171875 117.56689453 C152.84671875 118.20626953 152.68171875 118.84564453 152.51171875 119.50439453 C151.52171875 119.83439453 150.53171875 120.16439453 149.51171875 120.50439453 C141.86759028 116.6823303 136.165334 110.38090823 130.578125 104.07470703 C125.62250972 98.56079711 120.46700837 93.27353648 115.22583008 88.03320312 C113.67825319 86.4833988 112.13891183 84.92569389 110.59960938 83.36767578 C109.60595676 82.37109522 108.61183374 81.3749834 107.6171875 80.37939453 C106.28917114 79.04521484 106.28917114 79.04521484 104.93432617 77.68408203 C102.78503832 75.75030778 101.0876537 74.70802416 98.51171875 73.50439453 C97.61340332 74.41318359 96.71508789 75.32197266 95.78955078 76.25830078 C92.46614317 79.61781585 89.13619666 82.97078334 85.80419922 86.32177734 C84.36098903 87.77506627 82.91957611 89.23014223 81.47998047 90.68701172 C79.41449534 92.77666288 77.34270389 94.85987362 75.26953125 96.94189453 C74.62364044 97.59810791 73.97774963 98.25432129 73.31228638 98.93041992 C72.71181488 99.53104248 72.11134338 100.13166504 71.49267578 100.75048828 C70.96417023 101.28343506 70.43566467 101.81638184 69.8911438 102.36547852 C68.51171875 103.50439453 68.51171875 103.50439453 66.51171875 103.50439453 C66.51171875 102.18439453 66.51171875 100.86439453 66.51171875 99.50439453 C65.95484375 99.69001953 65.39796875 99.87564453 64.82421875 100.06689453 C62.11258575 100.57990618 60.16800836 100.16846693 57.51171875 99.50439453 C58.00671875 97.52439453 58.00671875 97.52439453 58.51171875 95.50439453 C59.17171875 95.50439453 59.83171875 95.50439453 60.51171875 95.50439453 C60.67671875 94.49376953 60.84171875 93.48314453 61.01171875 92.44189453 C62.25150059 88.04066901 64.96518806 86.04908113 68.43359375 83.25439453 C70.37908038 81.61609 71.91219672 79.97303703 73.51171875 78.00439453 C76.27265309 74.62907645 79.39758016 71.92459622 82.77734375 69.18017578 C84.61944522 67.40030747 85.43109067 65.80146895 86.51171875 63.50439453 C85.84229248 63.14200684 85.17286621 62.77961914 84.4831543 62.40625 C81.38841293 60.73080911 78.29381522 59.05510304 75.19921875 57.37939453 C74.14669922 56.80962891 73.09417969 56.23986328 72.00976562 55.65283203 C70.96240234 55.08564453 69.91503906 54.51845703 68.8359375 53.93408203 C67.78583496 53.36915039 66.73573242 52.80421875 65.65380859 52.22216797 C63.55587363 51.07523165 61.47257083 49.90112368 59.40478516 48.70068359 C58.43589355 48.14348633 57.46700195 47.58628906 56.46875 47.01220703 C55.17868042 46.25254639 55.17868042 46.25254639 53.86254883 45.47753906 C51.61358803 44.34181812 51.61358803 44.34181812 49.43139648 44.65014648 C47.12490405 45.67652535 45.66395087 46.91906897 43.83984375 48.66455078 C43.17597656 49.29296875 42.51210938 49.92138672 41.828125 50.56884766 C41.14621094 51.22820312 40.46429687 51.88755859 39.76171875 52.56689453 C39.06433594 53.23011719 38.36695313 53.89333984 37.6484375 54.57666016 C35.92987126 56.21282939 34.21804226 57.85547708 32.51171875 59.50439453 C32.51171875 56.50439453 32.51171875 56.50439453 34.51171875 53.50439453 C34.89671766 51.84889922 35.2396501 50.18215123 35.51171875 48.50439453 C34.85171875 48.50439453 34.19171875 48.50439453 33.51171875 48.50439453 C32.94921875 46.56689453 32.94921875 46.56689453 32.51171875 44.50439453 C32.84171875 44.17439453 33.17171875 43.84439453 33.51171875 43.50439453 C34.25947989 41.01185738 34.51171875 39.14104194 34.51171875 36.50439453 C30.51376042 32.62661531 25.60528017 30.27939177 20.69921875 27.75439453 C19.91095703 27.34318359 19.12269531 26.93197266 18.31054688 26.50830078 C16.38012739 25.50214275 14.44626508 24.50259484 12.51171875 23.50439453 C12.66511719 24.10767578 12.81851563 24.71095703 12.9765625 25.33251953 C13.56258115 27.71081418 14.04425036 30.1002714 14.51171875 32.50439453 C13.52171875 32.50439453 12.53171875 32.50439453 11.51171875 32.50439453 C10.85171875 31.18439453 10.19171875 29.86439453 9.51171875 28.50439453 C10.17171875 28.50439453 10.83171875 28.50439453 11.51171875 28.50439453 C11.07859375 27.87791016 10.64546875 27.25142578 10.19921875 26.60595703 C9.64234375 25.78869141 9.08546875 24.97142578 8.51171875 24.12939453 C7.95484375 23.31728516 7.39796875 22.50517578 6.82421875 21.66845703 C5.51171875 19.50439453 5.51171875 19.50439453 5.51171875 17.50439453 C4.85171875 17.50439453 4.19171875 17.50439453 3.51171875 17.50439453 C3.84171875 15.85439453 4.17171875 14.20439453 4.51171875 12.50439453 C3.74859375 13.26751953 2.98546875 14.03064453 2.19921875 14.81689453 C0.30338542 16.71272786 -1.59244792 18.6085612 -3.48828125 20.50439453 C-3.13765625 21.10251953 -2.78703125 21.70064453 -2.42578125 22.31689453 C-1.48828125 24.50439453 -1.48828125 24.50439453 -2.48828125 27.50439453 C-10.8505567 12.31577178 -10.8505567 12.31577178 -9.48828125 5.50439453 C-7.21617427 0.96018056 -5.06106536 -0.14528827 0 0 Z " fill="#00799B" transform="translate(931.48828125,339.49560546875)"/>
<path d="M0 0 C2.80969467 1.28022875 4.8539238 2.60714129 7.02441406 4.79736328 C7.86483246 5.63800827 7.86483246 5.63800827 8.722229 6.49563599 C9.31404968 7.09777924 9.90587036 7.69992249 10.515625 8.3203125 C11.13145447 8.93897186 11.74728394 9.55763123 12.3817749 10.19503784 C14.34260336 12.16703814 16.29635301 14.14588737 18.25 16.125 C19.58026799 17.46530164 20.910992 18.80515083 22.2421875 20.14453125 C25.5001015 23.42446589 28.75168533 26.71055942 32 30 C30.41219641 33.86466333 27.94066771 36.30059155 24.99951172 39.22753906 C24.492034 39.73530884 23.98455627 40.24307861 23.46170044 40.76623535 C21.78906131 42.43748509 20.10945783 44.10154556 18.4296875 45.765625 C17.26625722 46.92532377 16.10326874 48.08546592 14.94070435 49.24603271 C11.884018 52.29509352 8.82137256 55.33809963 5.75744629 58.37988281 C2.63024835 61.48659913 -0.49127507 64.59900545 -3.61328125 67.7109375 C-9.7366488 73.81287417 -15.8663236 79.90842598 -22 86 C-25.94371334 82.67684946 -29.79139211 79.33291575 -33.41015625 75.65234375 C-34.55387695 74.49702148 -34.55387695 74.49702148 -35.72070312 73.31835938 C-36.49349609 72.53267578 -37.26628906 71.74699219 -38.0625 70.9375 C-44.04502278 64.77872131 -44.04502278 64.77872131 -50.49609375 59.12890625 C-53 57 -53 57 -54 54 C-51.93423216 50.76662425 -49.35962226 48.40410986 -46.46289062 45.94506836 C-41.42375877 41.56530285 -36.73651686 36.86185147 -32.03125 32.12890625 C-31.11033569 31.206577 -30.18942139 30.28424774 -29.24060059 29.33396912 C-26.81852446 26.90811523 -24.39946921 24.47927148 -21.9810791 22.04974365 C-19.50226163 19.56060884 -17.02053203 17.07438105 -14.5390625 14.58789062 C-9.68989076 9.72806542 -4.84391137 4.86506822 0 0 Z " fill="#002135" transform="translate(1028,509)"/>
<path d="M0 0 C6.5086904 5.36123745 12.42523693 11.27938397 18.375 17.2421875 C19.46909274 18.33560504 20.56333376 19.42887423 21.65771484 20.52200317 C23.94205714 22.80487808 26.22459912 25.08953363 28.50585938 27.37548828 C31.41053859 30.28585737 34.31967615 33.19172187 37.23019409 36.09625053 C39.48841399 38.35083303 41.74421733 40.60782138 43.99932861 42.86551285 C45.07015885 43.93700394 46.14171507 45.00777006 47.21405029 46.07775497 C53.02380089 51.87756266 58.67879694 57.7449766 64 64 C65.60556633 65.84654997 67.13734528 67.38905537 69 69 C72.84706127 69.39644736 72.84706127 69.39644736 74.84771729 67.63330078 C75.47837097 66.99376465 76.10902466 66.35422852 76.75878906 65.6953125 C77.83945648 64.61419189 77.83945648 64.61419189 78.94195557 63.51123047 C79.70876648 62.72377441 80.47557739 61.93631836 81.265625 61.125 C82.45572174 59.92641357 82.45572174 59.92641357 83.66986084 58.70361328 C86.20609402 56.14495877 88.72808273 53.57275851 91.25 51 C92.96522667 49.26471598 94.68136147 47.53032909 96.3984375 45.796875 C100.60955802 41.54161058 104.80906031 37.27513651 109 33 C109.66 33.33 110.32 33.66 111 34 C103.41 41.59 95.82 49.18 88 57 C89.485 57.495 89.485 57.495 91 58 C90.01 58.495 90.01 58.495 89 59 C88.34786708 61.02463255 88.34786708 61.02463255 88 63 C88.66 63 89.32 63 90 63 C89.67 65.31 89.34 67.62 89 70 C93.5491872 66.20452429 98.0536729 62.4275865 102 58 C102 56.68 102 55.36 102 54 C100.02 54.99 100.02 54.99 98 56 C97.01 54.02 97.01 54.02 96 52 C96.66 52 97.32 52 98 52 C98.33 51.01 98.66 50.02 99 49 C100.98 49.495 100.98 49.495 103 50 C103 50.66 103 51.32 103 52 C103.66 52 104.32 52 105 52 C105.33 52.66 105.66 53.32 106 54 C106.226875 53.38125 106.45375 52.7625 106.6875 52.125 C108.37929835 49.38589791 109.99244161 48.94975528 113 48 C111.70280076 50.85779017 110.3363174 52.91008536 108.11083984 55.11621094 C107.5303891 55.69651062 106.94993835 56.2768103 106.35189819 56.87469482 C105.72788116 57.48838928 105.10386414 58.10208374 104.4609375 58.734375 C103.82008209 59.37240051 103.17922668 60.01042603 102.51895142 60.66778564 C100.47562179 62.69994069 98.42544018 64.72502218 96.375 66.75 C94.9865214 68.1284453 93.5984951 69.50734636 92.2109375 70.88671875 C88.81251303 74.26311894 85.40792746 77.63319288 82 81 C85.13882444 87.79025332 92.24101353 91.42107573 98.875 94.4375 C108.18750544 97.78418164 116.57605367 96.59911866 125.4296875 92.484375 C130.3969429 89.61574726 133.41175624 85.57621368 135.4921875 80.171875 C137.41024568 71.96848771 136.310027 64.70604933 132.9140625 57.14453125 C131.63350758 54.1401524 131.27211248 52.2027051 132 49 C133.83427488 46.69920434 135.76699878 44.95387606 138 43 C137.01 41.02 137.01 41.02 136 39 C140.67323643 42.48344498 143.36184767 45.72539805 145.8125 51.0625 C146.11091797 51.67416016 146.40933594 52.28582031 146.71679688 52.91601562 C151.40513233 62.70542939 151.87515409 75.72015607 148.4375 86.0625 C143.80107518 96.61157808 135.88987493 104.20752446 125.26953125 108.671875 C120.70925977 110.30126936 116.43121356 110.45829156 111.625 110.375 C110.78864014 110.36629883 109.95228027 110.35759766 109.09057617 110.34863281 C102.99042499 110.20377277 97.62787197 109.47626367 92 107 C91.33355469 106.73316406 90.66710938 106.46632813 89.98046875 106.19140625 C78.45350464 101.07588963 69.07616516 90.97328633 61.2265625 81.34765625 C60.02079718 79.86020853 60.02079718 79.86020853 58 79 C58 78.34 58 77.68 58 77 C57.34 77 56.68 77 56 77 C52.4393585 73.68009085 49.21099724 70.066555 45.9519043 66.45361328 C40.60272506 60.57444608 35.04240309 54.93582387 29.39197731 49.34737778 C27.72054659 47.69372382 26.05301574 46.03622026 24.38639832 44.37771606 C19.65803686 39.67350906 14.92361683 34.97543117 10.18530273 30.28125 C7.26365637 27.38629422 4.34682805 24.4865569 1.4329586 21.58377457 C0.32679766 20.48382482 -0.78125754 19.38577665 -1.89122581 18.28966904 C-3.42964825 16.77034215 -4.96192263 15.24506507 -6.49291992 13.71826172 C-7.36575119 12.85288788 -8.23858246 11.98751404 -9.13786316 11.09591675 C-11 9 -11 9 -11 7 C-10.34 7 -9.68 7 -9 7 C-7.484375 8.5390625 -7.484375 8.5390625 -5.75 10.625 C-0.2864252 17.55703835 -0.2864252 17.55703835 7 22 C7.12375 21.21625 7.2475 20.4325 7.375 19.625 C8 17 8 17 10 15 C9.80140494 10.94175314 7.27256824 9.02816246 4.4375 6.375 C2.92337393 4.95299705 1.43506852 3.50174847 0 2 C0 1.34 0 0.68 0 0 Z " fill="#00799A" transform="translate(1084,544)"/>
<path d="M0 0 C1.1055189 0.93590504 2.20935453 1.87379858 3.3125 2.8125 C3.92738281 3.33457031 4.54226563 3.85664062 5.17578125 4.39453125 C6.85424679 5.87172469 8.43882034 7.40039131 10 9 C8.36975592 13.11147404 5.40750592 15.88106885 2.33203125 18.94262695 C1.46323586 19.81908875 1.46323586 19.81908875 0.57688904 20.71325684 C-1.33942425 22.64346711 -3.26307591 24.56615964 -5.1875 26.48828125 C-6.52854018 27.83321077 -7.86935715 29.1783629 -9.20996094 30.52372742 C-12.0244279 33.34565866 -14.84274224 36.16367991 -17.66357422 38.97924805 C-21.25839932 42.56830491 -24.84179047 46.1685357 -28.42207336 49.77209187 C-31.19139454 52.55623498 -33.96770849 55.33332411 -36.7460022 58.10851097 C-38.06867735 59.43169597 -39.3890224 60.75721481 -40.70687866 62.08519936 C-49.22546215 70.66114668 -57.5694779 78.73358804 -68.65625 83.94921875 C-69.61660156 84.40490234 -70.57695313 84.86058594 -71.56640625 85.33007812 C-73.01853516 86.00200195 -73.01853516 86.00200195 -74.5 86.6875 C-75.46808594 87.14705078 -76.43617188 87.60660156 -77.43359375 88.08007812 C-100.63824639 98.99716638 -100.63824639 98.99716638 -113.375 94.875 C-118.77211206 92.43317763 -123.40039416 88.87923636 -125.9375 83.4375 C-126.89893568 80.32697279 -127.54861343 78.20024503 -127 75 C-125.515 74.01 -125.515 74.01 -124 73 C-123.38125 73.33 -122.7625 73.66 -122.125 74 C-120.08981656 75.14193235 -120.08981656 75.14193235 -118 75 C-118 75.66 -118 76.32 -118 77 C-115.03 76.505 -115.03 76.505 -112 76 C-111.731875 76.639375 -111.46375 77.27875 -111.1875 77.9375 C-110.11332248 80.33131686 -110.11332248 80.33131686 -107 81 C-95.80456526 81.98205568 -86.42076453 75.826977 -76.734375 70.90234375 C-76.10337891 70.58249512 -75.47238281 70.26264648 -74.82226562 69.93310547 C-73.10798708 69.05529564 -71.4051132 68.15531469 -69.703125 67.25390625 C-67 66 -67 66 -64 66 C-63.68810226 65.20012665 -63.68810226 65.20012665 -63.36990356 64.38409424 C-61.45071139 61.04405256 -58.80129978 58.54009238 -56.08154297 55.85449219 C-55.47652954 55.24918671 -54.87151611 54.64388123 -54.24816895 54.02023315 C-52.25088001 52.0243355 -50.24660442 50.03561201 -48.2421875 48.046875 C-46.85455498 46.66297332 -45.4673639 45.27862888 -44.08059692 43.89385986 C-40.432074 40.2529678 -36.77758448 36.61812222 -33.12182617 32.98449707 C-29.39140211 29.27454312 -25.66664357 25.55891073 -21.94140625 21.84375 C-14.63314253 14.55692656 -7.31856384 7.27647735 0 0 Z " fill="#004E6C" transform="translate(1060,540)"/>
<path d="M0 0 C8.27249544 4.13624772 12.44141817 11.72115053 16 20 C18.32927704 26.98783112 18.00219882 34.83465636 14.875 41.5 C10.52040853 48.99620482 4.24563904 52.81048003 -4 55 C-15.08160559 56.61731541 -24.28081932 53.00341973 -33.125 46.4375 C-36.24069924 43.96662496 -37.13438063 42.73123873 -39 39 C-26.13 26.13 -13.26 13.26 0 0 Z " fill="#002236" transform="translate(1204,586)"/>
<path d="M0 0 C5.68974711 3.90126011 9.21456887 8.95440942 11.26171875 15.55078125 C12.30219298 22.42304931 10.77909148 28.58996752 7.26171875 34.55078125 C2.5596641 39.9872132 -3.07112189 43.99016151 -10.33984375 44.86328125 C-16.6629028 45.14198358 -21.62844448 44.42088969 -26.73828125 40.55078125 C-31.80253741 35.7567522 -35.30481273 31.36986706 -36.109375 24.28125 C-36.25246885 16.64677241 -36.06096913 11.27011174 -30.73828125 5.55078125 C-21.49421357 -3.82374707 -12.02065466 -6.69910896 0 0 Z " fill="#00172A" transform="translate(405.73828125,337.44921875)"/>
<path d="M0 0 C0.99 0.495 0.99 0.495 2 1 C2 1.66 2 2.32 2 3 C2.99 3.33 3.98 3.66 5 4 C5.495 6.475 5.495 6.475 6 9 C3.6875 10.5625 3.6875 10.5625 1 12 C0.01 11.67 -0.98 11.34 -2 11 C-2.04125 11.99 -2.0825 12.98 -2.125 14 C-3.17475934 21.23167545 -9.20428285 26.37924257 -14.234375 31.234375 C-15.99819301 32.99819301 -17.58652972 34.83816171 -19.1875 36.75 C-23.0700066 41.2722876 -27.47912246 45.15709749 -31.9375 49.09375 C-34.19199758 51.15558049 -36.19248918 53.33017396 -38.17456055 55.65429688 C-42.03307742 60.09498925 -46.11412946 64.2757039 -50.26953125 68.4375 C-51.03174484 69.20304199 -51.79395844 69.96858398 -52.57926941 70.75732422 C-54.17548212 72.35856229 -55.77301792 73.95848243 -57.37182617 75.55712891 C-59.82824177 78.01575594 -62.2765204 80.48230396 -64.72460938 82.94921875 C-66.28076129 84.50830044 -67.83738484 86.06691157 -69.39453125 87.625 C-70.12783157 88.36548584 -70.8611319 89.10597168 -71.61665344 89.86889648 C-72.29463486 90.54380127 -72.97261627 91.21870605 -73.67114258 91.9140625 C-74.26735916 92.5117041 -74.86357574 93.1093457 -75.4778595 93.72509766 C-77 95 -77 95 -79 95 C-79 95.66 -79 96.32 -79 97 C-79.66 97 -80.32 97 -81 97 C-81 97.66 -81 98.32 -81 99 C-86.08335725 98.84595887 -88.35754718 95.97931568 -91.64453125 92.49609375 C-92.09183594 92.00238281 -92.53914063 91.50867188 -93 91 C-87.59206002 84.43535854 -81.62314631 78.45930919 -75.6171875 72.44921875 C-74.51426135 71.34307385 -73.41140819 70.23685616 -72.30862427 69.13056946 C-70.00911176 66.82510155 -67.70757484 64.52167673 -65.40478516 62.21948242 C-62.45639375 59.27119317 -59.51497406 56.31605119 -56.57522392 53.35914898 C-54.30525958 51.0780712 -52.03076995 48.80154771 -49.75497818 46.52628517 C-48.66812541 45.43825401 -47.58289001 44.34860469 -46.4993248 43.25729942 C-44.98716753 41.73534305 -43.4688039 40.21985499 -41.94873047 38.70581055 C-41.08746552 37.84312057 -40.22620056 36.9804306 -39.33883667 36.09159851 C-37.24438958 34.21855518 -35.53882314 33.1260379 -33 32 C-31.3517382 30.59219909 -31.3517382 30.59219909 -29.8359375 28.9609375 C-28.98902344 28.09082031 -28.98902344 28.09082031 -28.125 27.203125 C-27.5475 26.59984375 -26.97 25.9965625 -26.375 25.375 C-25.22082483 24.16998011 -24.06218537 22.96921513 -22.8984375 21.7734375 C-22.38974121 21.24153809 -21.88104492 20.70963867 -21.35693359 20.16162109 C-20 19 -20 19 -18 19 C-17.773125 18.4225 -17.54625 17.845 -17.3125 17.25 C-15.65151778 14.40260191 -13.68475439 12.87932807 -11 11 C-10.34 11 -9.68 11 -9 11 C-8.773125 10.443125 -8.54625 9.88625 -8.3125 9.3125 C-6.63575448 6.35823409 -4.45423315 4.33152149 -2 2 C-1.34 1.34 -0.68 0.68 0 0 Z " fill="#005877" transform="translate(1171,349)"/>
<path d="M0 0 C3.35434989 0.9351378 6.11403717 2.35964086 9.18017578 4.01269531 C9.78036026 4.33473434 10.38054474 4.65677338 10.99891663 4.98857117 C12.26371782 5.66890355 13.52683049 6.35238336 14.78833008 7.03881836 C16.70219236 8.0797674 18.62127985 9.11049105 20.54150391 10.13964844 C26.1164674 13.14575754 31.54876901 16.19756747 36.77783203 19.77441406 C34.22705765 25.48864883 29.56497406 29.32236117 24.77783203 33.21191406 C21.59058214 35.93435668 19.03764098 38.86586611 16.39111328 42.10253906 C14.77783203 43.77441406 14.77783203 43.77441406 11.77783203 44.77441406 C11.77783203 45.43441406 11.77783203 46.09441406 11.77783203 46.77441406 C10.16845703 48.43066406 10.16845703 48.43066406 8.02783203 50.27441406 C7.33173828 50.88285156 6.63564453 51.49128906 5.91845703 52.11816406 C3.9258045 53.65992442 2.03742114 54.68895995 -0.22216797 55.77441406 C-0.65561523 54.93257568 -1.0890625 54.0907373 -1.53564453 53.22338867 C-3.15957437 50.0712202 -4.7848947 46.91977666 -6.41113281 43.76879883 C-7.11187837 42.41035857 -7.81208429 41.05163979 -8.51171875 39.69262695 C-9.52312362 37.72825073 -10.53652826 35.76491702 -11.55029297 33.80175781 C-12.01148529 32.90444191 -12.01148529 32.90444191 -12.48199463 31.98899841 C-14.0590581 28.93971786 -15.70060107 25.95380339 -17.45336914 23.00366211 C-19.22216797 19.77441406 -19.22216797 19.77441406 -19.19482422 17.07910156 C-17.34261349 12.69032915 -13.67209292 9.94380878 -10.22216797 6.77441406 C-9.51833984 6.07960938 -8.81451172 5.38480469 -8.08935547 4.66894531 C-7.41130859 4.023125 -6.73326172 3.37730469 -6.03466797 2.71191406 C-5.11621094 1.82826172 -5.11621094 1.82826172 -4.17919922 0.92675781 C-2.22216797 -0.22558594 -2.22216797 -0.22558594 0 0 Z " fill="#002236" transform="translate(982.22216796875,383.2255859375)"/>
<path d="M0 0 C6.38324936 3.25503444 9.91823215 7.10163979 13.359375 13.390625 C15.72606298 20.739814 14.96799131 26.72660263 11.88671875 33.77734375 C9.10316916 38.55725835 4.68210222 42.0603897 -0.453125 44.078125 C-6.3231091 44.69300762 -13.07151816 45.33341015 -18.453125 42.515625 C-23.48746867 38.42522077 -27.45696137 34.35963073 -29.453125 28.078125 C-30.10258997 21.33887163 -30.46676223 14.81189248 -26.453125 9.078125 C-25.9375 8.2325 -25.421875 7.386875 -24.890625 6.515625 C-18.19907067 -0.17592933 -9.09579838 -3.41816627 0 0 Z " fill="#001627" transform="translate(483.453125,516.921875)"/>
<path d="M0 0 C1.2684375 0.86625 1.2684375 0.86625 2.5625 1.75 C3.42875 2.3275 4.295 2.905 5.1875 3.5 C10.43544789 8.47174011 12.65886221 14.35607718 12.875 21.5 C12.77274916 27.83025624 11.02805247 32.09035085 6.7265625 36.73046875 C0.95438269 42.09350938 -4.23260295 44.26590649 -12.1328125 44.06640625 C-20.03388724 42.98168243 -25.06673213 37.82559075 -29.75 31.75 C-32.56941626 26.45781701 -32.23102277 20.54341845 -31.4375 14.75 C-29.195281 7.79602127 -24.65488148 3.39198079 -18.4375 -0.25 C-12.55444111 -2.21101963 -5.80795673 -2.11198427 0 0 Z " fill="#001728" transform="translate(389.4375,454.25)"/>
<path d="M0 0 C4.88295041 2.86873336 8.19146643 6.96139657 11 11.8125 C12.70527097 18.97463808 11.84563419 25.82735942 8.625 32.4375 C5.39391121 37.35561745 2.12679457 40.18103419 -3.375 42.4375 C-6.8125 42.8359375 -6.8125 42.8359375 -10.375 42.8125 C-11.550625 42.82023437 -12.72625 42.82796875 -13.9375 42.8359375 C-20.27006598 42.10193553 -24.27733917 39.18215991 -28.375 34.4375 C-33.1865717 28.19546104 -33.30442842 22.15664763 -32.375 14.4375 C-30.55445375 7.91488067 -24.58802353 3.37366878 -19.375 -0.5625 C-13.28221719 -2.5934276 -5.91248609 -2.67605753 0 0 Z " fill="#001628" transform="translate(514.375,299.5625)"/>
<path d="M0 0 C0.99 0.66 1.98 1.32 3 2 C2.34 2 1.68 2 1 2 C0.67 3.32 0.34 4.64 0 6 C0.66 6 1.32 6 2 6 C3.5078125 7.828125 3.5078125 7.828125 5.125 10.25 C5.66382813 11.03890625 6.20265625 11.8278125 6.7578125 12.640625 C8.27337637 15.51924318 8 17.80925681 8 21 C8.99 21 9.98 21 11 21 C9.68 17.7 8.36 14.4 7 11 C12.60476823 12.57804154 17.35050626 15.26416385 22.375 18.125 C23.20644531 18.59292969 24.03789063 19.06085938 24.89453125 19.54296875 C26.93234954 20.69070549 28.96735569 21.84313282 31 23 C31 23.99 31 24.98 31 26 C31.66 26.66 32.32 27.32 33 28 C32.01 29.32 31.02 30.64 30 32 C30.66 32 31.32 32 32 32 C31.505 32.99 31.505 32.99 31 34 C30.67 34.99 30.34 35.98 30 37 C30.66 37 31.32 37 32 37 C32.1875 39.8125 32.1875 39.8125 32 43 C31 44 30 45 29 46 C28.48875942 50.95334319 29.64777851 53.97036833 31.95703125 58.31640625 C32.41247566 59.18482399 32.41247566 59.18482399 32.87712097 60.07078552 C33.84418608 61.90765642 34.8280965 63.73487369 35.8125 65.5625 C36.46268565 66.79304074 37.11178478 68.0241562 37.75976562 69.25585938 C41.04929079 75.57323407 41.04929079 75.57323407 44.7722168 81.63647461 C46 84 46 84 45 88 C43.35 84.7 41.7 81.4 40 78 C39.195625 79.32 38.39125 80.64 37.5625 82 C36.73850924 83.35218996 35.89112037 84.69107565 35 86 C34.67 86 34.34 86 34 86 C33.814375 84.576875 33.814375 84.576875 33.625 83.125 C33.28312823 79.91332809 33.28312823 79.91332809 31 78 C31 81.27275026 31.29925156 83.846632 32 87 C28.66825961 84.23163485 27.02730949 80.51348184 25.12109375 76.71875 C24.75260818 75.99704117 24.38412262 75.27533234 24.00447083 74.53175354 C22.8102794 72.19044317 21.62394793 69.84524231 20.4375 67.5 C19.21215641 65.09344983 17.98478505 62.6879412 16.7572937 60.28248596 C15.94992973 58.70000916 15.14322433 57.11719618 14.33718872 55.53404236 C11.35721979 49.68389447 8.32648015 43.86252275 5.25 38.0625 C4.4931528 36.62647953 3.73662082 35.19029286 2.98046875 33.75390625 C1.72039774 31.3612822 0.45133467 28.97433654 -0.82421875 26.58984375 C-4.15620901 20.20823529 -6.42254189 14.02937475 -8 7 C-7.01 6.67 -6.02 6.34 -5 6 C-4.34 5.01 -3.68 4.02 -3 3 C-2.34 3 -1.68 3 -1 3 C-0.67 2.01 -0.34 1.02 0 0 Z M29 37 C30 39 30 39 30 39 Z " fill="#007899" transform="translate(935,351)"/>
<path d="M0 0 C7.00566272 4.07413334 12.52081252 9.45728773 15.625 17 C17.11974703 27.65007261 15.03544486 37.30944511 10.625 47 C8.95703125 48.921875 8.95703125 48.921875 7.625 50 C7.7178125 48.8553125 7.7178125 48.8553125 7.8125 47.6875 C7.83704365 45.02681256 7.83704365 45.02681256 6.5 43.1875 C3.84964043 41.50893894 1.69253576 41.79549762 -1.375 42 C-1.4678125 43.85625 -1.4678125 43.85625 -1.5625 45.75 C-1.97856929 49.30550124 -2.21755104 49.84639125 -4.9375 52.5 C-5.741875 52.995 -6.54625 53.49 -7.375 54 C-6.61085315 48.032377 -3.68712126 42.69662403 -1.16992188 37.30078125 C1.25082249 31.82893593 2.55608583 27.0048289 1.625 21 C-0.56705378 16.61589244 -2.80615383 13.86907343 -7.375 12 C-14.01024335 11.44706305 -18.42133657 12.8579859 -24.375 15.6875 C-25.13039063 16.02716797 -25.88578125 16.36683594 -26.6640625 16.71679688 C-34.0297221 20.10221602 -40.62694633 23.99489256 -46.5625 29.5625 C-49.73730082 32.52188622 -52.95730108 35.32290369 -56.375 38 C-56.065625 37.484375 -55.75625 36.96875 -55.4375 36.4375 C-54.18671983 33.8706075 -54.18671983 33.8706075 -53.875 30.3125 C-53.71 29.219375 -53.545 28.12625 -53.375 27 C-51.375 26 -51.375 26 -48.375 26 C-47.385 25.67 -46.395 25.34 -45.375 25 C-45.375 23.35 -45.375 21.7 -45.375 20 C-46.014375 19.87625 -46.65375 19.7525 -47.3125 19.625 C-48.3334375 19.315625 -48.3334375 19.315625 -49.375 19 C-49.87 18.01 -49.87 18.01 -50.375 17 C-50.82875 17.495 -51.2825 17.99 -51.75 18.5 C-53.375 20 -53.375 20 -55.375 20 C-55.601875 20.556875 -55.82875 21.11375 -56.0625 21.6875 C-58.77654131 26.46938231 -63.14501719 29.61601375 -67.375 33 C-69.05338269 34.6548677 -70.71770958 36.32400954 -72.375 38 C-73.4850084 39.11134536 -74.59571986 40.22198884 -75.70703125 41.33203125 C-76.56264648 42.18764648 -76.56264648 42.18764648 -77.43554688 43.06054688 C-80.08203125 45.70703125 -82.72851562 48.35351562 -85.375 51 C-85.375 47.32709284 -84.73899502 46.982197 -82.22900391 44.44995117 C-81.54053375 43.74879684 -80.8520636 43.04764252 -80.14273071 42.32524109 C-79.3866452 41.57209122 -78.63055969 40.81894135 -77.8515625 40.04296875 C-77.07622162 39.26238602 -76.30088074 38.48180328 -75.50204468 37.67756653 C-73.8529755 36.02206108 -72.19998995 34.37044916 -70.54345703 32.72241211 C-68.03280026 30.22019007 -65.54121789 27.70006166 -63.05078125 25.17773438 C-61.44384109 23.56918008 -59.83580101 21.96172371 -58.2265625 20.35546875 C-57.1227977 19.23485298 -57.1227977 19.23485298 -55.99673462 18.09159851 C-42.77128363 5.0384652 -18.59866685 -8.20032129 0 0 Z " fill="#007899" transform="translate(1221.375,333)"/>
<path d="M0 0 C3.71268094 1.54127351 5.98115698 3.80843234 8.75 6.6875 C11.72656345 9.72924367 14.69396244 12.682165 17.9375 15.4375 C23.25608128 19.98068236 28.09830369 25.01720945 33 30 C29.62636822 33.88400171 25.93225468 35.77009011 21.375 37.9375 C19.94004366 38.63529226 18.50514777 39.33320883 17.0703125 40.03125 C16.37454102 40.36640625 15.67876953 40.7015625 14.96191406 41.046875 C11.61796317 42.67141261 8.31960775 44.38586663 5.015625 46.08984375 C0.56424811 48.09986471 -4.15579526 48.80576871 -9 48 C-12 46.125 -12 46.125 -14 43 C-16.86305364 29.14079345 -7.05613738 11.39837576 0 0 Z " fill="#001426" transform="translate(962,574)"/>
<path d="M0 0 C0.66 0 1.32 0 2 0 C2 0.99 2 1.98 2 3 C2.66 3 3.32 3 4 3 C4.66 4.65 5.32 6.3 6 8 C5.34 8 4.68 8 4 8 C3.75121094 8.57878906 3.50242187 9.15757812 3.24609375 9.75390625 C1.40192289 13.07803869 -1.27772977 15.31719266 -4.02734375 17.90234375 C-6.06382422 19.90081217 -6.06382422 19.90081217 -7.29052734 22.28613281 C-9.27803735 25.4413972 -11.67689592 27.92825117 -14.32421875 30.51953125 C-14.83048294 31.02296555 -15.33674713 31.52639984 -15.85835266 32.04508972 C-17.46340218 33.63901748 -19.07529144 35.22581707 -20.6875 36.8125 C-21.78236179 37.89732164 -22.87676774 38.98260355 -23.97070312 40.06835938 C-26.64189128 42.71759348 -29.31923284 45.36046077 -32 48 C-33.13199353 47.0919838 -34.25532363 46.17316174 -35.375 45.25 C-36.31472656 44.48429687 -36.31472656 44.48429687 -37.2734375 43.703125 C-39.08860378 41.91259898 -39.90128789 40.27385637 -41 38 C-41.66 37.67 -42.32 37.34 -43 37 C-42.31103638 36.41931763 -42.31103638 36.41931763 -41.6081543 35.8269043 C-35.71275677 30.77255915 -30.26034043 25.34159085 -24.8125 19.8125 C-23.07142108 18.04579814 -21.32800817 16.28139273 -19.58203125 14.51953125 C-18.44084839 13.36094604 -18.44084839 13.36094604 -17.27661133 12.17895508 C-10.82072829 6 -10.82072829 6 -8 6 C-6.43733479 4.900237 -6.43733479 4.900237 -4.875 3.5 C-3.92625 2.675 -2.9775 1.85 -2 1 C-1.34 1.33 -0.68 1.66 0 2 C0 1.34 0 0.68 0 0 Z " fill="#005D7D" transform="translate(1162,443)"/>
<path d="M0 0 C0.61875 0.639375 1.2375 1.27875 1.875 1.9375 C4.24653172 4.31558292 6.72760186 6.53321665 9.25 8.75 C17.16833197 15.81392229 24.54190129 23.45747488 32 31 C30.4674096 34.20610865 28.75883811 36.60129099 26.375 39.25 C25.74335937 39.95640625 25.11171875 40.6628125 24.4609375 41.390625 C23.97882812 41.92171875 23.49671875 42.4528125 23 43 C20.27784218 41.63892109 18.82988505 39.45433908 16.8984375 37.16015625 C11.36223585 30.86073338 5.26154417 25.1181997 -1.10546875 19.671875 C-4.21537263 16.92746498 -7.10923774 13.97206494 -10 11 C-6.79239749 7.19364503 -3.59253891 3.45436433 0 0 Z " fill="#00425D" transform="translate(973,563)"/>
<path d="M0 0 C4.17901679 3.45572543 7.68590682 6.69167887 11 11 C13.35477895 13.47553685 15.658177 15.73913508 18.375 17.8125 C22.01261393 20.84384494 24.99334201 24.35211163 28 28 C28.87785156 28.99 28.87785156 28.99 29.7734375 30 C31 32 31 32 30.91015625 34.046875 C29.79212563 36.44608233 28.49777335 37.60178132 26.4375 39.25 C25.47650391 40.03117187 25.47650391 40.03117187 24.49609375 40.828125 C24.00238281 41.21484375 23.50867187 41.6015625 23 42 C15.10476609 34.87637708 7.46422622 27.57471641 0 20 C-0.763125 19.27683594 -1.52625 18.55367188 -2.3125 17.80859375 C-4 16 -4 16 -4 14 C-4.99 13.67 -5.98 13.34 -7 13 C-7 12.34 -7 11.68 -7 11 C-7.99 10.67 -8.98 10.34 -10 10 C-6.7 6.7 -3.4 3.4 0 0 Z " fill="#00354D" transform="translate(1164,372)"/>
<path d="M0 0 C3.0625 1.875 3.0625 1.875 6 4 C7.3191582 4.69429379 8.64649406 5.37530495 10 6 C9.01 6.66 8.02 7.32 7 8 C7.495 8.99 7.495 8.99 8 10 C6.88625 10.639375 5.7725 11.27875 4.625 11.9375 C0.09014386 14.75668232 -3.70841184 18.18377 -7.60546875 21.81640625 C-9.9913889 23.99214746 -12.45866663 26.00936409 -15 28 C-14.690625 27.484375 -14.38125 26.96875 -14.0625 26.4375 C-12.81171983 23.8706075 -12.81171983 23.8706075 -12.5 20.3125 C-12.335 19.219375 -12.17 18.12625 -12 17 C-10 16 -10 16 -7 16 C-6.01 15.67 -5.02 15.34 -4 15 C-4 13.35 -4 11.7 -4 10 C-4.639375 9.87625 -5.27875 9.7525 -5.9375 9.625 C-6.618125 9.41875 -7.29875 9.2125 -8 9 C-8.495 8.01 -8.495 8.01 -9 7 C-9.45375 7.495 -9.9075 7.99 -10.375 8.5 C-12 10 -12 10 -14 10 C-14.226875 10.556875 -14.45375 11.11375 -14.6875 11.6875 C-17.40154131 16.46938231 -21.77001719 19.61601375 -26 23 C-27.67838269 24.6548677 -29.34270958 26.32400954 -31 28 C-32.1100084 29.11134536 -33.22071986 30.22198884 -34.33203125 31.33203125 C-35.18764648 32.18764648 -35.18764648 32.18764648 -36.06054688 33.06054688 C-38.70703125 35.70703125 -41.35351562 38.35351562 -44 41 C-44 38 -44 38 -42.65348816 36.28599548 C-41.70775688 35.34573265 -41.70775688 35.34573265 -40.74291992 34.38647461 C-40.03185593 33.67240952 -39.32079193 32.95834442 -38.58818054 32.22264099 C-37.81013565 31.4569429 -37.03209076 30.69124481 -36.23046875 29.90234375 C-35.43852615 29.11227432 -34.64658356 28.3222049 -33.8306427 27.50819397 C-32.15189693 25.83617983 -30.46955287 24.16777199 -28.78393555 22.50268555 C-26.20170857 19.95153756 -23.63023289 17.38994547 -21.06054688 14.82617188 C-19.43030752 13.2051054 -17.79946783 11.58464239 -16.16796875 9.96484375 C-15.39599655 9.19712143 -14.62402435 8.42939911 -13.82865906 7.63841248 C-13.10813858 6.92749954 -12.3876181 6.21658661 -11.64526367 5.48413086 C-11.01238937 4.85808456 -10.37951508 4.23203827 -9.72746277 3.58702087 C-6.44405503 0.57055261 -4.42022628 -0.61677576 0 0 Z " fill="#006C8D" transform="translate(1180,343)"/>
<path d="M0 0 C5.60476823 1.57804154 10.35050626 4.26416385 15.375 7.125 C16.20644531 7.59292969 17.03789063 8.06085938 17.89453125 8.54296875 C19.93234954 9.69070549 21.96735569 10.84313282 24 12 C24 15 24 15 21.8125 17.48046875 C20.884375 18.37378906 19.95625 19.26710938 19 20.1875 C18.071875 21.08855469 17.14375 21.98960937 16.1875 22.91796875 C15.465625 23.60503906 14.74375 24.29210937 14 25 C11.39328269 22.65667921 9.91053097 20.25022855 8.30078125 17.1484375 C7.81416016 16.21515625 7.32753906 15.281875 6.82617188 14.3203125 C6.0769043 12.86238281 6.0769043 12.86238281 5.3125 11.375 C4.80138672 10.3953125 4.29027344 9.415625 3.76367188 8.40625 C0 1.15025242 0 1.15025242 0 0 Z " fill="#001E32" transform="translate(942,362)"/>
<path d="M0 0 C1.12591553 0.00523682 2.25183105 0.01047363 3.41186523 0.01586914 C4.62680664 0.0190918 5.84174805 0.02231445 7.09350586 0.02563477 C8.37290039 0.03401367 9.65229492 0.04239258 10.97045898 0.05102539 C12.2537207 0.05553711 13.53698242 0.06004883 14.85913086 0.06469727 C18.04211921 0.07652994 21.22501661 0.09301471 24.40795898 0.11352539 C24.40795898 0.44352539 24.40795898 0.77352539 24.40795898 1.11352539 C23.34883301 1.11968872 23.34883301 1.11968872 22.26831055 1.12597656 C19.06401296 1.15890465 15.86161877 1.22954786 12.65795898 1.30102539 C11.54678711 1.30682617 10.43561523 1.31262695 9.29077148 1.31860352 C2.88225635 1.28428247 2.88225635 1.28428247 -2.23266602 4.66430664 C-2.68125977 5.47254883 -3.12985352 6.28079102 -3.59204102 7.11352539 C-4.25204102 7.11352539 -4.91204102 7.11352539 -5.59204102 7.11352539 C-5.92204102 8.43352539 -6.25204102 9.75352539 -6.59204102 11.11352539 C-7.25204102 10.78352539 -7.91204102 10.45352539 -8.59204102 10.11352539 C-8.59204102 9.12352539 -8.59204102 8.13352539 -8.59204102 7.11352539 C-9.25204102 7.11352539 -9.91204102 7.11352539 -10.59204102 7.11352539 C-10.59204102 5.13352539 -10.59204102 3.15352539 -10.59204102 1.11352539 C-9.45766602 1.13415039 -8.32329102 1.15477539 -7.15454102 1.17602539 C-3.34711965 1.10922852 -3.44311955 0.15080066 0 0 Z " fill="#006585" transform="translate(456.592041015625,608.886474609375)"/>
<path d="M0 0 C3 -0.3125 3 -0.3125 6 0 C8 2 8 2 8.25 4.5 C8 7 8 7 6 9 C2.875 9.125 2.875 9.125 0 9 C-1.125 6.1875 -1.125 6.1875 -2 3 C-1.34 2.01 -0.68 1.02 0 0 Z " fill="#002439" transform="translate(326,920)"/>
<path d="M0 0 C0.66 0.66 1.32 1.32 2 2 C-0.71011356 4.79480461 -3.46728862 7.42080477 -6.4375 9.9375 C-12.97425025 15.58001274 -18.93650439 21.85985908 -25 28 C-25 25 -25 25 -22.70507812 22.36450195 C-21.6548023 21.3147016 -20.59625766 20.27313331 -19.53125 19.23828125 C-18.97634888 18.68762497 -18.42144775 18.13696869 -17.84973145 17.56962585 C-16.07339313 15.81009875 -14.2869152 14.06127835 -12.5 12.3125 C-11.29489115 11.12243479 -10.09045517 9.93168777 -8.88671875 8.74023438 C-5.93223292 5.81885021 -2.96861031 2.90702744 0 0 Z " fill="#006385" transform="translate(1161,356)"/>
<path d="M0 0 C0.33 0 0.66 0 1 0 C1.16207546 11.03913945 0.65764731 21.98440762 0 33 C-0.33 33 -0.66 33 -1 33 C-1 24.75 -1 16.5 -1 8 C-1.66 7.67 -2.32 7.34 -3 7 C-2.34 7 -1.68 7 -1 7 C-1.33 5.68 -1.66 4.36 -2 3 C-1.34 3 -0.68 3 0 3 C0 2.01 0 1.02 0 0 Z " fill="#0083A7" transform="translate(295,415)"/>
<path d="M0 0 C4.01715686 4.38235294 4.01715686 4.38235294 3.9375 7.25 C3 9 3 9 0 10 C-2.125 9.25 -2.125 9.25 -4 8 C-4.33 7.01 -4.66 6.02 -5 5 C-3.35 3.35 -1.7 1.7 0 0 Z " fill="#006384" transform="translate(1200,400)"/>
<path d="M0 0 C4.07376031 1.61010527 6.76507069 4.53822271 9.75 7.625 C10.25660156 8.140625 10.76320313 8.65625 11.28515625 9.1875 C12.52803902 10.45383339 13.76465276 11.7263144 15 13 C15.99 12.67 16.98 12.34 18 12 C18 13.98 18 15.96 18 18 C13.46334263 14.2698595 9.22058878 10.32946434 5.0625 6.1875 C4.31746216 5.44922974 4.31746216 5.44922974 3.55737305 4.69604492 C0 1.12375366 0 1.12375366 0 0 Z " fill="#0084A8" transform="translate(1105,584)"/>
<path d="M0 0 C0.66 0.66 1.32 1.32 2 2 C1.34 2.66 0.68 3.32 0 4 C0.36681658 6.93453261 0.86437246 7.86437246 3 10 C5.58354218 10.16687448 5.58354218 10.16687448 8 10 C7.34 11.65 6.68 13.3 6 15 C4.86800647 14.0919838 3.74467637 13.17316174 2.625 12.25 C1.99851562 11.73953125 1.37203125 11.2290625 0.7265625 10.703125 C-1.08860378 8.91259898 -1.90128789 7.27385637 -3 5 C-3.66 4.67 -4.32 4.34 -5 4 C-3.35 2.68 -1.7 1.36 0 0 Z M2 0 C4 1 4 1 4 1 Z " fill="#005270" transform="translate(1124,476)"/>
<path d="M0 0 C0.639375 0.66 1.27875 1.32 1.9375 2 C10.43112373 10.55105063 10.43112373 10.55105063 21 16 C20.34 16.66 19.68 17.32 19 18 C11.12918977 13.81595273 4.57186218 9.89862147 0 2 C0 1.34 0 0.68 0 0 Z " fill="#001728" transform="translate(360,377)"/>
<path d="M0 0 C4.53847198 1.34927545 8.31932246 3.19159348 12.375 5.625 C13.43460938 6.25664062 14.49421875 6.88828125 15.5859375 7.5390625 C16.38257813 8.02117187 17.17921875 8.50328125 18 9 C17.01 9.33 16.02 9.66 15 10 C13.32260138 9.01810813 11.65532623 8.01866229 10 7 C9.01 7.495 9.01 7.495 8 8 C6.68 7.01 5.36 6.02 4 5 C4.33 4.34 4.66 3.68 5 3 C2.525 2.01 2.525 2.01 0 1 C0 0.67 0 0.34 0 0 Z " fill="#0081A5" transform="translate(939,344)"/>
<path d="M0 0 C3.49928164 2.33285443 3.6329098 3.20795069 4.6875 7.125 C4.93886719 8.03507813 5.19023438 8.94515625 5.44921875 9.8828125 C5.72185547 10.93082031 5.72185547 10.93082031 6 12 C4.11328125 11.70703125 4.11328125 11.70703125 2 11 C-1.15759312 5.22922636 -1.15759312 5.22922636 -0.6875 1.5625 C-0.460625 1.046875 -0.23375 0.53125 0 0 Z " fill="#004460" transform="translate(934,616)"/>
<path d="M0 0 C0.66 0 1.32 0 2 0 C0.58725244 4.23824267 -1.45514553 7.0069347 -4.4375 10.3125 C-5.21996094 11.19550781 -6.00242187 12.07851563 -6.80859375 12.98828125 C-9 15 -9 15 -12 15 C-12 14.34 -12 13.68 -12 13 C-10.390625 11.484375 -10.390625 11.484375 -8.25 9.75 C-5.60301824 7.51923975 -3.45647025 5.50543502 -1.625 2.5625 C-1.08875 1.716875 -0.5525 0.87125 0 0 Z " fill="#001729" transform="translate(425,376)"/>
<path d="M0 0 C0.61875 0.639375 1.2375 1.27875 1.875 1.9375 C6.07201536 6.14668062 10.56422757 10.04656399 15 14 C14.01 14.495 14.01 14.495 13 15 C7.69802189 11.17079358 3.11946215 7.83203793 0 2 C0 1.34 0 0.68 0 0 Z " fill="#00192B" transform="translate(472,338)"/>
<path d="M0 0 C0.33 0 0.66 0 1 0 C1 7.59 1 15.18 1 23 C-0.65 23 -2.3 23 -4 23 C-3.51917969 22.54109375 -3.03835938 22.0821875 -2.54296875 21.609375 C-0.20598469 17.65720955 -0.42921637 13.76525629 -0.3125 9.25 C-0.27833984 8.36183594 -0.24417969 7.47367187 -0.20898438 6.55859375 C-0.12671286 4.37252197 -0.05749828 2.18684049 0 0 Z " fill="#006180" transform="translate(295,429)"/>
<path d="M0 0 C0.99 0.33 1.98 0.66 3 1 C2.01 2.485 2.01 2.485 1 4 C1.99 4.33 2.98 4.66 4 5 C4 5.66 4 6.32 4 7 C4.66 7 5.32 7 6 7 C6 7.66 6 8.32 6 9 C7.32 9.66 8.64 10.32 10 11 C4.91664275 10.84595887 2.64245282 7.97931568 -0.64453125 4.49609375 C-1.09183594 4.00238281 -1.53914063 3.50867188 -2 3 C-1.34 2.01 -0.68 1.02 0 0 Z " fill="#004E6B" transform="translate(1080,437)"/>
<path d="M0 0 C2.37287264 4.58755377 3.1181816 8.00911138 3.0625 13.1875 C3.05347656 14.27417969 3.04445313 15.36085938 3.03515625 16.48046875 C3.02355469 17.31191406 3.01195312 18.14335937 3 19 C-0.83508741 13.24736889 -0.11884965 6.68199149 0 0 Z " fill="#0084A9" transform="translate(284,458)"/>
<path d="M0 0 C2.61371215 2.3932786 4.40088665 4.98397046 6.25 8 C6.79140625 8.86625 7.3328125 9.7325 7.890625 10.625 C9 13 9 13 8 16 C4.6742879 13.30775688 3.59386949 9.88072572 2 6 C1.34 5.01 0.68 4.02 0 3 C0 2.01 0 1.02 0 0 Z " fill="#007DA0" transform="translate(841,507)"/>
<path d="M0 0 C2 3 2 3 3.4375 6.125 C4.73429769 9.2906178 4.73429769 9.2906178 8 10 C8.33 11.98 8.66 13.96 9 16 C4.99049093 12.32461669 2.40630753 8.90173757 0 4 C0 2.68 0 1.36 0 0 Z " fill="#0081A4" transform="translate(470,329)"/>
<path d="M0 0 C0.66 0.33 1.32 0.66 2 1 C0.70700306 3.88437779 -0.65941363 5.87219421 -3 8 C-4.32 7.34 -5.64 6.68 -7 6 C-6.67 5.34 -6.34 4.68 -6 4 C-4.68 4 -3.36 4 -2 4 C-2 3.34 -2 2.68 -2 2 C-1.34 2 -0.68 2 0 2 C0 1.34 0 0.68 0 0 Z " fill="#004C69" transform="translate(1161,371)"/>
<path d="M0 0 C3.5 0.3125 3.5 0.3125 7 1 C7.33 1.66 7.66 2.32 8 3 C2.72 3 -2.56 3 -8 3 C-6 1 -6 1 -3.4375 0.9375 C-2.2309375 0.9684375 -2.2309375 0.9684375 -1 1 C-0.67 0.67 -0.34 0.34 0 0 Z " fill="#007EA5" transform="translate(469,620)"/>
<path d="M0 0 C-3.3 3.3 -6.6 6.6 -10 10 C-10 6.08087178 -8.4275386 4.95856266 -6 2 C-6 1.34 -6 0.68 -6 0 C-2.25 -1.125 -2.25 -1.125 0 0 Z " fill="#006688" transform="translate(1148,473)"/>
<path d="M0 0 C0.99 1.32 1.98 2.64 3 4 C2.67 4.66 2.34 5.32 2 6 C1.01 6 0.02 6 -1 6 C-3.18777466 7.9375006 -3.18777466 7.9375006 -5 10 C-3.84414715 6.08788267 -2.64465038 3.1254959 0 0 Z " fill="#007CA1" transform="translate(638,601)"/>
<path d="M0 0 C2 2 2 2 2 5 C1.360625 5.103125 0.72125 5.20625 0.0625 5.3125 C-0.618125 5.539375 -1.29875 5.76625 -2 6 C-2.33 6.99 -2.66 7.98 -3 9 C-3.66 8.67 -4.32 8.34 -5 8 C-3.35 5.36 -1.7 2.72 0 0 Z " fill="#007B9E" transform="translate(680,530)"/>
<path d="M0 0 C2.35729943 2.19138979 4.02057098 4.43931973 5.6875 7.1875 C6.12449219 7.90292969 6.56148438 8.61835938 7.01171875 9.35546875 C7.33785156 9.89816406 7.66398437 10.44085938 8 11 C7.01 11.495 7.01 11.495 6 12 C4.99157547 10.56839732 3.99352109 9.12948547 3 7.6875 C2.1646875 6.48673828 2.1646875 6.48673828 1.3125 5.26171875 C0 3 0 3 0 0 Z " fill="#00182B" transform="translate(346,489)"/>
<path d="M0 0 C0.99 0.66 1.98 1.32 3 2 C2.67 2.99 2.34 3.98 2 5 C2 4.34 2 3.68 2 3 C1.34 3 0.68 3 0 3 C-0.268125 3.598125 -0.53625 4.19625 -0.8125 4.8125 C-1.98493467 6.97224808 -3.19369282 8.35790256 -5 10 C-3.84414715 6.08788267 -2.64465038 3.1254959 0 0 Z " fill="#001728" transform="translate(767,411)"/>
<path d="M0 0 C0 3 0 3 -1 6 C-2.65 6.33 -4.3 6.66 -6 7 C-6 6.01 -6 5.02 -6 4 C-3 1.8125 -3 1.8125 0 0 Z " fill="#0080A3" transform="translate(384,252)"/>
<path d="M0 0 C3.96 0 7.92 0 12 0 C12 0.99 12 1.98 12 3 C6.06 2.01 6.06 2.01 0 1 C0 0.67 0 0.34 0 0 Z " fill="#006D8E" transform="translate(474,220)"/>
<path d="M0 0 C0.33 0 0.66 0 1 0 C1 1.65 1 3.3 1 5 C-0.875 6.0625 -0.875 6.0625 -3 7 C-3.66 6.67 -4.32 6.34 -5 6 C-4.67 5.01 -4.34 4.02 -4 3 C-2.68 3 -1.36 3 0 3 C0 2.01 0 1.02 0 0 Z " fill="#003A54" transform="translate(947,611)"/>
<path d="M0 0 C0.99 0.33 1.98 0.66 3 1 C0.47043472 4.0916909 -2.22454612 4.90931332 -6 6 C-4 4 -2 2 0 0 Z " fill="#000B19" transform="translate(569,590)"/>
<path d="M0 0 C0.763125 0.0825 1.52625 0.165 2.3125 0.25 C1.9825 0.91 1.6525 1.57 1.3125 2.25 C0.3225 2.25 -0.6675 2.25 -1.6875 2.25 C-1.6875 3.24 -1.6875 4.23 -1.6875 5.25 C-3.0075 4.92 -4.3275 4.59 -5.6875 4.25 C-3.34903846 0.31153846 -3.34903846 0.31153846 0 0 Z " fill="#006F8F" transform="translate(990.6875,378.75)"/>
<path d="M0 0 C0.33 0.66 0.66 1.32 1 2 C-0.59617578 5.83082186 -1.49984971 7.66656647 -5 10 C-3.66511872 6.40608886 -2.03977277 3.24509304 0 0 Z " fill="#007CA0" transform="translate(587,687)"/>
<path d="M0 0 C2.64 0 5.28 0 8 0 C7.67 0.99 7.34 1.98 7 3 C5.68 3 4.36 3 3 3 C3 2.34 3 1.68 3 1 C2.01 0.67 1.02 0.34 0 0 Z " fill="#0084A9" transform="translate(1205,331)"/>
<path d="M0 0 C2 3 2 3 3 6 C1.68 6.33 0.36 6.66 -1 7 C-1.33 5.02 -1.66 3.04 -2 1 C-1.34 0.67 -0.68 0.34 0 0 Z " fill="#006F8E" transform="translate(527,322)"/>
<path d="M0 0 C0.66 0 1.32 0 2 0 C0.70700306 2.88437779 -0.65941363 4.87219421 -3 7 C-3.66 6.67 -4.32 6.34 -5 6 C-3.38405168 3.95880212 -1.7143618 1.95927063 0 0 Z " fill="#00182A" transform="translate(342,308)"/>
</svg>
