<svg width="22" height="22" viewBox="0 0 22 22" fill="none" xmlns="http://www.w3.org/2000/svg">
<g clip-path="url(#clip0_12_206)">
<path fill-rule="evenodd" clip-rule="evenodd" d="M2.59179 0.702613C2.83238 0.462385 3.12128 0.276031 3.43934 0.1559C3.75739 0.0357682 4.09735 -0.015397 4.43668 0.00579482C4.77601 0.0269866 5.10696 0.120051 5.4076 0.278822C5.70824 0.437592 5.97171 0.658443 6.18054 0.926738L8.64867 4.09749C9.10104 4.67911 9.26054 5.43674 9.08179 6.15174L8.32967 9.16299C8.29105 9.31897 8.29329 9.48227 8.33616 9.63713C8.37903 9.792 8.46109 9.9332 8.57442 10.0471L11.9528 13.4255C12.0668 13.539 12.2083 13.6212 12.3634 13.6641C12.5185 13.707 12.6821 13.7091 12.8383 13.6702L15.8482 12.9181C16.201 12.8304 16.5692 12.8238 16.925 12.8988C17.2808 12.9738 17.615 13.1285 17.9024 13.3512L21.0732 15.818C22.213 16.7049 22.3175 18.3892 21.2973 19.4081L19.8755 20.8299C18.858 21.8474 17.3373 22.2942 15.9197 21.7951C12.2906 20.5199 8.99591 18.4425 6.28092 15.7176C3.55618 13.003 1.4788 9.70882 0.203415 6.08024C-0.294335 4.66399 0.15254 3.14186 1.17004 2.12436L2.59179 0.702613Z" fill="#1B9AAA"/>
</g>
<defs>
<clipPath id="clip0_12_206">
<rect width="22" height="22" fill="white"/>
</clipPath>
</defs>
</svg>
